<svg width="67" height="67" viewBox="0 0 67 67" fill="none" xmlns="http://www.w3.org/2000/svg">
<g filter="url(#filter0_d_1138_41389)">
<rect x="4.81543" y="1" width="58" height="58" rx="20" fill="url(#paint0_radial_1138_41389)"/>
<rect x="5.31543" y="1.5" width="57" height="57" rx="19.5" stroke="url(#paint1_linear_1138_41389)"/>
</g>
<g filter="url(#filter1_d_1138_41389)">
<path fill-rule="evenodd" clip-rule="evenodd" d="M23.2327 16.0003C22.8789 16.0005 22.5251 16.0006 22.1712 16.0006H19.0593C18.3362 16.0014 18.2324 16.1231 18.3083 16.8525C18.5159 18.8555 18.7207 20.8593 18.924 22.863C18.9683 23.3025 18.808 23.4844 18.367 23.4915C18.1972 23.4943 18.0271 23.4924 17.857 23.4905C17.5497 23.487 17.2425 23.4836 16.9374 23.508C16.7821 23.5209 16.5759 23.6655 16.5136 23.8036C16.4649 23.9132 16.5544 24.1551 16.6611 24.2539C18.3534 25.8303 20.0579 27.3952 21.7638 28.9579C22.0638 29.2328 22.31 29.2307 22.6143 28.9522L22.8508 28.7355C24.4686 27.2529 26.0864 25.7703 27.6913 24.274C27.813 24.1609 27.911 23.8874 27.8559 23.7578C27.8001 23.6254 27.5466 23.5194 27.3713 23.5051C27.0701 23.4799 26.7668 23.4846 26.4634 23.4893C26.3369 23.4912 26.2105 23.4932 26.0841 23.493C25.4806 23.4915 25.3504 23.3312 25.4119 22.7391C25.6202 20.7354 25.8228 18.7317 26.019 16.7272C26.077 16.1352 25.9445 16.0021 25.3554 16.0006C24.6476 15.9997 23.9402 16 23.2327 16.0003ZM49.5448 28.6278C49.1726 25.4393 47.8661 22.6796 45.6354 20.3817C43.1106 17.7809 40.023 16.3284 36.3993 16.0456C33.331 15.8065 30.4869 16.5167 27.8439 18.0744C27.5804 18.2297 27.4258 18.4388 27.3993 18.7595C27.3537 19.3051 27.2993 19.8498 27.2449 20.3944C27.2104 20.7395 27.1759 21.0846 27.1437 21.4297C27.0936 21.9623 27.1294 21.9981 27.6613 22.0181C28.4624 22.0482 29.1317 22.5071 29.3916 23.2423C29.6586 23.9975 29.466 24.6576 28.8862 25.1938C27.1344 26.8138 25.3798 28.4302 23.6166 30.0381C23.0089 30.5922 22.0961 30.6473 21.391 30.2213C21.3287 30.1834 21.2535 30.1666 21.1784 30.1498L21.1784 30.1498C21.1431 30.1419 21.1078 30.1341 21.0738 30.124C21.0657 30.1594 21.055 30.195 21.0444 30.2305C21.0215 30.3069 20.9986 30.3833 21.0001 30.459C21.0266 31.9709 21.2528 33.4499 21.7475 34.8824C24.4313 42.6546 32.744 46.5733 40.4439 43.6976C45.9003 41.6603 49.7231 36.1022 49.6773 30.3037C49.6635 30.1242 49.6517 29.9445 49.64 29.7648L49.6399 29.7639C49.6152 29.3848 49.5904 29.0057 49.5463 28.6285L49.5448 28.6278ZM29.9791 30.4322V29.3282H31.6591V28.2242H29.9791V27.1202H31.6591V24.8002H36.2511C37.2431 24.8002 38.0911 24.9602 38.7951 25.2802C39.5097 25.6002 40.0591 26.0589 40.4431 26.6562C40.5381 26.8041 40.6214 26.9587 40.6929 27.1202H42.6991V28.2242H40.9873C41.0085 28.4047 41.0191 28.5914 41.0191 28.7842C41.0191 28.9714 41.0091 29.1527 40.9892 29.3282H42.6991V30.4322H40.6999C40.6268 30.5996 40.5412 30.7596 40.4431 30.9122C40.0591 31.5096 39.5097 31.9682 38.7951 32.2882C38.0911 32.6082 37.2431 32.7682 36.2511 32.7682H33.7391V36.0002H31.6591V30.4322H29.9791ZM33.7391 31.0082V30.4322H38.2191C37.7604 30.8162 37.0777 31.0082 36.1711 31.0082H33.7391ZM33.7391 29.3282H38.8702C38.9054 29.1585 38.9231 28.9772 38.9231 28.7842C38.9231 28.5847 38.9048 28.398 38.8682 28.2242H33.7391V29.3282ZM36.1711 26.5602C37.0651 26.5602 37.7413 26.7469 38.1997 27.1202H33.7391V26.5602H36.1711Z" fill="url(#paint2_radial_1138_41389)"/>
</g>
<defs>
<filter id="filter0_d_1138_41389" x="0.81543" y="1" width="66" height="66" filterUnits="userSpaceOnUse" color-interpolation-filters="sRGB">
<feFlood flood-opacity="0" result="BackgroundImageFix"/>
<feColorMatrix in="SourceAlpha" type="matrix" values="0 0 0 0 0 0 0 0 0 0 0 0 0 0 0 0 0 0 127 0" result="hardAlpha"/>
<feOffset dy="4"/>
<feGaussianBlur stdDeviation="2"/>
<feComposite in2="hardAlpha" operator="out"/>
<feColorMatrix type="matrix" values="0 0 0 0 0 0 0 0 0 0 0 0 0 0 0 0 0 0 0.15 0"/>
<feBlend mode="normal" in2="BackgroundImageFix" result="effect1_dropShadow_1138_41389"/>
<feBlend mode="normal" in="SourceGraphic" in2="effect1_dropShadow_1138_41389" result="shape"/>
</filter>
<filter id="filter1_d_1138_41389" x="13.5" y="13" width="43.1777" height="38.6406" filterUnits="userSpaceOnUse" color-interpolation-filters="sRGB">
<feFlood flood-opacity="0" result="BackgroundImageFix"/>
<feColorMatrix in="SourceAlpha" type="matrix" values="0 0 0 0 0 0 0 0 0 0 0 0 0 0 0 0 0 0 127 0" result="hardAlpha"/>
<feOffset dx="2" dy="2"/>
<feGaussianBlur stdDeviation="2.5"/>
<feComposite in2="hardAlpha" operator="out"/>
<feColorMatrix type="matrix" values="0 0 0 0 0.0161458 0 0 0 0 0.303848 0 0 0 0 0.645833 0 0 0 1 0"/>
<feBlend mode="normal" in2="BackgroundImageFix" result="effect1_dropShadow_1138_41389"/>
<feBlend mode="normal" in="SourceGraphic" in2="effect1_dropShadow_1138_41389" result="shape"/>
</filter>
<radialGradient id="paint0_radial_1138_41389" cx="0" cy="0" r="1" gradientUnits="userSpaceOnUse" gradientTransform="translate(13.8154 3.5) rotate(60.1909) scale(55.3195)">
<stop offset="0.0216227" stop-color="#8EC9FF"/>
<stop offset="1" stop-color="#2462DE"/>
</radialGradient>
<linearGradient id="paint1_linear_1138_41389" x1="14.272" y1="4.15217" x2="43.3154" y2="58" gradientUnits="userSpaceOnUse">
<stop stop-color="#E7F3FF"/>
<stop offset="1" stop-color="#266793" stop-opacity="0"/>
</linearGradient>
<radialGradient id="paint2_radial_1138_41389" cx="0" cy="0" r="1" gradientUnits="userSpaceOnUse" gradientTransform="translate(14.7062 16) rotate(50.9561) scale(39.5898 40.1687)">
<stop offset="0.223958" stop-color="white"/>
<stop offset="1" stop-color="#BED7FF"/>
</radialGradient>
</defs>
</svg>
