<svg width="67" height="67" viewBox="0 0 67 67" fill="none" xmlns="http://www.w3.org/2000/svg">
<g filter="url(#filter0_d_365_37199)">
<rect x="4.15527" y="1" width="58" height="58" rx="20" fill="url(#paint0_radial_365_37199)"/>
<rect x="4.65527" y="1.5" width="57" height="57" rx="19.5" stroke="url(#paint1_linear_365_37199)"/>
</g>
<g filter="url(#filter1_d_365_37199)">
<path d="M19.6168 40.4254C19.6168 41.6387 20.1355 42.8022 21.0587 43.6601C21.982 44.518 23.2342 45 24.5399 45H31.6168C31.6984 45 31.7767 44.9699 31.8344 44.9163C31.8921 44.8626 31.9245 44.7899 31.9245 44.7141V31.5622C31.9245 31.4864 31.8921 31.4137 31.8344 31.36C31.7767 31.3064 31.6984 31.2763 31.6168 31.2763H20.2322C20.069 31.2763 19.9125 31.3365 19.7971 31.4438C19.6816 31.551 19.6168 31.6965 19.6168 31.8481V40.4254ZM31.9245 28.7031V20.9835H34.386V28.7031C34.386 28.7789 34.4185 28.8517 34.4762 28.9053C34.5339 28.9589 34.6121 28.989 34.6937 28.989H45.463C45.8823 28.989 46.2985 28.9225 46.6937 28.7925C47.413 28.5552 48.0357 28.117 48.4764 27.5379C48.917 26.9588 49.1542 26.2673 49.1553 25.5581V24.4144C49.1553 23.5045 48.7663 22.6318 48.0738 21.9884C47.3814 21.345 46.4422 20.9835 45.463 20.9835H42.3445C42.3177 20.9831 42.2915 20.9762 42.2684 20.9635C42.2454 20.9508 42.2263 20.9327 42.2131 20.9111C42.1999 20.8894 42.193 20.8649 42.1931 20.84C42.1932 20.8151 42.2003 20.7907 42.2137 20.7691C42.9259 19.6518 43.1572 18.3257 42.8613 17.0566C42.5653 15.7875 41.764 14.6692 40.618 13.9261C39.472 13.1829 38.066 12.8698 36.682 13.0495C35.2979 13.2292 34.0382 13.8885 33.1553 14.8951C32.2724 13.8885 31.0126 13.2292 29.6286 13.0495C28.2445 12.8698 26.8386 13.1829 25.6925 13.9261C24.5465 14.6692 23.7452 15.7875 23.4493 17.0566C23.1533 18.3257 23.3846 19.6518 24.0968 20.7691C24.1102 20.7907 24.1173 20.8151 24.1174 20.84C24.1175 20.8649 24.1107 20.8894 24.0974 20.9111C24.0842 20.9327 24.0652 20.9508 24.0421 20.9635C24.0191 20.9762 23.9928 20.9831 23.966 20.9835H20.8476C19.8683 20.9835 18.9292 21.345 18.2367 21.9884C17.5443 22.6318 17.1553 23.5045 17.1553 24.4144V25.5581C17.1564 26.2673 17.3935 26.9588 17.8342 27.5379C18.2749 28.117 18.8976 28.5552 19.6168 28.7925C20.0121 28.9225 20.4283 28.989 20.8476 28.989H31.6168C31.6984 28.989 31.7767 28.9589 31.8344 28.9053C31.8921 28.8517 31.9245 28.7789 31.9245 28.7031ZM34.386 18.1244C34.386 17.5589 34.5665 17.0062 34.9046 16.536C35.2427 16.0658 35.7232 15.6993 36.2855 15.4829C36.8477 15.2665 37.4664 15.2099 38.0632 15.3202C38.6601 15.4306 39.2084 15.7029 39.6387 16.1027C40.069 16.5026 40.362 17.012 40.4808 17.5666C40.5995 18.1212 40.5386 18.6961 40.3057 19.2185C40.0728 19.741 39.6784 20.1875 39.1724 20.5017C38.6664 20.8158 38.0715 20.9835 37.463 20.9835H34.386V18.1244ZM28.6276 15.2725C29.0491 15.2444 29.4724 15.2973 29.8709 15.4279C30.2695 15.5585 30.6348 15.764 30.9441 16.0316C31.2535 16.2992 31.5002 16.6231 31.6688 16.9832C31.8375 17.3432 31.9245 17.7317 31.9245 18.1244V20.9835H28.8476C28.052 20.9816 27.2881 20.6934 26.7162 20.1794C26.1443 19.6654 25.809 18.9655 25.7805 18.2267C25.7521 17.4879 26.0327 16.7675 26.5635 16.2168C27.0944 15.6661 27.8341 15.3279 28.6276 15.2732V15.2725ZM34.6937 45H41.7707C43.0763 45 44.3285 44.518 45.2518 43.6601C46.1751 42.8022 46.6937 41.6387 46.6937 40.4254V31.8481C46.6937 31.6965 46.6289 31.551 46.5135 31.4438C46.3981 31.3365 46.2416 31.2763 46.0784 31.2763H34.6937C34.6121 31.2763 34.5339 31.3064 34.4762 31.36C34.4185 31.4137 34.386 31.4864 34.386 31.5622V44.7141C34.386 44.7899 34.4185 44.8626 34.4762 44.9163C34.5339 44.9699 34.6121 45 34.6937 45Z" fill="url(#paint2_radial_365_37199)"/>
</g>
<defs>
<filter id="filter0_d_365_37199" x="0.155273" y="1" width="66" height="66" filterUnits="userSpaceOnUse" color-interpolation-filters="sRGB">
<feFlood flood-opacity="0" result="BackgroundImageFix"/>
<feColorMatrix in="SourceAlpha" type="matrix" values="0 0 0 0 0 0 0 0 0 0 0 0 0 0 0 0 0 0 127 0" result="hardAlpha"/>
<feOffset dy="4"/>
<feGaussianBlur stdDeviation="2"/>
<feComposite in2="hardAlpha" operator="out"/>
<feColorMatrix type="matrix" values="0 0 0 0 0 0 0 0 0 0 0 0 0 0 0 0 0 0 0.15 0"/>
<feBlend mode="normal" in2="BackgroundImageFix" result="effect1_dropShadow_365_37199"/>
<feBlend mode="normal" in="SourceGraphic" in2="effect1_dropShadow_365_37199" result="shape"/>
</filter>
<filter id="filter1_d_365_37199" x="14.1553" y="10" width="42" height="42" filterUnits="userSpaceOnUse" color-interpolation-filters="sRGB">
<feFlood flood-opacity="0" result="BackgroundImageFix"/>
<feColorMatrix in="SourceAlpha" type="matrix" values="0 0 0 0 0 0 0 0 0 0 0 0 0 0 0 0 0 0 127 0" result="hardAlpha"/>
<feOffset dx="2" dy="2"/>
<feGaussianBlur stdDeviation="2.5"/>
<feComposite in2="hardAlpha" operator="out"/>
<feColorMatrix type="matrix" values="0 0 0 0 0.0161458 0 0 0 0 0.303848 0 0 0 0 0.645833 0 0 0 1 0"/>
<feBlend mode="normal" in2="BackgroundImageFix" result="effect1_dropShadow_365_37199"/>
<feBlend mode="normal" in="SourceGraphic" in2="effect1_dropShadow_365_37199" result="shape"/>
</filter>
<radialGradient id="paint0_radial_365_37199" cx="0" cy="0" r="1" gradientUnits="userSpaceOnUse" gradientTransform="translate(13.1553 3.5) rotate(60.1909) scale(55.3195)">
<stop offset="0.0216227" stop-color="#8EC9FF"/>
<stop offset="1" stop-color="#2462DE"/>
</radialGradient>
<linearGradient id="paint1_linear_365_37199" x1="13.6118" y1="4.15217" x2="42.6553" y2="58" gradientUnits="userSpaceOnUse">
<stop stop-color="#E7F3FF"/>
<stop offset="1" stop-color="#266793" stop-opacity="0"/>
</linearGradient>
<radialGradient id="paint2_radial_365_37199" cx="0" cy="0" r="1" gradientUnits="userSpaceOnUse" gradientTransform="translate(22.6553 13) rotate(56.7251) scale(38.2753 36.4116)">
<stop offset="0.223958" stop-color="white"/>
<stop offset="1" stop-color="#BED7FF"/>
</radialGradient>
</defs>
</svg>
