<svg width="67" height="67" viewBox="0 0 67 67" fill="none" xmlns="http://www.w3.org/2000/svg">
<g filter="url(#filter0_d_365_37201)">
<rect x="4.81543" y="1" width="58" height="58" rx="20" fill="url(#paint0_radial_365_37201)"/>
<rect x="5.31543" y="1.5" width="57" height="57" rx="19.5" stroke="url(#paint1_linear_365_37201)"/>
</g>
<g filter="url(#filter1_d_365_37201)">
<path fill-rule="evenodd" clip-rule="evenodd" d="M33.0466 17.6159H40.2313L40.2304 17.614C40.3975 17.1704 40.5652 16.7279 40.7326 16.286C41.0847 15.3565 41.4359 14.4295 41.7797 13.4998C42.0828 12.6824 41.5953 12.006 40.7152 12.0013C40.1742 11.9994 39.6328 12 39.0916 12.0006C38.821 12.0009 38.5505 12.0013 38.2801 12.0013C37.7323 12.0013 37.1844 12.0009 36.6365 12.0006C35.2667 11.9999 33.8966 11.9991 32.5271 12.0031C31.742 12.006 31.2121 12.6617 31.4634 13.3683C31.8241 14.3826 32.2054 15.3899 32.5875 16.3991C32.7408 16.8042 32.8943 17.2096 33.0466 17.6159ZM47.0494 30.5702C46.9591 26.1507 45.149 22.5955 41.6174 19.917C41.4809 19.8136 41.2804 19.745 41.1091 19.7441C38.1328 19.7337 35.1565 19.7337 32.1793 19.7441C32.0079 19.7441 31.8103 19.8145 31.671 19.9151C30.0426 21.0876 28.7606 22.5655 27.8089 24.3262C26.9524 25.9111 26.4431 27.6004 26.2812 29.4362C28.7511 29.2671 31.0375 29.797 33.1619 31.0588C33.1619 31.0588 34.6764 31.8875 37.8325 32.5686C38.0801 32.6128 38.306 32.6551 38.5168 32.6955C38.5331 32.6985 38.5494 32.7016 38.5658 32.7048C38.5854 32.7087 38.6051 32.7125 38.6251 32.7161C40.7514 33.1333 41.1053 33.4574 42.5831 35.422C42.593 35.4204 42.6036 35.4198 42.6145 35.4191H42.6145C42.6369 35.4178 42.6604 35.4164 42.6801 35.4069L43.2242 35.1545C44.4379 34.5917 45.6513 34.029 46.8584 33.4527C46.9563 33.4057 47.041 33.2225 47.0438 33.1013C47.0589 32.2576 47.0654 31.4139 47.0485 30.5702H47.0494ZM22.8184 32.5038C22.4918 32.6243 22.1641 32.7452 21.833 32.8595L21.8349 32.8605C21.8446 32.8942 21.852 32.9216 21.8583 32.945C21.8685 32.9829 21.8758 33.0104 21.8857 33.0371L22.0094 33.3759C23.461 37.3528 24.9129 41.3304 26.3746 45.3035C26.4142 45.4116 26.5714 45.5318 26.6871 45.5488C27.6316 45.6837 28.5774 45.8113 29.5232 45.9389C31.245 46.1711 32.9669 46.4034 34.6814 46.68C36.3653 46.9515 37.8817 46.6734 39.3538 45.8306C40.3204 45.277 41.3132 44.7697 42.3062 44.2623L42.3062 44.2623L42.3062 44.2622L42.3064 44.2622L42.3065 44.2621C42.7358 44.0427 43.1651 43.8233 43.5924 43.6002C44.1652 43.3011 44.7379 43.0018 45.3106 42.7025L45.3132 42.7011C46.9558 41.8426 48.5983 40.9843 50.2434 40.1305C51.1828 39.642 51.7485 38.895 51.8106 37.8343C51.9273 35.8256 49.896 34.437 48.0342 35.2619C47.0613 35.6924 46.097 36.1424 45.1325 36.5925L45.1325 36.5925L45.132 36.5928C44.501 36.8872 43.87 37.1817 43.2366 37.4707C43.0408 37.56 43.0022 37.683 42.9871 37.8756C42.7876 40.4622 40.4222 42.4493 37.8421 42.1871C37.3746 42.1395 36.9109 42.0555 36.4473 41.9714C36.2976 41.9442 36.148 41.9171 35.9982 41.8912C34.1119 41.5633 32.2246 41.2345 30.3393 40.9009C29.702 40.7882 29.3302 40.2649 29.4356 39.6523C29.5326 39.0829 30.0927 38.7137 30.7045 38.8199C31.089 38.8864 31.4732 38.9544 31.8574 39.0224L31.8579 39.0225L31.8584 39.0226C32.1681 39.0774 32.4777 39.1322 32.7875 39.1863C33.291 39.2738 33.7942 39.3638 34.2974 39.4538C35.5062 39.6699 36.7151 39.8861 37.9287 40.0685C39.3303 40.279 40.5841 39.3206 40.8523 37.917C41.1055 36.5923 40.2377 35.2459 38.8917 34.9237C38.2751 34.7761 37.6482 34.6672 37.0204 34.5788C35.2009 34.3224 33.4869 33.8526 31.915 32.8097C30.3393 31.765 28.5179 31.4418 26.6213 31.532C25.2805 31.5952 24.057 32.0467 22.8184 32.5038ZM17.9776 43.0123C18.4932 44.367 19.2671 45.6161 20.3095 46.6233L20.8296 47.1258C21.3878 47.6652 22.2074 47.8317 22.9325 47.5546C23.1463 47.4729 23.3602 47.3915 23.5743 47.3108C24.285 47.0431 24.5476 46.5104 24.2906 45.8057C22.7912 41.6953 21.2889 37.5867 19.7848 33.4782C19.5174 32.7472 18.9856 32.5114 18.2439 32.7782C17.8947 32.9037 17.5459 33.0301 17.1973 33.1564L16.7548 33.3166C16.0103 33.5862 15.8154 33.8596 15.8154 34.6441C15.8148 37.4791 16.5484 39.3518 17.4979 41.7754C17.6528 42.1709 17.8135 42.581 17.9776 43.0123Z" fill="url(#paint2_radial_365_37201)"/>
</g>
<defs>
<filter id="filter0_d_365_37201" x="0.81543" y="1" width="66" height="66" filterUnits="userSpaceOnUse" color-interpolation-filters="sRGB">
<feFlood flood-opacity="0" result="BackgroundImageFix"/>
<feColorMatrix in="SourceAlpha" type="matrix" values="0 0 0 0 0 0 0 0 0 0 0 0 0 0 0 0 0 0 127 0" result="hardAlpha"/>
<feOffset dy="4"/>
<feGaussianBlur stdDeviation="2"/>
<feComposite in2="hardAlpha" operator="out"/>
<feColorMatrix type="matrix" values="0 0 0 0 0 0 0 0 0 0 0 0 0 0 0 0 0 0 0.15 0"/>
<feBlend mode="normal" in2="BackgroundImageFix" result="effect1_dropShadow_365_37201"/>
<feBlend mode="normal" in="SourceGraphic" in2="effect1_dropShadow_365_37201" result="shape"/>
</filter>
<filter id="filter1_d_365_37201" x="12.8154" y="9" width="46" height="45.6875" filterUnits="userSpaceOnUse" color-interpolation-filters="sRGB">
<feFlood flood-opacity="0" result="BackgroundImageFix"/>
<feColorMatrix in="SourceAlpha" type="matrix" values="0 0 0 0 0 0 0 0 0 0 0 0 0 0 0 0 0 0 127 0" result="hardAlpha"/>
<feOffset dx="2" dy="2"/>
<feGaussianBlur stdDeviation="2.5"/>
<feComposite in2="hardAlpha" operator="out"/>
<feColorMatrix type="matrix" values="0 0 0 0 0.0161458 0 0 0 0 0.303848 0 0 0 0 0.645833 0 0 0 1 0"/>
<feBlend mode="normal" in2="BackgroundImageFix" result="effect1_dropShadow_365_37201"/>
<feBlend mode="normal" in="SourceGraphic" in2="effect1_dropShadow_365_37201" result="shape"/>
</filter>
<radialGradient id="paint0_radial_365_37201" cx="0" cy="0" r="1" gradientUnits="userSpaceOnUse" gradientTransform="translate(13.8154 3.5) rotate(60.1909) scale(55.3195)">
<stop offset="0.0216227" stop-color="#8EC9FF"/>
<stop offset="1" stop-color="#2462DE"/>
</radialGradient>
<linearGradient id="paint1_linear_365_37201" x1="14.272" y1="4.15217" x2="43.3154" y2="58" gradientUnits="userSpaceOnUse">
<stop stop-color="#E7F3FF"/>
<stop offset="1" stop-color="#266793" stop-opacity="0"/>
</linearGradient>
<radialGradient id="paint2_radial_365_37201" cx="0" cy="0" r="1" gradientUnits="userSpaceOnUse" gradientTransform="translate(22.0029 12) rotate(56.495) scale(42.7981 40.8547)">
<stop offset="0.223958" stop-color="white"/>
<stop offset="1" stop-color="#BED7FF"/>
</radialGradient>
</defs>
</svg>
