<svg width="67" height="67" viewBox="0 0 67 67" fill="none" xmlns="http://www.w3.org/2000/svg">
<g filter="url(#filter0_d_1138_41390)">
<rect x="4.81543" y="1" width="58" height="58" rx="20" fill="url(#paint0_radial_1138_41390)"/>
<rect x="5.31543" y="1.5" width="57" height="57" rx="19.5" stroke="url(#paint1_linear_1138_41390)"/>
</g>
<g filter="url(#filter1_d_1138_41390)">
<path d="M37.9152 15C38.3029 15 38.6748 15.158 38.949 15.4393C39.2232 15.7206 39.3772 16.1022 39.3772 16.5V19.5H45.2251C45.6129 19.5 45.9848 19.658 46.2589 19.9393C46.5331 20.2206 46.6871 20.6022 46.6871 21V39H48.5V42H18.5V39H20.3713V21C20.3713 20.6022 20.5254 20.2206 20.7996 19.9393C21.0737 19.658 21.4456 19.5 21.8333 19.5H27.6813V16.5C27.6813 16.1022 27.8353 15.7206 28.1095 15.4393C28.3837 15.158 28.7555 15 29.1433 15H37.9152ZM30.6053 22.5H27.6813V39H30.6053V22.5ZM39.3772 22.5H36.4532V39H39.3772V22.5ZM36.4532 18H30.6053V19.5H36.4532V18Z" fill="url(#paint2_radial_1138_41390)"/>
</g>
<defs>
<filter id="filter0_d_1138_41390" x="0.81543" y="1" width="66" height="66" filterUnits="userSpaceOnUse" color-interpolation-filters="sRGB">
<feFlood flood-opacity="0" result="BackgroundImageFix"/>
<feColorMatrix in="SourceAlpha" type="matrix" values="0 0 0 0 0 0 0 0 0 0 0 0 0 0 0 0 0 0 127 0" result="hardAlpha"/>
<feOffset dy="4"/>
<feGaussianBlur stdDeviation="2"/>
<feComposite in2="hardAlpha" operator="out"/>
<feColorMatrix type="matrix" values="0 0 0 0 0 0 0 0 0 0 0 0 0 0 0 0 0 0 0.15 0"/>
<feBlend mode="normal" in2="BackgroundImageFix" result="effect1_dropShadow_1138_41390"/>
<feBlend mode="normal" in="SourceGraphic" in2="effect1_dropShadow_1138_41390" result="shape"/>
</filter>
<filter id="filter1_d_1138_41390" x="15.5" y="12" width="40" height="37" filterUnits="userSpaceOnUse" color-interpolation-filters="sRGB">
<feFlood flood-opacity="0" result="BackgroundImageFix"/>
<feColorMatrix in="SourceAlpha" type="matrix" values="0 0 0 0 0 0 0 0 0 0 0 0 0 0 0 0 0 0 127 0" result="hardAlpha"/>
<feOffset dx="2" dy="2"/>
<feGaussianBlur stdDeviation="2.5"/>
<feComposite in2="hardAlpha" operator="out"/>
<feColorMatrix type="matrix" values="0 0 0 0 0.0161458 0 0 0 0 0.303848 0 0 0 0 0.645833 0 0 0 1 0"/>
<feBlend mode="normal" in2="BackgroundImageFix" result="effect1_dropShadow_1138_41390"/>
<feBlend mode="normal" in="SourceGraphic" in2="effect1_dropShadow_1138_41390" result="shape"/>
</filter>
<radialGradient id="paint0_radial_1138_41390" cx="0" cy="0" r="1" gradientUnits="userSpaceOnUse" gradientTransform="translate(13.8154 3.5) rotate(60.1909) scale(55.3195)">
<stop offset="0.0216227" stop-color="#8EC9FF"/>
<stop offset="1" stop-color="#2462DE"/>
</radialGradient>
<linearGradient id="paint1_linear_1138_41390" x1="14.272" y1="4.15217" x2="43.3154" y2="58" gradientUnits="userSpaceOnUse">
<stop stop-color="#E7F3FF"/>
<stop offset="1" stop-color="#266793" stop-opacity="0"/>
</linearGradient>
<radialGradient id="paint2_radial_1138_41390" cx="0" cy="0" r="1" gradientUnits="userSpaceOnUse" gradientTransform="translate(16.8693 15) rotate(51.9153) scale(36.7534 37.0066)">
<stop offset="0.223958" stop-color="white"/>
<stop offset="1" stop-color="#BED7FF"/>
</radialGradient>
</defs>
</svg>
