<svg width="67" height="67" viewBox="0 0 67 67" fill="none" xmlns="http://www.w3.org/2000/svg">
<g filter="url(#filter0_d_365_37197)">
<rect x="4.49512" y="1" width="58" height="58" rx="20" fill="url(#paint0_radial_365_37197)"/>
<rect x="4.99512" y="1.5" width="57" height="57" rx="19.5" stroke="url(#paint1_linear_365_37197)"/>
</g>
<g filter="url(#filter1_d_365_37197)">
<path fill-rule="evenodd" clip-rule="evenodd" d="M23.4951 15C20.1814 15 17.4951 17.6863 17.4951 21L48.4951 21C48.4951 17.6863 45.8088 15 42.4951 15H23.4951ZM48.4951 23H17.4951V37C17.4951 40.3137 20.1814 43 23.4951 43H37.8378C35.7988 41.35 34.4951 38.8273 34.4951 36C34.4951 31.0294 38.5246 27 43.4951 27C45.3453 27 47.065 27.5583 48.4951 28.5155V23ZM51.4951 36C51.4951 39.866 48.1373 43 43.9951 43C39.853 43 36.4951 39.866 36.4951 36C36.4951 32.134 39.853 29 43.9951 29C48.1373 29 51.4951 32.134 51.4951 36ZM42.4951 39.7508C42.4951 39.5867 42.5339 39.4243 42.6093 39.2727C42.6847 39.1212 42.7952 38.9834 42.9345 38.8674C43.0737 38.7514 43.2391 38.6594 43.4211 38.5967C43.6031 38.5339 43.7981 38.5016 43.9951 38.5016C44.1921 38.5016 44.3872 38.5339 44.5691 38.5967C44.7511 38.6594 44.9165 38.7514 45.0558 38.8674C45.1951 38.9834 45.3056 39.1212 45.3809 39.2727C45.4563 39.4243 45.4951 39.5867 45.4951 39.7508C45.4951 40.0821 45.3371 40.3998 45.0558 40.6341C44.7745 40.8684 44.3929 41 43.9951 41C43.5973 41 43.2158 40.8684 42.9345 40.6341C42.6532 40.3998 42.4951 40.0821 42.4951 39.7508ZM42.6421 32.2492C42.6221 32.0916 42.6422 31.9323 42.7009 31.7815C42.7597 31.6308 42.8558 31.492 42.9831 31.3743C43.1104 31.2565 43.266 31.1623 43.4398 31.0978C43.6137 31.0333 43.8018 31 43.9921 31C44.1824 31 44.3706 31.0333 44.5444 31.0978C44.7182 31.1623 44.8738 31.2565 45.0011 31.3743C45.1284 31.492 45.2246 31.6308 45.2833 31.7815C45.3421 31.9323 45.3621 32.0916 45.3421 32.2492L44.8171 36.6302C44.7958 36.8001 44.6997 36.9573 44.5473 37.0716C44.395 37.1859 44.1972 37.2492 43.9921 37.2492C43.7871 37.2492 43.5893 37.1859 43.4369 37.0716C43.2846 36.9573 43.1884 36.8001 43.1671 36.6302L42.6421 32.2492Z" fill="url(#paint2_radial_365_37197)"/>
</g>
<defs>
<filter id="filter0_d_365_37197" x="0.495117" y="1" width="66" height="66" filterUnits="userSpaceOnUse" color-interpolation-filters="sRGB">
<feFlood flood-opacity="0" result="BackgroundImageFix"/>
<feColorMatrix in="SourceAlpha" type="matrix" values="0 0 0 0 0 0 0 0 0 0 0 0 0 0 0 0 0 0 127 0" result="hardAlpha"/>
<feOffset dy="4"/>
<feGaussianBlur stdDeviation="2"/>
<feComposite in2="hardAlpha" operator="out"/>
<feColorMatrix type="matrix" values="0 0 0 0 0 0 0 0 0 0 0 0 0 0 0 0 0 0 0.15 0"/>
<feBlend mode="normal" in2="BackgroundImageFix" result="effect1_dropShadow_365_37197"/>
<feBlend mode="normal" in="SourceGraphic" in2="effect1_dropShadow_365_37197" result="shape"/>
</filter>
<filter id="filter1_d_365_37197" x="14.4951" y="12" width="44" height="38" filterUnits="userSpaceOnUse" color-interpolation-filters="sRGB">
<feFlood flood-opacity="0" result="BackgroundImageFix"/>
<feColorMatrix in="SourceAlpha" type="matrix" values="0 0 0 0 0 0 0 0 0 0 0 0 0 0 0 0 0 0 127 0" result="hardAlpha"/>
<feOffset dx="2" dy="2"/>
<feGaussianBlur stdDeviation="2.5"/>
<feComposite in2="hardAlpha" operator="out"/>
<feColorMatrix type="matrix" values="0 0 0 0 0.0161458 0 0 0 0 0.303848 0 0 0 0 0.645833 0 0 0 1 0"/>
<feBlend mode="normal" in2="BackgroundImageFix" result="effect1_dropShadow_365_37197"/>
<feBlend mode="normal" in="SourceGraphic" in2="effect1_dropShadow_365_37197" result="shape"/>
</filter>
<radialGradient id="paint0_radial_365_37197" cx="0" cy="0" r="1" gradientUnits="userSpaceOnUse" gradientTransform="translate(13.4951 3.5) rotate(60.1909) scale(55.3195)">
<stop offset="0.0216227" stop-color="#8EC9FF"/>
<stop offset="1" stop-color="#2462DE"/>
</radialGradient>
<linearGradient id="paint1_linear_365_37197" x1="13.9516" y1="4.15217" x2="42.9951" y2="58" gradientUnits="userSpaceOnUse">
<stop stop-color="#E7F3FF"/>
<stop offset="1" stop-color="#266793" stop-opacity="0"/>
</linearGradient>
<radialGradient id="paint2_radial_365_37197" cx="0" cy="0" r="1" gradientUnits="userSpaceOnUse" gradientTransform="translate(16.7013 15) rotate(50.2649) scale(39.0113 39.7716)">
<stop offset="0.223958" stop-color="white"/>
<stop offset="1" stop-color="#BED7FF"/>
</radialGradient>
</defs>
</svg>
