<svg width="20" height="20" viewBox="0 0 20 20" fill="none" xmlns="http://www.w3.org/2000/svg">
<path fill-rule="evenodd" clip-rule="evenodd" d="M12.917 10.959H11.1087C9.62533 10.959 8.41699 9.75898 8.41699 8.26732V6.45898C8.41699 6.11732 8.14199 5.83398 7.79199 5.83398H5.15033C3.22533 5.83398 1.66699 7.08398 1.66699 9.31732V14.8507C1.66699 17.084 3.22533 18.334 5.15033 18.334H10.0587C11.9837 18.334 13.542 17.084 13.542 14.8507V11.584C13.542 11.234 13.2587 10.959 12.917 10.959ZM4.16699 12.9173C4.16699 12.6872 4.35354 12.5007 4.58366 12.5007H7.91699C8.14711 12.5007 8.33366 12.6872 8.33366 12.9173C8.33366 13.1474 8.14711 13.334 7.91699 13.334H4.58366C4.35354 13.334 4.16699 13.1474 4.16699 12.9173ZM4.58366 15.0007C4.35354 15.0007 4.16699 15.1872 4.16699 15.4173C4.16699 15.6474 4.35354 15.834 4.58366 15.834H10.417C10.6471 15.834 10.8337 15.6474 10.8337 15.4173C10.8337 15.1872 10.6471 15.0007 10.417 15.0007H4.58366Z" fill="white"/>
<path d="M14.8501 1.66602H13.2085H12.3001H9.9418C8.05846 1.66602 6.53346 2.86602 6.4668 5.00768C6.5168 5.00768 6.55846 4.99935 6.60846 4.99935H8.9668H9.87513H11.5168C13.4418 4.99935 15.0001 6.24935 15.0001 8.48268V10.1243V12.3827V14.0243C15.0001 14.0743 14.9918 14.116 14.9918 14.1577C16.8501 14.0993 18.3335 12.866 18.3335 10.691V9.04935V6.79102V5.14935C18.3335 2.91602 16.7751 1.66602 14.8501 1.66602Z" fill="white"/>
<path d="M9.98418 5.9591C9.72585 5.70077 9.28418 5.87577 9.28418 6.2341V8.41744C9.28418 9.3341 10.0592 10.0841 11.0092 10.0841C11.6008 10.0924 12.4258 10.0924 13.1342 10.0924C13.4925 10.0924 13.6758 9.67577 13.4258 9.42577C12.5175 8.51744 10.9008 6.89244 9.98418 5.9591Z" fill="white"/>
</svg>
