<svg width="81" height="20" viewBox="0 0 81 20" fill="none" xmlns="http://www.w3.org/2000/svg">
<g clip-path="url(#clip0_80_55205)">
<path d="M10.4423 20.0002C7.1627 19.9849 4.68938 18.8794 2.68591 16.7572C1.51803 15.5204 0.67547 14.1123 0.301824 12.4738C-0.255858 10.0208 -0.069964 7.63229 1.1495 5.37873C2.14914 3.53268 3.59819 2.07304 5.52219 1.12088C8.45931 -0.330236 11.4564 -0.356237 14.4604 0.949182C15.7919 1.52792 16.9152 2.38371 17.853 3.4596C18.2606 3.92583 18.2187 4.59064 17.7819 4.97617C17.3134 5.38949 16.6159 5.38366 16.1795 4.92506C15.5205 4.2338 14.8034 3.62054 13.9432 3.16463C11.3286 1.77538 7.84261 1.8879 5.35814 3.85544C3.71902 5.14966 2.65013 6.77381 2.37361 8.81712C2.03064 11.3567 2.6966 13.6066 4.5732 15.4747C5.56308 16.4609 6.7212 17.1813 8.10518 17.5269C9.91765 17.9797 11.6892 17.8542 13.4032 17.1127C14.4438 16.6607 15.3673 15.9911 16.1065 15.1523C16.5443 14.6628 17.2349 14.6086 17.7419 15.0179C18.2141 15.4003 18.2722 16.0749 17.8516 16.5609C17.0345 17.5012 16.0367 18.2804 14.9131 18.8557C13.4259 19.6281 11.8337 19.9984 10.4423 20.0002Z" fill="#B3BAD1"/>
<path d="M37.8185 12.027H35.9694C35.2337 12.027 34.6412 11.5191 34.6026 10.8574C34.5561 10.0953 35.0585 9.48657 35.8425 9.46371C37.0722 9.42829 38.3056 9.43367 39.5348 9.4664C40.2691 9.48657 40.7942 10.0572 40.7789 10.7754C40.7324 12.8375 39.8736 14.5101 38.1044 15.6801C35.7449 17.2406 32.7901 17.0891 30.6007 15.3049C29.3218 14.2631 28.627 12.8972 28.4746 11.2869C28.3524 9.99448 28.6089 8.76976 29.319 7.66382C30.5868 5.68866 32.4072 4.64594 34.8535 4.71408C36.2477 4.75308 37.4853 5.18568 38.5449 6.07464C39.0789 6.52293 39.0966 7.28502 38.5514 7.71493C38.3093 7.9059 38.0458 8.09194 37.7614 8.20536C37.4114 8.34433 37.0671 8.24077 36.7645 8.01304C35.4535 7.0268 33.6633 7.04518 32.4225 8.05473C30.4892 9.62733 30.7639 12.5981 32.97 13.7839C34.7778 14.7549 37.009 13.9462 37.8102 12.1252C37.8163 12.0928 37.8191 12.0599 37.8185 12.027Z" fill="#B3BAD1"/>
<path d="M13.5237 11.4674C12.9033 11.4674 12.3238 11.4674 11.7438 11.4674C11.2516 11.4674 10.8278 11.3235 10.5387 10.9196C10.2362 10.4968 10.1995 10.0378 10.4416 9.58412C10.6837 9.13045 11.0834 8.88972 11.6216 8.88882C12.8373 8.88882 14.053 8.88882 15.2688 8.88882C15.5861 8.88879 15.8908 9.00918 16.1168 9.224C16.3429 9.43882 16.4723 9.73081 16.4771 10.0369C16.5078 11.8188 15.8729 13.3435 14.5178 14.5583C12.7564 16.1372 10.6958 16.573 8.41163 15.9104C6.0847 15.2353 4.30338 12.9938 4.16535 10.6273C4.02593 8.24283 5.00884 6.36854 7.04345 5.04205C8.55523 4.05581 10.2413 3.9258 11.9859 4.33554C12.6853 4.49962 13.3127 4.81656 13.8913 5.2254C14.5392 5.6831 14.7041 6.48061 14.2687 7.05307C13.7937 7.67799 12.9758 7.79141 12.3005 7.32608C10.9863 6.42009 9.17008 6.52588 8.00545 7.57623C6.11398 9.27838 6.57035 12.286 8.87637 13.3197C10.5866 14.0867 12.6765 13.3341 13.4512 11.6705C13.474 11.618 13.4889 11.5611 13.5237 11.4674Z" fill="#B3BAD1"/>
<path d="M63.0044 12.1391C63.0044 13.409 63.0044 14.6791 63.0044 15.9496C63.0044 16.2221 62.9286 16.4539 62.6609 16.5848C62.579 16.6248 62.4888 16.6465 62.397 16.648C61.8007 16.652 61.2044 16.6458 60.6087 16.648C60.4692 16.648 60.3517 16.648 60.3098 16.4736C60.301 16.4364 60.1407 16.3911 60.0775 16.4153C58.8603 16.8726 57.6367 16.8807 56.4372 16.3996C54.8715 15.772 53.9123 14.6065 53.5912 13.0227C53.2171 11.1784 53.811 9.59954 55.3307 8.4174C56.6784 7.36795 58.2204 7.18325 59.8549 7.72837C59.9195 7.75277 59.9817 7.78278 60.0408 7.81803C60.1755 7.892 60.2838 7.88438 60.3196 7.71941C60.3531 7.56654 60.4525 7.54413 60.5924 7.54547C61.1501 7.54996 61.7078 7.54547 62.2654 7.54547C62.7158 7.54547 62.9993 7.81445 63.0011 8.26274C63.0076 9.55471 63.0039 10.8471 63.0044 12.1391ZM60.3228 12.2072C60.4214 11.1224 59.5328 10.1074 58.4063 10.0173C57.3016 9.92768 56.282 10.7682 56.1756 11.8553C56.0584 13.0514 56.8964 14.0726 58.1 14.1667C59.3246 14.2609 60.3015 13.2778 60.3228 12.2072Z" fill="#B3BAD1"/>
<path d="M47.9699 4.69922C49.5746 4.70684 50.861 5.16634 51.9913 6.03961C52.1252 6.14447 52.2345 6.2756 52.3119 6.4243C52.3893 6.573 52.4331 6.73588 52.4403 6.90213C52.4475 7.06838 52.418 7.23421 52.3537 7.38862C52.2894 7.54304 52.1919 7.68251 52.0675 7.7978C51.771 8.07215 51.4466 8.28419 51.0042 8.26671C50.7328 8.25269 50.4728 8.15707 50.2606 7.99325C48.4769 6.70173 46.0552 7.24909 45.0458 9.17315C44.0415 11.0869 45.0393 13.4539 47.1371 14.0595C48.2353 14.3782 49.2791 14.2213 50.2164 13.5476C50.6979 13.2015 51.2138 13.1508 51.7347 13.4422C52.5448 13.895 52.6094 14.9803 51.8658 15.5416C50.8877 16.2894 49.6891 16.7191 48.4421 16.769C46.7226 16.8488 45.2159 16.3288 43.9607 15.1766C40.6875 12.1731 41.597 6.96936 45.7108 5.16678C46.4225 4.86262 47.1916 4.70344 47.9699 4.69922Z" fill="#B3BAD1"/>
<path d="M74.8163 7.78357C75.3024 7.68225 75.755 7.54597 76.2174 7.4998C77.6228 7.35859 78.8014 7.82571 79.7462 8.83122C80.5915 9.73139 81.0154 10.7885 81.001 12.0114C80.9875 13.1321 80.9986 14.2528 80.9982 15.3736C80.9982 16.1002 80.4433 16.6463 79.7076 16.6463C78.964 16.6463 78.3961 16.0935 78.3957 15.3632C78.3957 14.2578 78.3915 13.1518 78.3957 12.0459C78.4083 11.4877 78.2022 10.9455 77.8185 10.5275C77.1478 9.78697 75.9818 9.82463 75.347 10.5939C75.0027 11.0026 74.8199 11.5158 74.8311 12.0423C74.8376 13.1702 74.8139 14.299 74.8395 15.4265C74.8567 16.1782 74.2665 16.6915 73.5708 16.6557C73.1604 16.6346 72.7849 16.5974 72.4977 16.284C72.3054 16.0751 72.2017 15.804 72.2072 15.5246C72.2072 12.3794 72.2072 9.23408 72.2072 6.08858C72.2018 5.77874 72.3151 5.47785 72.5254 5.24355C72.7356 5.00924 73.0281 4.85799 73.3468 4.81873C73.6654 4.77948 73.9879 4.855 74.2524 5.03083C74.517 5.20665 74.705 5.47043 74.7805 5.77164C74.8051 5.8807 74.8159 5.99225 74.8126 6.10382C74.8181 6.67091 74.8163 7.23755 74.8163 7.78357Z" fill="#B3BAD1"/>
<path d="M26.6148 10.5667C26.6097 12.5531 26.1626 14.4032 25.1509 16.1031C24.8028 16.6859 24.3831 17.2395 23.9453 17.7671C23.376 18.4535 22.2807 18.3145 21.7899 17.5291C21.5961 17.217 21.5066 16.8548 21.5338 16.4919C21.561 16.129 21.7035 15.783 21.9419 15.501C23.7288 13.3452 24.1456 10.924 23.396 8.29523C23.1032 7.2682 22.5595 6.3622 21.8313 5.56066C21.2308 4.89988 21.2652 3.86971 21.8889 3.22955C22.3666 2.73643 23.2566 2.71895 23.7478 3.21745C24.4988 3.97954 25.0774 4.86043 25.538 5.8126C26.2709 7.32558 26.6064 8.92776 26.6148 10.5667Z" fill="#B3BAD1"/>
<path d="M69.2267 10.4147C68.9479 10.4147 68.6691 10.4066 68.3902 10.4174C68.2197 10.4246 68.1309 10.3968 68.0979 10.2036C68.0514 9.92384 67.754 9.7499 67.4747 9.79025C67.1954 9.8306 66.9923 10.0758 66.9932 10.36C66.9932 10.5272 67.0862 10.5972 67.233 10.6424C67.7559 10.8016 68.2843 10.9473 68.7973 11.132C69.4703 11.3741 70.0493 11.7457 70.4206 12.3661C71.0908 13.4842 70.8389 15.011 69.8411 15.8664C68.5863 16.9423 66.9728 17.0494 65.5962 16.1353C65.0259 15.7639 64.6113 15.2088 64.4265 14.5695C64.2978 14.1413 64.5724 13.78 65.0339 13.7769C65.6144 13.7724 66.1957 13.7796 66.7762 13.7729C66.9156 13.7729 66.9793 13.8033 67.0034 13.9495C67.024 14.0877 67.1003 14.2124 67.2159 14.2964C67.3315 14.3804 67.4768 14.4168 67.6202 14.3978C67.9036 14.3655 68.1118 14.1234 68.1197 13.8419C68.1253 13.6545 68.017 13.5729 67.8567 13.5241C67.4384 13.3985 67.0118 13.2842 66.5949 13.1475C65.9829 12.9467 65.3996 12.6898 64.9642 12.2061C64.1565 11.3055 64.0923 9.82163 64.8122 8.82912C66.1488 6.98664 68.9832 6.98754 70.2961 8.84212C70.4759 9.0954 70.5963 9.3971 70.6944 9.69387C70.8175 10.0637 70.5336 10.4066 70.1311 10.4138C69.8304 10.4188 69.5284 10.4143 69.2267 10.4147Z" fill="#B3BAD1"/>
<path d="M22.1739 10.5661C22.1686 12.1414 21.6676 13.5523 20.6709 14.7988C20.3205 15.2381 19.8604 15.4417 19.2879 15.3283C18.6837 15.2081 18.3551 14.7903 18.1967 14.2524C18.0233 13.6624 18.1576 13.1191 18.5564 12.6385C19.0534 12.045 19.3203 11.3028 19.3109 10.5399C19.3014 9.77691 19.0164 9.04104 18.5048 8.45911C17.9234 7.78982 17.909 6.86813 18.4685 6.19525C18.9751 5.58692 19.932 5.55151 20.4622 6.14414C21.4675 7.26756 22.0284 8.57522 22.1497 10.0564C22.1567 10.146 22.1687 10.2357 22.1729 10.3253C22.1771 10.402 22.1739 10.4845 22.1739 10.5661Z" fill="#B3BAD1"/>
</g>
<defs>
<clipPath id="clip0_80_55205">
<rect width="81" height="20" fill="white"/>
</clipPath>
</defs>
</svg>
