<svg width="81" height="20" viewBox="0 0 81 20" fill="none" xmlns="http://www.w3.org/2000/svg">
<g clip-path="url(#clip0_80_55206)">
<path d="M71.9744 16.7635C72.4252 16.9874 72.8257 17.2119 73.247 17.3904C74.3868 17.8746 75.5709 18.0561 76.7968 17.7814C78.0829 17.4915 78.7282 16.5995 78.8414 15.3855C78.8813 14.9522 78.8487 14.5128 78.8469 14.0759C78.8385 14.0053 78.8256 13.9354 78.8081 13.8665C78.7449 13.9304 78.6867 13.999 78.6341 14.0716C78.0257 15.1156 77.0772 15.5979 75.8883 15.6651C75.1218 15.7086 74.3683 15.6173 73.653 15.3316C72.2309 14.7646 71.4964 13.6656 71.2424 12.2258C71.1735 11.8016 71.1408 11.3725 71.1446 10.9429C71.1348 8.91792 71.1446 6.89238 71.1348 4.86745C71.1348 4.63446 71.1963 4.57152 71.4312 4.57878C71.9848 4.59512 72.5384 4.59754 73.092 4.57878C73.3381 4.5697 73.3817 4.65443 73.3811 4.87471C73.3731 6.83187 73.3657 8.78902 73.3848 10.745C73.3899 11.1747 73.452 11.6019 73.5693 12.0158C73.8 12.8286 74.3757 13.3055 75.2172 13.4822C75.7586 13.6011 76.3208 13.5939 76.8589 13.461C78.0147 13.1723 78.5689 12.3348 78.7042 11.2352C78.7426 10.8598 78.7582 10.4825 78.7509 10.1053C78.755 8.35228 78.755 6.59907 78.7509 4.84566C78.7509 4.63506 78.8124 4.57575 79.024 4.58059C79.5776 4.59391 80.1312 4.58483 80.6848 4.58544C81.0016 4.58544 81.0022 4.58544 81.0022 4.89226C81.0022 8.00531 81.0022 11.1186 81.0022 14.232C81.0022 14.6702 81.0163 15.1101 80.9844 15.5465C80.8946 16.7617 80.5323 17.8704 79.6047 18.737C78.9435 19.3549 78.1432 19.7053 77.2575 19.8614C75.4663 20.1779 73.7594 19.9734 72.1792 19.0269C72.1115 18.9941 72.0557 18.9417 72.0192 18.8768C71.9827 18.8119 71.9673 18.7375 71.975 18.6637C71.9867 18.1124 71.9793 17.5605 71.9793 17.0092L71.9744 16.7635Z" fill="#B3BAD1"/>
<path d="M47.1553 8.32199C47.1553 6.06224 47.1553 3.8025 47.151 1.54397C47.151 1.34244 47.1959 1.27224 47.4167 1.27345C49.0234 1.28314 50.63 1.26316 52.2367 1.28435C53.2208 1.29766 54.1718 1.49071 55.0489 1.9561C56.006 2.46445 56.6635 3.22697 56.9945 4.24247C57.3635 5.3796 57.385 6.53247 57.016 7.67021C56.479 9.32659 55.2808 10.304 53.5979 10.7143C53.0824 10.8395 52.5387 10.8795 52.006 10.9025C51.2845 10.9333 50.5605 10.9097 49.8378 10.9097C49.4441 10.9097 49.4435 10.9097 49.4435 11.3092C49.4435 12.58 49.4386 13.8509 49.4484 15.1182C49.4484 15.3348 49.3912 15.405 49.1648 15.399C48.5891 15.3838 48.0115 15.3844 47.4358 15.399C47.2181 15.4038 47.1498 15.3469 47.1504 15.1248C47.1584 12.8566 47.1553 10.5896 47.1553 8.32199ZM49.4435 6.09069V8.51686C49.4435 8.84607 49.4435 8.84668 49.7695 8.84728C50.523 8.84728 51.2765 8.85152 52.0294 8.84426C52.2519 8.84504 52.4739 8.82478 52.6924 8.78374C53.9928 8.51746 54.7112 7.79669 54.9154 6.46106C55.1664 4.81618 54.1681 3.50778 52.4113 3.38795C51.5164 3.32743 50.6146 3.36375 49.7166 3.34499C49.5013 3.34075 49.4386 3.42063 49.4404 3.62276C49.4484 4.44339 49.4435 5.26704 49.4435 6.09069Z" fill="#B3BAD1"/>
<path d="M67.0449 13.5317C67.0086 13.5923 66.9699 13.6528 66.9361 13.7133C66.2551 14.9739 65.1707 15.6093 63.7375 15.6668C62.4126 15.7201 61.1966 15.3878 60.1478 14.5636C59.1175 13.7532 58.5301 12.6742 58.2927 11.4166C58.0325 10.0429 58.0842 8.67638 58.6574 7.37464C59.4177 5.64866 60.7617 4.63015 62.647 4.31C63.7256 4.12049 64.8356 4.20379 65.8726 4.55208C67.6754 5.15726 68.7635 6.41422 69.1621 8.22855C69.2802 8.78153 69.342 9.34471 69.3466 9.90974C69.3694 11.6478 69.3503 13.3859 69.3596 15.1246C69.3596 15.3473 69.2919 15.4036 69.0748 15.3981C68.5212 15.3836 67.9676 15.3836 67.414 15.3981C67.2042 15.403 67.152 15.3315 67.1569 15.1385C67.1686 14.6925 67.1624 14.2465 67.1569 13.8004C67.1515 13.7149 67.1406 13.6298 67.1243 13.5457L67.0449 13.5317ZM67.1009 9.92547C67.08 9.70035 67.0628 9.47522 67.0394 9.2507C66.8739 7.75469 65.8929 6.58185 64.2567 6.35249C62.8604 6.15641 61.4887 6.8094 60.8546 8.04699C60.3914 8.9475 60.3348 9.89521 60.528 10.8677C60.651 11.4856 60.897 12.0533 61.3233 12.5277C62.1291 13.4216 63.1581 13.7012 64.3262 13.51C65.4943 13.3187 66.3314 12.6766 66.7866 11.5891C66.9996 11.0595 67.1066 10.4944 67.1015 9.92487L67.1009 9.92547Z" fill="#B3BAD1"/>
<path d="M12.1059 3.32018C11.8722 3.19006 11.6754 3.07205 11.4755 2.97038C10.3904 2.42572 9.2328 2.19091 8.01921 2.14249C6.76933 2.09226 5.58834 2.31618 4.49715 2.91228C2.66354 3.91265 1.55882 5.44981 1.29187 7.48745C1.00708 9.64249 1.62648 11.5422 3.27249 13.0491C4.25665 13.9526 5.45055 14.4343 6.79209 14.5668C7.97738 14.6843 9.1227 14.5547 10.1991 14.0313C11.5019 13.3982 12.2406 12.3368 12.558 10.9648C12.7303 10.2198 12.6884 9.46457 12.6977 8.71052C12.6977 8.51141 12.5697 8.54409 12.4516 8.54409H7.95155C7.65261 8.54409 7.652 8.54409 7.65138 8.24513C7.65138 8.04845 7.65999 7.85177 7.65138 7.65569C7.64215 7.48503 7.71289 7.43661 7.8802 7.43782C8.94124 7.44387 10.0023 7.43782 11.0627 7.43782C11.8857 7.43782 12.7081 7.44327 13.5305 7.43359C13.7249 7.43359 13.7765 7.4941 13.7765 7.67566C13.7667 8.38614 13.7993 9.09783 13.7661 9.8065C13.6929 11.3697 13.2672 12.8112 12.1398 13.9822C11.254 14.8997 10.1431 15.4044 8.89265 15.6041C7.31984 15.8583 5.77656 15.7324 4.31508 15.0794C1.99124 14.0379 0.615258 12.2472 0.147782 9.79379C-0.23481 7.7852 0.116412 5.89703 1.30724 4.20495C2.51161 2.49289 4.19083 1.4774 6.27417 1.1379C7.97615 0.861328 9.63754 1.01202 11.222 1.7225C11.4847 1.84729 11.7377 1.99069 11.9792 2.15157C12.0131 2.17778 12.0411 2.21052 12.0616 2.24778C12.0821 2.28503 12.0947 2.32602 12.0985 2.36823C12.1139 2.66961 12.1059 2.97159 12.1059 3.32018Z" fill="#B3BAD1"/>
<path d="M28.959 14.0714C28.959 14.3861 28.9713 14.6881 28.9516 14.9882C28.9424 15.0375 28.9231 15.0843 28.8949 15.126C28.8667 15.1676 28.8301 15.2031 28.7874 15.2303C28.3229 15.5167 27.7916 15.6815 27.2441 15.709C24.219 15.8996 21.7445 14.0466 21.2266 11.152C20.8655 9.13312 21.2936 7.30668 22.7557 5.79192C23.7473 4.76311 24.9891 4.2245 26.4303 4.12646C27.9066 4.026 29.2506 4.36369 30.4192 5.26904C31.559 6.152 32.1957 7.3315 32.4017 8.73188C32.4656 9.20998 32.496 9.69183 32.4927 10.174C32.5032 11.8292 32.4927 13.4838 32.5014 15.1365C32.5014 15.3495 32.4398 15.4143 32.2289 15.3985C31.9986 15.384 31.7677 15.384 31.5375 15.3985C31.3726 15.4064 31.3265 15.3453 31.3284 15.1898C31.3357 14.5846 31.3314 13.9794 31.3314 13.3742C31.3314 12.0973 31.3579 10.8198 31.3253 9.54343C31.2748 7.61109 30.0951 5.90811 28.0653 5.4046C25.3342 4.72982 22.741 6.37955 22.3479 9.13917C22.1388 10.6055 22.4051 11.969 23.3893 13.1334C24.1157 13.9915 25.0808 14.4291 26.1984 14.5725C27.1518 14.6935 28.0437 14.5416 28.8833 14.075C28.895 14.0653 28.9129 14.0714 28.959 14.0714Z" fill="#B3BAD1"/>
<path d="M12.1054 5.16504C11.7093 4.94838 11.3851 4.74625 11.0401 4.58709C9.61057 3.92744 8.11218 3.68477 6.56029 4.0164C4.65348 4.42309 3.33594 5.93119 3.15571 7.8478C3.01731 9.3196 3.3753 10.6383 4.46218 11.704C5.21752 12.4454 6.15371 12.7976 7.21598 12.8454C7.99408 12.8805 8.74881 12.7951 9.44757 12.4339C10.2343 12.0272 10.7547 11.4208 10.8691 10.5269C10.8738 10.4896 10.876 10.452 10.8758 10.4144C10.8719 10.3845 10.8657 10.355 10.8574 10.326C10.7713 10.3224 10.6821 10.3151 10.5929 10.3151C9.69299 10.3151 8.79371 10.3091 7.89444 10.3188C7.69884 10.3188 7.63794 10.2582 7.6484 10.0724C7.66132 9.83884 7.65578 9.60403 7.6484 9.36983C7.64471 9.23124 7.68469 9.16588 7.84338 9.16649C9.18861 9.17133 10.5338 9.16951 11.8791 9.16649C11.9818 9.16649 12.0562 9.17678 12.0593 9.3081C12.0845 10.2159 12.0082 11.1031 11.5401 11.9158C10.933 12.9688 9.99562 13.5867 8.81463 13.83C6.97732 14.2076 5.28519 13.879 3.83232 12.6669C2.75282 11.7657 2.13649 10.6008 1.9372 9.22217C1.701 7.58334 2.07375 6.10004 3.1471 4.81706C4.13126 3.64482 5.40513 2.97307 6.94226 2.81452C8.66454 2.63659 10.2804 2.98881 11.7886 3.8294C12.0218 3.95952 12.1405 4.10476 12.1109 4.38012C12.0845 4.62522 12.1054 4.87273 12.1054 5.16504Z" fill="#B3BAD1"/>
<path d="M33.0879 10.2683C33.0879 9.70671 33.0879 9.20381 33.0879 8.7003C33.0916 8.64801 33.1104 8.59785 33.142 8.55566C33.8574 7.56377 34.5524 6.55857 35.4622 5.71797C36.4346 4.8223 37.5689 4.25404 38.903 4.1445C41.8807 3.90243 44.2304 5.55639 44.931 8.24883C45.4354 10.1854 45.158 12.0324 43.897 13.6561C42.983 14.8338 41.7546 15.5122 40.2507 15.6762C38.59 15.8578 37.0977 15.4632 35.822 14.3727C35.2646 13.8921 34.8274 13.2915 34.5444 12.6176C34.511 12.5557 34.498 12.4851 34.5072 12.4155C34.5165 12.346 34.5476 12.281 34.5961 12.2297C34.8182 11.9519 35.0267 11.6639 35.2647 11.3486C35.309 11.4884 35.3361 11.5949 35.3754 11.6965C36.0158 13.3584 37.2404 14.3164 39.0218 14.5627C41.4206 14.8937 43.5058 13.2809 43.9229 10.8917C44.1738 9.45314 43.9481 8.10783 43.0408 6.92228C42.2781 5.92797 41.2343 5.40933 39.9813 5.27982C38.2049 5.09827 36.8 5.81298 35.6682 7.07721C34.8422 8.00011 34.0991 8.99442 33.3198 9.95726C33.2552 10.0462 33.19 10.1346 33.0879 10.2683Z" fill="#B3BAD1"/>
<path d="M33.0859 13.0648C33.0859 12.4596 33.0859 11.9089 33.0859 11.3582C33.088 11.2911 33.1109 11.2262 33.1518 11.1724C34.1661 9.89123 35.1484 8.58344 36.2125 7.34343C36.5644 6.924 36.9978 6.57782 37.4874 6.32511C37.9769 6.0724 38.5127 5.91824 39.0635 5.87163C40.9807 5.69673 42.5732 6.67591 43.1545 8.39039C43.6675 9.90334 43.4996 11.3558 42.4896 12.6309C41.145 14.3314 38.5794 14.4694 37.006 12.9637C36.4204 12.4027 35.9941 11.7497 35.8373 10.9527C35.8175 10.817 35.8471 10.6787 35.9209 10.5624C36.1528 10.2162 36.413 9.88881 36.6504 9.56928C36.7273 9.96809 36.7648 10.382 36.8897 10.7687C37.2126 11.7703 37.848 12.5099 38.9115 12.7937C40.4075 13.1937 41.8179 12.3059 42.1648 10.7675C42.3746 9.83979 42.2977 8.94352 41.7416 8.14105C41.1505 7.28775 40.3035 6.94401 39.2622 7.0015C38.2208 7.05899 37.4784 7.6442 36.838 8.37102C35.5463 9.83193 34.3088 11.3364 33.1924 12.9305C33.169 12.9589 33.145 12.9879 33.0859 13.0648Z" fill="#B3BAD1"/>
<path d="M28.9577 12.2788C28.9577 12.6625 28.9663 12.9796 28.9509 13.2955C28.943 13.3377 28.9258 13.3778 28.9005 13.4128C28.8752 13.4478 28.8425 13.477 28.8045 13.4982C26.4438 14.6916 23.5762 13.733 22.9851 10.9032C22.7427 9.74732 22.8799 8.62774 23.5307 7.61406C24.2516 6.48964 25.3194 5.92319 26.6597 5.86448C28 5.80578 29.117 6.25059 29.9419 7.31692C30.4001 7.90757 30.68 8.58416 30.6947 9.32491C30.731 11.2887 30.7286 13.2525 30.7446 15.2163C30.7446 15.3507 30.7058 15.4076 30.56 15.4033C30.2992 15.3949 30.0366 15.41 29.7764 15.393C29.718 15.3894 29.6466 15.3041 29.6152 15.2405C29.5839 15.177 29.6085 15.1068 29.6085 15.039C29.6085 13.3766 29.622 11.7136 29.5992 10.0517C29.6016 9.59967 29.5348 9.14984 29.4012 8.7173C28.7443 6.74381 26.2027 6.47209 24.9405 7.73631C23.7687 8.91096 23.7552 11.0194 24.9466 12.1432C25.5919 12.7484 26.381 12.9566 27.2588 12.8664C27.8499 12.8035 28.4103 12.6425 28.9577 12.2788Z" fill="#B3BAD1"/>
<path d="M22.4691 5.00454C22.2606 5.22482 22.0564 5.42817 21.8675 5.64603C21.7722 5.75496 21.6947 5.71986 21.5883 5.67568C20.2843 5.13586 18.9846 5.13102 17.7279 5.79006C16.5894 6.38859 15.9976 7.38108 15.8051 8.61383C15.7657 8.91297 15.7491 9.21458 15.7553 9.51616C15.7508 11.3745 15.7508 13.2328 15.7553 15.0911C15.7553 15.3937 15.7553 15.3937 15.4391 15.3937C15.2392 15.3937 15.0387 15.3834 14.84 15.3937C14.6623 15.4052 14.6155 15.3332 14.618 15.1704C14.6254 14.6717 14.618 14.173 14.618 13.6744C14.6211 12.1184 14.5909 10.5613 14.6383 9.0066C14.6887 7.35748 15.3204 5.96617 16.7591 5.02027C17.6818 4.41509 18.7275 4.20328 19.8242 4.21962C20.7321 4.23293 21.584 4.44112 22.3652 4.90529C22.3915 4.92069 22.4166 4.93809 22.4402 4.95734C22.4522 4.97156 22.4619 4.98747 22.4691 5.00454Z" fill="#B3BAD1"/>
<path d="M21.3527 6.32522L20.8741 7.23299C20.5814 7.17247 20.2953 7.08714 20.0032 7.0478C18.8234 6.89046 17.7888 7.60699 17.5569 8.74897C17.503 9.02255 17.476 9.3006 17.4763 9.57927C17.4696 11.4081 17.4726 13.2364 17.4726 15.0652C17.4726 15.392 17.4726 15.392 17.1313 15.392C16.9467 15.392 16.7622 15.3793 16.5777 15.392C16.379 15.4096 16.3353 15.3315 16.3359 15.15C16.3421 13.3594 16.3421 11.5685 16.3359 9.77717C16.3359 9.07092 16.3747 8.37194 16.697 7.72379C17.277 6.5564 18.2477 5.9609 19.5529 5.90341C20.3482 5.86831 20.9129 6.02021 21.3527 6.32522Z" fill="#B3BAD1"/>
<path d="M33.8184 6.57071V0.297411C33.8184 0.0057139 33.8184 0.00571392 34.1259 0.00510874C34.3184 0.00510874 34.511 0.016002 34.7023 0.00510874C34.8936 -0.00578451 34.9483 0.0559439 34.9483 0.247181C34.9409 1.71232 34.9292 3.17807 34.9532 4.64261C34.96 5.08318 34.8917 5.43842 34.535 5.74464C34.2785 5.96129 34.0865 6.2536 33.8184 6.57071Z" fill="#B3BAD1"/>
<path d="M35.576 4.77378V4.59707C35.576 3.14766 35.576 1.69765 35.5723 0.248244C35.5723 0.0666896 35.6153 -0.0113787 35.814 0.0013301C36.0508 0.0170648 36.2901 0.00980262 36.5281 0.0013301C36.6585 0.0013301 36.7022 0.0503497 36.7016 0.175017C36.7016 1.42835 36.7016 2.68167 36.6973 3.935C36.6983 3.9669 36.6926 3.99866 36.6807 4.02832C36.6687 4.05798 36.6507 4.08492 36.6278 4.10748C36.287 4.332 35.9389 4.54563 35.576 4.77378Z" fill="#B3BAD1"/>
</g>
<defs>
<clipPath id="clip0_80_55206">
<rect width="81" height="20" fill="white"/>
</clipPath>
</defs>
</svg>
