<svg width="81" height="20" viewBox="0 0 81 20" fill="none" xmlns="http://www.w3.org/2000/svg">
<g clip-path="url(#clip0_80_55207)">
<path d="M11.5456 3.11427C11.7972 3.02126 11.8374 2.8914 11.709 2.68199C11.5616 2.44099 11.448 2.17952 11.3024 1.93735C11.2148 1.7917 11.2355 1.70337 11.3616 1.59047C12.3041 0.748605 13.4847 0.211788 14.7448 0.0520579C18.1435 -0.398938 20.987 2.13916 21.4747 5.38796C21.5327 5.80292 21.5606 6.22145 21.5582 6.64034C21.5659 8.98014 21.5617 11.3199 21.5617 13.6597C21.5617 14.2862 21.4724 14.3751 20.8515 14.3757H18.839C18.2909 14.3757 18.1708 14.2552 18.1708 13.7018C18.1708 11.2948 18.1879 8.88713 18.1571 6.48006C18.1509 5.93632 18.0491 5.39777 17.8565 4.88842C17.4753 3.90804 16.7029 3.34649 15.6315 3.2646C14.4021 3.17101 13.4415 3.64774 12.7904 4.69305C12.511 5.14229 12.3968 5.64183 12.398 6.17121C12.4027 8.23803 12.4045 10.3049 12.4033 12.3717C12.4033 12.9215 12.2849 13.0368 11.7262 13.0373C11.0755 13.0373 10.4244 13.0373 9.7729 13.0373C9.30589 13.0373 9.17449 12.9081 9.1739 12.4524C9.1739 10.4349 9.1739 8.41625 9.1739 6.39993C9.1739 5.53537 8.96436 4.73048 8.33518 4.09581C7.50001 3.2529 6.47129 3.06689 5.36384 3.39387C4.28659 3.71209 3.71777 4.51932 3.49403 5.57222C3.43249 5.90735 3.40551 6.24778 3.41354 6.58828C3.40702 8.96668 3.41058 11.3451 3.40998 13.7247C3.40998 14.2774 3.29634 14.3892 2.73581 14.3892C2.006 14.3892 1.27619 14.3892 0.545786 14.3892C0.163419 14.3892 0.00597376 14.2336 0.00597376 13.8569C0.00597376 11.3229 -0.0159265 8.78827 0.0130765 6.25252C0.0479986 3.32602 2.18475 0.753412 5.0306 0.143895C7.38103 -0.359746 10.0132 0.765696 11.3722 2.85572C11.429 2.94346 11.4894 3.03003 11.5456 3.11427Z" fill="#B3BAD1"/>
<path d="M67.7933 2.47167C68.0194 2.37632 68.0538 2.25699 67.9147 2.06221C67.7211 1.79196 67.5595 1.50007 67.3701 1.22748C67.2936 1.12551 67.2471 1.00459 67.2358 0.878117C67.2245 0.751646 67.2489 0.624557 67.3062 0.51092C67.4246 0.260562 67.6678 0.283375 67.8981 0.284545C68.5687 0.284545 69.2393 0.284545 69.9106 0.284545C70.29 0.284545 70.4344 0.420838 70.4344 0.788771C70.4344 5.14508 70.4344 9.5012 70.4344 13.8571C70.4344 14.2239 70.2846 14.373 69.9177 14.3754C69.2176 14.3801 68.5174 14.3801 67.817 14.3754C67.3145 14.3754 67.0688 13.9396 67.3245 13.505C67.5175 13.1768 67.73 12.8615 67.9164 12.5293C67.9591 12.4562 67.9401 12.3485 67.9496 12.2567C67.8561 12.2883 67.7335 12.293 67.6732 12.3561C66.1934 13.9098 64.371 14.6878 62.2147 14.6556C58.7817 14.6041 55.6996 11.9432 55.1669 8.60135C54.5247 4.57807 57.0154 0.950802 61.0362 0.158196C63.5926 -0.34603 65.7797 0.433122 67.5944 2.26401C67.6625 2.33362 67.7282 2.4044 67.7933 2.47167ZM58.2288 7.31213C58.2241 9.63203 60.1046 11.5132 62.4349 11.5197C63.2741 11.5263 64.0964 11.2866 64.7976 10.831C65.4989 10.3754 66.0475 9.72436 66.3741 8.96037C66.7007 8.19638 66.7905 7.35379 66.6322 6.53932C66.4739 5.72484 66.0745 4.97512 65.4847 4.38512C64.8949 3.79511 64.1412 3.39135 63.3191 3.22498C62.4969 3.05861 61.6433 3.13712 60.8663 3.45055C60.0893 3.76398 59.4239 4.29825 58.9544 4.98567C58.4849 5.6731 58.2324 6.48277 58.2288 7.31213Z" fill="#B3BAD1"/>
<path d="M53.6651 7.41645C53.6651 9.47313 53.6686 11.5298 53.6651 13.5865C53.6651 14.688 53.5023 15.7631 53.0051 16.7634C52.1172 18.5474 50.6097 19.5214 48.6765 19.8536C47.8863 19.9888 47.0683 19.9706 46.2622 19.9999C45.9278 20.0122 45.7602 19.8244 45.7573 19.4869C45.752 18.8341 45.7573 18.1807 45.7573 17.5279C45.7573 17.0014 45.8828 16.8751 46.4255 16.8844C47.1394 16.895 47.852 16.8722 48.5197 16.6013C48.9302 16.4395 49.3226 16.2358 49.6905 15.9936C50.2161 15.6385 50.512 15.1302 50.4635 14.4756C50.4527 14.355 50.4666 14.2335 50.5043 14.1184C50.542 14.0032 50.6028 13.8967 50.6831 13.8053C50.9121 13.5251 51.1234 13.2303 51.3306 12.9337C51.3827 12.8588 51.3898 12.7535 51.4194 12.6623C51.3294 12.6915 51.2211 12.6985 51.1524 12.7535C50.2481 13.4839 49.1762 13.9838 48.0308 14.2095C44.4374 14.9313 40.8049 12.5716 40.0904 9.02447C39.9843 8.46965 39.9308 7.90624 39.9306 7.34157C39.9123 5.20709 39.9229 3.07144 39.9235 0.93755C39.9235 0.385358 40.0236 0.286501 40.5746 0.286501C41.2849 0.286501 41.9952 0.286501 42.7055 0.286501C43.1665 0.286501 43.3275 0.448532 43.3281 0.896603C43.3281 3.08041 43.3281 5.26423 43.3281 7.44804C43.3281 8.11663 43.4228 8.76885 43.7146 9.37837C44.3799 10.7735 45.6608 11.3567 47.1701 11.1917C49.1015 10.9805 50.3297 9.55385 50.3238 7.63171C50.3167 5.36035 50.3238 3.08958 50.3238 0.81822C50.3238 0.457891 50.47 0.295276 50.8364 0.291766C51.6254 0.281822 52.4144 0.284162 53.204 0.291766C53.4786 0.291766 53.642 0.456137 53.668 0.722874C53.6763 0.810031 53.668 0.898358 53.668 0.986101C53.6668 3.12858 53.6658 5.27202 53.6651 7.41645Z" fill="#B3BAD1"/>
<path d="M35.5902 2.47064C35.8269 2.3671 35.8459 2.24426 35.7085 2.05415C35.5144 1.78449 35.3534 1.49319 35.164 1.21884C35.088 1.11641 35.0422 0.995151 35.0317 0.868545C35.0213 0.741939 35.0466 0.614949 35.1048 0.501697C35.2167 0.267717 35.4493 0.280586 35.6707 0.281756C36.3513 0.285266 37.032 0.281756 37.7127 0.281756C38.0844 0.281756 38.2282 0.423314 38.2282 0.794756C38.2282 5.13352 38.2282 9.4717 38.2282 13.8093C38.2282 14.2076 38.0755 14.3615 37.6784 14.3632C36.9782 14.3667 36.2779 14.3679 35.5771 14.3632C35.0569 14.3603 34.8142 13.9228 35.0823 13.4724C35.2818 13.136 35.4966 12.8096 35.689 12.4692C35.7304 12.3943 35.6949 12.2779 35.6949 12.1802L35.5866 12.1615L35.3498 12.4101C33.9654 13.8374 32.2661 14.6329 30.2725 14.6235C28.4607 14.6154 26.8567 13.9216 25.5575 12.6692C23.4178 10.6096 22.6814 8.10136 23.5196 5.26669C24.3524 2.45426 26.3222 0.709939 29.2237 0.142538C31.641 -0.330686 33.6736 0.552002 35.3794 2.24836C35.454 2.3203 35.5227 2.39927 35.5902 2.47064ZM30.2299 3.13689C27.8913 3.1328 25.983 5.00171 25.9765 7.3029C25.9706 9.61696 27.8582 11.5087 30.182 11.5145C30.7403 11.5179 31.2938 11.4124 31.8108 11.204C32.3278 10.9955 32.7981 10.6883 33.1947 10.3C33.5913 9.91159 33.9065 9.44967 34.1221 8.9407C34.3378 8.43172 34.4496 7.88569 34.4513 7.3339C34.4549 5.02803 32.5584 3.14157 30.2299 3.13689Z" fill="#B3BAD1"/>
</g>
<defs>
<clipPath id="clip0_80_55207">
<rect width="81" height="20" fill="white"/>
</clipPath>
</defs>
</svg>
