<svg width="256" height="220" viewBox="0 0 256 220" fill="none" xmlns="http://www.w3.org/2000/svg">
<path d="M237.828 112.905C245.915 160.268 220.419 247.706 132.664 209.968C91.9402 192.455 11.4332 225.348 3.34664 177.985C-4.73996 130.621 12.1478 83.6368 93.116 64.4402C174.084 45.2435 229.742 65.5416 237.828 112.905Z" fill="#F4FDF5"/>
<path d="M78.4516 121.812L32.6989 203.666C61.979 208.713 105.907 198.462 132.664 209.968C142.445 214.174 151.45 216.823 159.724 218.147L165.686 140.471L78.4516 121.812Z" fill="#E5E3FF"/>
<path d="M67.9816 119.78C67.1634 119.78 66.505 120.438 66.505 121.256C66.505 122.075 67.1634 122.734 67.9816 122.734H73.8915C74.7096 122.734 75.368 123.392 75.368 124.21C75.368 125.028 74.7096 125.687 73.8915 125.687H73.0338C72.2156 125.687 71.5566 126.346 71.5566 127.164C71.5566 127.982 72.2156 128.641 73.0338 128.641H85.9725C86.7906 128.641 87.4496 127.982 87.4496 127.164C87.4496 126.346 86.7906 125.687 85.9725 125.687H81.5731C80.755 125.687 80.096 125.028 80.096 124.21C80.096 123.392 80.755 122.734 81.5731 122.734H89.6256C90.4437 122.734 91.1021 122.075 91.1021 121.256C91.1021 120.438 90.4437 119.78 89.6256 119.78H67.9816Z" fill="#7166F9"/>
<path d="M94.7429 125.297L59.4201 205.126C62.09 205.083 64.7977 205.012 67.5228 204.926L102.84 129.456L94.7429 125.297ZM108.703 128.283L72.1724 204.769C73.6434 204.717 75.1031 204.672 76.5791 204.62L112.421 129.078L108.703 128.283ZM132.468 133.366L106.998 204.621C108.261 204.706 109.514 204.805 110.752 204.923L135.894 134.098L132.468 133.366Z" fill="#EBFCEE"/>
<path d="M143.309 65.5208C142.437 65.5208 141.734 66.2228 141.734 67.0953C141.734 67.9678 142.437 68.6705 143.309 68.6705H163.615C164.488 68.6705 165.19 69.3726 165.19 70.2451C165.19 71.1175 164.488 71.8203 163.615 71.8203H140.145C139.273 71.8203 138.571 72.5224 138.571 73.3948C138.571 74.2673 139.273 74.9694 140.145 74.9694H172.722C173.594 74.9694 174.296 74.2673 174.296 73.3948C174.296 72.5224 173.594 71.8203 172.722 71.8203H171.807C170.934 71.8203 170.232 71.1175 170.232 70.2451C170.232 69.3726 170.934 68.6705 171.807 68.6705H178.108C178.981 68.6705 179.684 67.9678 179.684 67.0953C179.684 66.2228 178.981 65.5208 178.108 65.5208H143.309ZM182.166 65.5208C181.294 65.5208 180.592 66.2228 180.592 67.0953C180.592 67.9678 181.294 68.6705 182.166 68.6705H182.99C183.862 68.6705 184.565 67.9678 184.565 67.0953C184.565 66.2228 183.862 65.5208 182.99 65.5208H182.166Z" fill="#7166F9"/>
<path d="M155.751 146.245C155.073 146.245 154.526 146.791 154.526 147.47C154.526 148.148 155.073 148.695 155.751 148.695H160.653C161.332 148.695 161.878 149.241 161.878 149.92C161.878 150.598 161.332 151.145 160.653 151.145H159.942C159.263 151.145 158.717 151.691 158.717 152.37C158.717 153.048 159.263 153.595 159.942 153.595H170.674C171.352 153.595 171.899 153.048 171.899 152.37C171.899 151.691 171.352 151.145 170.674 151.145H167.025C166.346 151.145 165.799 150.598 165.799 149.92C165.799 149.241 166.346 148.695 167.025 148.695H173.704C174.382 148.695 174.929 148.148 174.929 147.47C174.929 146.791 174.382 146.245 173.704 146.245H155.751Z" fill="#7166F9"/>
<path d="M150.342 144.06C150.342 149.125 139.484 153.23 126.092 153.23C113.123 153.23 102.541 149.372 101.872 144.54C101.785 144.249 101.726 143.943 101.726 143.623V108.675C101.726 104.978 102.556 101.484 104.026 98.3404C105.234 95.7786 106.865 93.4643 108.844 91.4993C113.24 87.1035 119.31 84.3816 126.02 84.3816C132.773 84.3816 138.887 87.1472 143.297 91.5866C147.635 95.9679 150.313 102.008 150.313 108.66V143.608C150.313 143.623 150.313 143.623 150.313 143.637C150.328 143.768 150.342 143.914 150.342 144.06Z" fill="#6957DE"/>
<path d="M126.092 153.856C112.701 153.856 102.047 149.911 101.261 144.671C101.159 144.322 101.1 143.972 101.1 143.608V108.66C101.1 104.949 101.901 101.383 103.458 98.0639C104.681 95.4584 106.34 93.1004 108.393 91.0481C113.094 86.3466 119.353 83.7557 126.005 83.7557C132.715 83.7557 139.003 86.3758 143.719 91.15C148.362 95.8369 150.924 102.067 150.924 108.675V143.623C150.939 143.768 150.953 143.914 150.953 144.06C150.968 149.547 140.037 153.856 126.092 153.856ZM126.02 85.0075C119.703 85.0075 113.764 87.4674 109.295 91.936C107.345 93.8865 105.773 96.128 104.608 98.6025C103.124 101.761 102.367 105.138 102.367 108.66V143.608C102.367 143.856 102.41 144.103 102.483 144.351L102.512 144.453C103.124 148.95 113.706 152.604 126.107 152.604C138.916 152.604 149.731 148.688 149.731 144.06C149.731 143.943 149.731 143.827 149.716 143.725V143.608V143.594V108.689C149.716 102.416 147.285 96.5064 142.875 92.0524C138.363 87.4965 132.395 85.0075 126.02 85.0075ZM150.939 143.696C150.939 143.71 150.939 143.71 150.939 143.696V143.696Z" fill="#4F3CC9"/>
<path d="M140.503 110.363H110.125V131.993H140.503V110.363Z" fill="white"/>
<path d="M141.143 132.619H109.499V109.737H141.143V132.619ZM110.751 131.352H139.877V110.989H110.751V131.352Z" fill="#4F3CC9"/>
<path d="M69.1264 35.3561L65.2475 35.9884L69.0439 59.2763L72.9228 58.644L69.1264 35.3561Z" fill="#6957DE"/>
<path d="M68.5251 59.9865L64.5223 35.4603L69.6459 34.6306L73.6486 59.1568L68.5251 59.9865ZM65.9778 36.4937L69.5731 58.5309L72.2076 58.0943L68.6124 36.0571L65.9778 36.4937Z" fill="#4F3CC9"/>
<path d="M74.2986 53.5565L66.3253 54.8563L68.3979 67.5706L76.3713 66.2708L74.2986 53.5565Z" fill="#6957DE"/>
<path d="M67.8991 68.2685L65.6285 54.3097L74.8422 52.8104L77.1128 66.7692L67.8991 68.2685ZM67.0549 55.3577L68.9326 66.842L75.6718 65.7503L73.7942 54.266L67.0549 55.3577Z" fill="#4F3CC9"/>
<path d="M80.5536 46.4468L71.0718 47.9926L74.9384 71.7115L84.4202 70.1657L80.5536 46.4468Z" fill="#4F3CC9"/>
<path d="M163.349 20.0036L159.47 20.636L163.266 43.9239L167.145 43.2915L163.349 20.0036Z" fill="#6957DE"/>
<path d="M162.743 44.6156L158.755 20.0894L163.879 19.2598L167.882 43.786L162.743 44.6156ZM160.196 21.1374L163.791 43.1746L166.426 42.7379L162.831 20.7008L160.196 21.1374Z" fill="#4F3CC9"/>
<path d="M168.301 38.2185L160.327 39.5183L162.4 52.2326L170.373 50.9327L168.301 38.2185Z" fill="#6957DE"/>
<path d="M161.899 52.9414L159.629 38.9826L168.842 37.4834L171.113 51.4422L161.899 52.9414ZM161.055 40.0306L162.933 51.515L169.672 50.4233L167.794 38.939L161.055 40.0306Z" fill="#4F3CC9"/>
<path d="M161.632 33.2315L152.15 34.7772L156.017 58.4961L165.499 56.9504L161.632 33.2315Z" fill="#4F3CC9"/>
<path d="M124.627 16.6854L101.986 20.3763L103.356 28.7807L125.997 25.0897L124.627 16.6854Z" fill="#4F3CC9"/>
<path d="M115.802 21.5013C115.729 21.1229 113.909 12.3168 117.446 8.15385C118.334 7.1204 119.455 6.45085 120.823 6.17429C121.464 4.84973 122.788 3.42327 125.35 2.14238C127.446 1.10893 129.571 1.12349 131.289 1.61838C131.478 1.47283 131.682 1.32727 131.9 1.18171L131.958 1.15261C132.031 1.10894 139.222 -2.55907 143.836 3.42328L142.846 4.19473C141.187 2.04051 138.96 1.05071 136.223 1.26904C134.549 1.40004 133.21 1.95317 132.73 2.1715C133.021 2.31706 133.283 2.46261 133.516 2.62272C134.899 3.53973 135.641 4.73328 135.568 5.89773C135.524 6.62551 135.132 7.65896 133.545 8.44496C132.22 9.09997 130.168 8.32852 129.324 6.8584C128.931 6.17429 128.378 4.58772 130.153 2.65183C128.829 2.43349 127.33 2.5645 125.918 3.26317C124.288 4.06373 123.094 5.00985 122.366 6.01418C122.526 6.01418 122.672 6.01418 122.832 6.02874C124.55 6.10151 127.854 8.44497 128.188 10.6865C128.305 11.4434 128.174 12.8116 126.005 13.5976C124.215 14.2381 121.697 12.7098 120.707 10.3954C120.489 9.90053 120.168 8.86707 120.372 7.60073C119.601 7.87729 118.946 8.32852 118.407 8.96896C115.263 12.6806 117.01 21.1666 117.039 21.2393L115.802 21.5013ZM121.711 7.30962C121.449 8.15384 121.493 9.02719 121.871 9.90052C122.643 11.6909 124.564 12.7825 125.598 12.4041C127.111 11.8655 126.995 11.1086 126.966 10.8612C126.733 9.28918 124.04 7.32419 122.803 7.26596C122.41 7.26596 122.046 7.28051 121.711 7.30962ZM131.551 3.03029C130.27 4.16562 129.862 5.30096 130.401 6.23252C130.954 7.17863 132.322 7.64441 132.977 7.32419C133.559 7.03308 134.258 6.53818 134.302 5.82495C134.345 5.14084 133.778 4.31117 132.817 3.67072C132.453 3.42327 132.031 3.20495 131.551 3.03029Z" fill="#4F3CC9"/>
<path d="M110.722 23.1898C110.722 23.1607 110.605 19.711 108.83 16.0285C106.472 11.1378 102.411 8.13933 96.7921 7.10588L97.0249 5.86865C104.565 7.25143 108.233 11.8801 109.979 15.5336C111.857 19.4636 111.974 23.0151 111.974 23.1607L110.722 23.1898Z" fill="#4F3CC9"/>
<path d="M143.297 91.5866L104.041 98.3404C105.249 95.7786 106.879 93.4643 108.859 91.4993C113.254 87.1035 119.324 84.3816 126.034 84.3816C132.788 84.3816 138.887 87.1326 143.297 91.5866Z" fill="#4F3CC9"/>
<path d="M153.821 23.2918L162.511 76.5653C163.064 79.9567 160.764 83.1444 157.372 83.6975L91.159 94.4978C87.7676 95.0509 84.5799 92.7511 84.0268 89.3596L75.3371 36.0862C74.784 32.6947 77.0838 29.507 80.4752 28.9539L146.689 18.1536C150.08 17.6005 153.268 19.9003 153.821 23.2918Z" fill="#6957DE"/>
<path d="M90.1547 95.2109C88.7283 95.2109 87.3455 94.7743 86.1665 93.9155C84.6818 92.8529 83.7066 91.2664 83.4155 89.4615L74.7258 36.188C74.1144 32.4617 76.6617 28.9393 80.3733 28.3279L146.587 17.5277C150.313 16.9163 153.835 19.449 154.447 23.1752L163.136 76.4487C163.748 80.175 161.215 83.6974 157.489 84.3088L91.2755 95.109C90.897 95.1818 90.5186 95.2109 90.1547 95.2109ZM147.693 18.7067C147.402 18.7067 147.096 18.7358 146.791 18.7795L80.5771 29.5797C77.535 30.0746 75.4681 32.9566 75.963 35.9987L84.6527 89.2722C84.8856 90.7424 85.6861 92.0378 86.9088 92.9112C88.1169 93.7845 89.6016 94.1338 91.0717 93.8864L157.285 83.0861C160.327 82.5912 162.394 79.7092 161.899 76.6671L153.21 23.3936C152.758 20.6571 150.371 18.7067 147.693 18.7067Z" fill="#4F3CC9"/>
<path d="M81.3486 28.8083L92.0324 94.3522L91.159 94.4978C87.7676 95.0509 84.5799 92.7511 84.0268 89.3596L75.3371 36.0862C74.784 32.6947 77.0838 29.507 80.4752 28.9539L81.3486 28.8083Z" fill="white"/>
<path d="M90.1547 95.211C88.7283 95.211 87.3455 94.7743 86.1665 93.9156C84.6818 92.853 83.7066 91.2664 83.4155 89.4616L74.7258 36.188C74.1144 32.4618 76.6617 28.9393 80.3733 28.328L81.8726 28.0806L92.7602 94.8617L91.2609 95.1091C90.897 95.1819 90.5186 95.211 90.1547 95.211ZM80.8246 29.5361L80.5771 29.5798C77.535 30.0747 75.4681 32.9567 75.963 35.9988L84.6527 89.2723C84.8856 90.7424 85.6861 92.0379 86.9088 92.9112C88.1169 93.7846 89.6016 94.1339 91.0717 93.8864L91.3192 93.8428L80.8246 29.5361Z" fill="#4F3CC9"/>
<path d="M153.821 23.2918L162.511 76.5653C163.064 79.9567 160.764 83.1444 157.372 83.6975L156.499 83.8431L145.815 18.2992L146.689 18.1536C150.08 17.6005 153.268 19.9003 153.821 23.2918Z" fill="white"/>
<path d="M155.99 84.5708L145.102 17.7896L146.601 17.5422C150.328 16.9309 153.85 19.4635 154.461 23.1898L163.151 76.4633C163.762 80.1895 161.215 83.712 157.503 84.3233L155.99 84.5708ZM146.529 18.8231L157.009 83.1298L157.256 83.0861C160.298 82.5912 162.365 79.7092 161.87 76.6671L153.18 23.3935C152.686 20.3514 149.804 18.2845 146.761 18.7794L146.529 18.8231Z" fill="#4F3CC9"/>
<path d="M79.3348 38.2342C80.2313 38.0881 80.8397 37.2428 80.6935 36.3462C80.5474 35.4496 79.702 34.8413 78.8055 34.9874C77.9089 35.1336 77.3006 35.9789 77.4467 36.8755C77.5929 37.7721 78.4382 38.3804 79.3348 38.2342Z" fill="#4F3CC9"/>
<path d="M150.705 26.6062C151.602 26.46 152.21 25.6147 152.064 24.7181C151.918 23.8216 151.072 23.2132 150.176 23.3594C149.279 23.5055 148.671 24.3509 148.817 25.2474C148.963 26.144 149.808 26.7524 150.705 26.6062Z" fill="#4F3CC9"/>
<path d="M87.7018 89.5446C88.5984 89.3985 89.2067 88.5532 89.0606 87.6566C88.9144 86.76 88.0691 86.1517 87.1725 86.2979C86.276 86.444 85.6676 87.2893 85.8138 88.1859C85.9599 89.0825 86.8052 89.6908 87.7018 89.5446Z" fill="#4F3CC9"/>
<path d="M159.072 77.9165C159.969 77.7703 160.577 76.925 160.431 76.0284C160.285 75.1319 159.439 74.5235 158.543 74.6697C157.646 74.8158 157.038 75.6612 157.184 76.5577C157.33 77.4543 158.175 78.0627 159.072 77.9165Z" fill="#4F3CC9"/>
<path d="M106.617 42.0976L102.687 39.3466L97.9128 46.1877L91.2027 41.2242L88.3498 45.0815L95.1618 50.1322L90.3002 57.0898L94.2448 59.8409L99.019 52.9997L105.715 57.9632L108.582 54.1059L101.77 49.0551L106.617 42.0976Z" fill="white"/>
<path d="M94.3904 60.7142L89.4269 57.25L94.2885 50.2778L87.4619 45.2125L91.0717 40.3364L97.7527 45.2998L102.512 38.4733L107.476 41.9375L102.614 48.9096L109.441 53.975L105.831 58.8511L99.1501 53.8876L94.3904 60.7142ZM91.1736 56.9298L94.0847 58.9676L98.8735 52.1119L105.584 57.0899L107.694 54.237L100.897 49.2007L105.744 42.2577L102.833 40.2199L98.0438 47.0756L91.3337 42.0976L89.2231 44.9505L96.0206 49.9867L91.1736 56.9298Z" fill="#4F3CC9"/>
<path d="M146.747 47.8761L139.935 42.8398L144.782 35.8822L140.837 33.1312L136.063 39.9724L129.367 34.9943L126.5 38.8661L133.312 43.9169L128.465 50.8599L132.41 53.611L137.184 46.7698L143.879 51.7478L146.747 47.8761Z" fill="white"/>
<path d="M132.555 54.4844L127.577 51.0201L132.439 44.048L125.612 38.9827L129.222 34.1065L135.903 39.07L140.663 32.2434L145.641 35.7076L140.779 42.6798L147.606 47.7451L143.996 52.6213L137.315 47.6578L132.555 54.4844ZM129.338 50.7145L132.249 52.7522L137.038 45.8966L143.748 50.8746L145.859 48.0217L139.061 42.9855L143.909 36.0424L140.997 34.0046L136.209 40.8603L129.498 35.8823L127.388 38.7352L134.185 43.7714L129.338 50.7145Z" fill="#4F3CC9"/>
<path d="M147.31 66.0894L95.5628 74.5253L95.8438 76.2492L147.592 67.8134L147.31 66.0894Z" fill="#4F3CC9"/>
<path d="M161.955 22.9943C165.406 22.4316 167.748 19.1776 167.185 15.7261C166.623 12.2747 163.369 9.93286 159.917 10.4955C156.466 11.0582 154.124 14.3122 154.687 17.7637C155.249 21.2151 158.503 23.5569 161.955 22.9943Z" fill="#4F3CC9"/>
<path d="M129.644 75.8666L128.683 70.0152L141.973 67.8464L142.933 73.6978C143.53 77.3658 141.041 80.83 137.373 81.4268C133.69 82.0236 130.241 79.5346 129.644 75.8666Z" fill="#F582AE"/>
<path d="M136.267 82.1546C134.738 82.1546 133.254 81.6742 131.987 80.7718C130.386 79.6219 129.338 77.9189 129.018 75.983L127.956 69.5057L142.497 67.1332L143.559 73.6104C143.879 75.5463 143.414 77.4968 142.264 79.0979C141.114 80.699 139.411 81.747 137.475 82.0672C137.067 82.1109 136.674 82.1546 136.267 82.1546ZM130.255 75.7647C130.517 77.3803 131.391 78.7922 132.715 79.7383C134.04 80.6845 135.655 81.0774 137.271 80.8154C138.887 80.5534 140.299 79.6801 141.245 78.3556C142.191 77.031 142.584 75.4153 142.322 73.7997L141.463 68.5596L129.411 70.5246L130.255 75.7647Z" fill="#4F3CC9"/>
<path d="M67.512 38.3772C70.9634 37.8145 73.3053 34.5605 72.7426 31.1091C72.18 27.6576 68.9259 25.3158 65.4745 25.8784C62.023 26.4411 59.6812 29.6952 60.2439 33.1466C60.8065 36.598 64.0606 38.9398 67.512 38.3772Z" fill="#4F3CC9"/>
<path d="M135.803 68.8575L134.511 69.0729L135.705 76.2374L136.997 76.022L135.803 68.8575Z" fill="#4F3CC9"/>
<path d="M189.744 142.968C188.158 142.968 186.731 142.575 185.814 142.022C185.159 141.629 184.606 141.236 184.14 140.814C182.568 141.789 180.763 142.357 179.104 142.182C178.041 142.065 177.11 141.745 176.338 141.265C175.567 141.774 174.796 142.065 174.126 142.24C171.855 142.822 169.643 142.24 168.347 141.367C164.752 142.895 161.812 142.997 159.629 141.687C156.412 139.751 156.077 135.501 156.077 135.326L157.329 135.239C157.329 135.283 157.634 139.023 160.284 140.624C162.001 141.658 164.345 141.6 167.285 140.464C165.436 138.528 165.364 136.127 165.946 134.54C166.499 132.997 167.678 132.022 168.93 132.051C171.302 132.124 171.957 133.609 172.132 134.482C172.539 136.578 171.2 139.358 169.628 140.668C170.705 141.192 172.248 141.469 173.849 141.047C174.301 140.93 174.825 140.741 175.349 140.435C174.781 139.809 174.359 139.038 174.111 138.135C173.471 135.821 174.17 132.924 175.625 131.833C176.411 131.236 178.1 131.207 179.25 132.109C179.992 132.692 181.04 134.103 179.788 137C179.119 138.528 178.303 139.635 177.445 140.435C177.94 140.683 178.551 140.857 179.279 140.945C180.545 141.09 181.986 140.639 183.281 139.897C181.797 138.004 181.913 136.025 182.743 134.555C183.718 132.808 185.538 131.847 186.717 132.473C188.172 133.23 188.725 134.584 188.23 136.185C187.823 137.539 186.687 138.965 185.232 140.1C185.581 140.392 186.003 140.683 186.484 140.959C187.823 141.76 190.399 142.08 192.728 141.177C194.111 140.639 195.93 139.445 196.745 136.753L197.954 137.116C196.993 140.29 194.839 141.701 193.194 142.342C192 142.793 190.836 142.968 189.744 142.968ZM168.813 133.288C168.144 133.288 167.445 133.943 167.096 134.948C166.615 136.272 166.732 138.31 168.493 139.897C169.818 139.052 171.2 136.432 170.851 134.7C170.676 133.783 170.021 133.317 168.842 133.288C168.842 133.288 168.828 133.288 168.813 133.288ZM177.081 132.648C176.746 132.648 176.469 132.721 176.324 132.823C175.407 133.521 174.737 135.836 175.276 137.786C175.451 138.397 175.756 139.096 176.338 139.678C177.154 138.98 177.94 137.961 178.58 136.491C179.06 135.384 179.424 133.885 178.42 133.085C178.012 132.764 177.503 132.648 177.081 132.648ZM185.872 133.521C185.348 133.521 184.388 134.103 183.805 135.151C183.398 135.865 182.845 137.451 184.286 139.198C185.596 138.208 186.644 136.956 186.993 135.806C187.313 134.788 187.008 134.045 186.091 133.565C186.032 133.536 185.96 133.521 185.872 133.521Z" fill="#4F3CC9"/>
<path d="M77.6078 128.878V135.239C77.6078 137.349 81.0284 139.052 85.2349 139.052C89.4415 139.052 92.8621 137.349 92.8621 135.239V128.878H77.6078Z" fill="white"/>
<path d="M85.2495 139.678C80.6208 139.678 76.9819 137.728 76.9819 135.239V128.252H93.5025V135.239C93.5025 137.728 89.8781 139.678 85.2495 139.678ZM78.2337 129.504V135.239C78.2337 136.753 81.1157 138.427 85.2349 138.427C89.3541 138.427 92.2361 136.753 92.2361 135.239V129.504H78.2337Z" fill="#4F3CC9"/>
<path d="M85.2495 132.692C89.8316 132.692 93.5461 130.834 93.5461 128.543C93.5461 126.252 89.8316 124.395 85.2495 124.395C80.6673 124.395 76.9528 126.252 76.9528 128.543C76.9528 130.834 80.6673 132.692 85.2495 132.692Z" fill="#4F3CC9"/>
<path d="M85.2495 130.057C87.3315 130.057 89.0194 129.21 89.0194 128.165C89.0194 127.12 87.3315 126.273 85.2495 126.273C83.1674 126.273 81.4796 127.12 81.4796 128.165C81.4796 129.21 83.1674 130.057 85.2495 130.057Z" fill="white"/>
<path d="M2.83899 177.555C2.83899 177.968 2.8876 178.34 2.98481 178.673C3.09012 179.005 3.23593 179.292 3.42225 179.535C3.61667 179.77 3.8516 179.952 4.12703 180.082C4.40246 180.212 4.71839 180.277 5.07483 180.277C5.42316 180.277 5.73505 180.212 6.01048 180.082C6.29401 179.952 6.52893 179.77 6.71525 179.535C6.90967 179.292 7.05549 179.005 7.1527 178.673C7.25801 178.34 7.31066 177.968 7.31066 177.555C7.31066 177.141 7.25801 176.769 7.1527 176.437C7.05549 176.096 6.90967 175.809 6.71525 175.574C6.52893 175.331 6.29401 175.145 6.01048 175.015C5.73505 174.885 5.42316 174.821 5.07483 174.821C4.71839 174.821 4.40246 174.889 4.12703 175.027C3.8516 175.157 3.61667 175.343 3.42225 175.586C3.23593 175.821 3.09012 176.109 2.98481 176.449C2.8876 176.781 2.83899 177.15 2.83899 177.555ZM9.26702 177.555C9.26702 178.276 9.15766 178.912 8.93894 179.462C8.72831 180.005 8.43668 180.463 8.06404 180.835C7.6914 181.2 7.24586 181.475 6.7274 181.662C6.21705 181.848 5.66619 181.941 5.07483 181.941C4.49967 181.941 3.95691 181.848 3.44655 181.662C2.9362 181.475 2.49065 181.2 2.10991 180.835C1.72917 180.463 1.42944 180.005 1.21072 179.462C0.991996 178.912 0.882634 178.276 0.882634 177.555C0.882634 176.834 0.996046 176.202 1.22287 175.659C1.44969 175.108 1.75348 174.646 2.13422 174.274C2.52306 173.901 2.9686 173.622 3.47086 173.435C3.98121 173.249 4.51587 173.156 5.07483 173.156C5.64999 173.156 6.19275 173.249 6.7031 173.435C7.21345 173.622 7.659 173.901 8.03974 174.274C8.42048 174.646 8.72021 175.108 8.93894 175.659C9.15766 176.202 9.26702 176.834 9.26702 177.555ZM10.7256 181.771V172.633L12.5362 172.342V175.404C12.6577 175.363 12.8116 175.327 12.9979 175.294C13.1924 175.254 13.3787 175.234 13.5569 175.234C14.0754 175.234 14.5047 175.307 14.8449 175.452C15.1933 175.59 15.4687 175.789 15.6712 176.048C15.8818 176.307 16.0277 176.615 16.1087 176.971C16.1978 177.328 16.2423 177.725 16.2423 178.162V181.771H14.4318V178.381C14.4318 177.798 14.3548 177.385 14.2009 177.141C14.0551 176.898 13.7797 176.777 13.3746 176.777C13.2126 176.777 13.0587 176.793 12.9129 176.826C12.7752 176.85 12.6496 176.878 12.5362 176.911V181.771H10.7256ZM20.8003 175.598C21.1081 175.509 21.5051 175.428 21.9911 175.355C22.4772 175.274 22.9875 175.234 23.5222 175.234C24.0649 175.234 24.5145 175.307 24.871 175.452C25.2355 175.59 25.5231 175.789 25.7337 176.048C25.9443 176.307 26.0942 176.615 26.1833 176.971C26.2724 177.328 26.317 177.725 26.317 178.162V181.771H24.5064V178.381C24.5064 177.798 24.4295 177.385 24.2756 177.141C24.1216 176.898 23.8341 176.777 23.4128 176.777C23.2832 176.777 23.1455 176.785 22.9997 176.801C22.8539 176.809 22.7242 176.821 22.6108 176.838V181.771H20.8003V175.598ZM33.9342 178.563C33.9342 179.065 33.8613 179.527 33.7155 179.948C33.5697 180.362 33.3591 180.718 33.0836 181.018C32.8082 181.309 32.4761 181.536 32.0872 181.698C31.7065 181.86 31.2771 181.941 30.7992 181.941C30.3293 181.941 29.9 181.86 29.5112 181.698C29.1304 181.536 28.8023 181.309 28.5269 181.018C28.2515 180.718 28.0368 180.362 27.8829 179.948C27.729 179.527 27.652 179.065 27.652 178.563C27.652 178.061 27.729 177.603 27.8829 177.19C28.0449 176.777 28.2636 176.425 28.539 176.133C28.8226 175.841 29.1547 175.614 29.5355 175.452C29.9243 175.29 30.3455 175.209 30.7992 175.209C31.2609 175.209 31.6822 175.29 32.0629 175.452C32.4518 175.614 32.7839 175.841 33.0593 176.133C33.3348 176.425 33.5494 176.777 33.7033 177.19C33.8573 177.603 33.9342 178.061 33.9342 178.563ZM32.0872 178.563C32.0872 178.004 31.9738 177.567 31.747 177.251C31.5283 176.927 31.2123 176.765 30.7992 176.765C30.386 176.765 30.0661 176.927 29.8392 177.251C29.6124 177.567 29.499 178.004 29.499 178.563C29.499 179.122 29.6124 179.568 29.8392 179.9C30.0661 180.224 30.386 180.386 30.7992 180.386C31.2123 180.386 31.5283 180.224 31.747 179.9C31.9738 179.568 32.0872 179.122 32.0872 178.563ZM36.6822 179.924C36.6984 180.119 36.7065 180.256 36.7065 180.337C36.7146 180.418 36.7187 180.487 36.7187 180.544C36.7187 180.787 36.6944 181.046 36.6458 181.322C36.6053 181.589 36.5445 181.86 36.4635 182.136C36.3825 182.411 36.2812 182.687 36.1597 182.962C36.0382 183.237 35.9005 183.501 35.7466 183.752L34.3249 183.399C34.5112 182.865 34.6408 182.362 34.7137 181.893C34.7866 181.423 34.8231 181.034 34.8231 180.726C34.8231 180.678 34.819 180.617 34.8109 180.544C34.8109 180.463 34.8069 180.382 34.7988 180.301C34.7988 180.22 34.7947 180.143 34.7866 180.07C34.7866 179.997 34.7866 179.948 34.7866 179.924H36.6822ZM44.0863 176.813C44.4266 176.238 44.7506 175.663 45.0584 175.088C45.3663 174.513 45.6498 173.934 45.909 173.35H47.999C47.5373 174.258 47.0593 175.137 46.5652 175.987C46.071 176.838 45.5485 177.692 44.9977 178.551V181.771H43.1021V178.575C42.5512 177.717 42.0247 176.858 41.5224 175.999C41.0283 175.141 40.5503 174.258 40.0886 173.35H42.2879C42.5472 173.934 42.8266 174.513 43.1264 175.088C43.4261 175.663 43.7461 176.238 44.0863 176.813ZM53.8224 178.563C53.8224 179.065 53.7495 179.527 53.6037 179.948C53.4579 180.362 53.2473 180.718 52.9719 181.018C52.6964 181.309 52.3643 181.536 51.9755 181.698C51.5947 181.86 51.1654 181.941 50.6874 181.941C50.2176 181.941 49.7882 181.86 49.3994 181.698C49.0186 181.536 48.6906 181.309 48.4151 181.018C48.1397 180.718 47.925 180.362 47.7711 179.948C47.6172 179.527 47.5402 179.065 47.5402 178.563C47.5402 178.061 47.6172 177.603 47.7711 177.19C47.9331 176.777 48.1518 176.425 48.4273 176.133C48.7108 175.841 49.0429 175.614 49.4237 175.452C49.8125 175.29 50.2338 175.209 50.6874 175.209C51.1492 175.209 51.5704 175.29 51.9512 175.452C52.34 175.614 52.6721 175.841 52.9476 176.133C53.223 176.425 53.4377 176.777 53.5916 177.19C53.7455 177.603 53.8224 178.061 53.8224 178.563ZM51.9755 178.563C51.9755 178.004 51.862 177.567 51.6352 177.251C51.4165 176.927 51.1006 176.765 50.6874 176.765C50.2743 176.765 49.9543 176.927 49.7275 177.251C49.5006 177.567 49.3872 178.004 49.3872 178.563C49.3872 179.122 49.5006 179.568 49.7275 179.9C49.9543 180.224 50.2743 180.386 50.6874 180.386C51.1006 180.386 51.4165 180.224 51.6352 179.9C51.862 179.568 51.9755 179.122 51.9755 178.563ZM60.6809 181.552C60.3731 181.642 59.9761 181.723 59.4901 181.795C59.004 181.876 58.4937 181.917 57.959 181.917C57.4163 181.917 56.9626 181.844 56.5981 181.698C56.2416 181.552 55.9581 181.35 55.7475 181.091C55.5369 180.823 55.387 180.507 55.2979 180.143C55.2088 179.778 55.1642 179.377 55.1642 178.94V175.38H56.9748V178.721C56.9748 179.304 57.0517 179.726 57.2056 179.985C57.3595 180.244 57.6471 180.374 58.0684 180.374C58.198 180.374 58.3357 180.37 58.4815 180.362C58.6273 180.345 58.7569 180.329 58.8704 180.313V175.38H60.6809V181.552ZM65.2996 181.771V172.633L67.1102 172.342V175.404C67.2317 175.363 67.3856 175.327 67.5719 175.294C67.7663 175.254 67.9526 175.234 68.1309 175.234C68.6493 175.234 69.0787 175.307 69.4189 175.452C69.7672 175.59 70.0427 175.789 70.2452 176.048C70.4558 176.307 70.6016 176.615 70.6826 176.971C70.7717 177.328 70.8163 177.725 70.8163 178.162V181.771H69.0058V178.381C69.0058 177.798 68.9288 177.385 68.7749 177.141C68.6291 176.898 68.3536 176.777 67.9486 176.777C67.7866 176.777 67.6327 176.793 67.4868 176.826C67.3491 176.85 67.2236 176.878 67.1102 176.911V181.771H65.2996ZM74.8975 180.507C75.0757 180.507 75.2459 180.503 75.4079 180.495C75.5699 180.487 75.6995 180.475 75.7967 180.459V179.086C75.7238 179.069 75.6144 179.053 75.4686 179.037C75.3228 179.021 75.1892 179.013 75.0676 179.013C74.8975 179.013 74.7355 179.025 74.5816 179.049C74.4358 179.065 74.3062 179.102 74.1927 179.159C74.0793 179.215 73.9902 179.292 73.9254 179.389C73.8606 179.487 73.8282 179.608 73.8282 179.754C73.8282 180.038 73.9214 180.236 74.1077 180.349C74.3021 180.455 74.5654 180.507 74.8975 180.507ZM74.7517 175.209C75.2864 175.209 75.7319 175.27 76.0883 175.392C76.4448 175.513 76.7283 175.687 76.9389 175.914C77.1577 176.141 77.3116 176.416 77.4007 176.74C77.4898 177.065 77.5343 177.425 77.5343 177.822V181.589C77.2751 181.646 76.9146 181.71 76.4529 181.783C75.9911 181.864 75.4322 181.905 74.776 181.905C74.3629 181.905 73.9862 181.868 73.6459 181.795C73.3138 181.723 73.0262 181.605 72.7832 181.443C72.5402 181.273 72.3539 181.054 72.2242 180.787C72.0946 180.52 72.0298 180.191 72.0298 179.803C72.0298 179.43 72.1027 179.114 72.2485 178.855C72.4025 178.596 72.605 178.389 72.8561 178.235C73.1072 178.081 73.3948 177.972 73.7188 177.907C74.0429 177.834 74.3791 177.798 74.7274 177.798C74.9623 177.798 75.1689 177.81 75.3471 177.834C75.5334 177.85 75.6833 177.875 75.7967 177.907V177.737C75.7967 177.429 75.7036 177.182 75.5172 176.996C75.3309 176.809 75.0069 176.716 74.5451 176.716C74.2373 176.716 73.9335 176.74 73.6338 176.789C73.3341 176.83 73.0748 176.89 72.8561 176.971L72.6252 175.513C72.7305 175.481 72.8602 175.448 73.0141 175.416C73.1761 175.375 73.3503 175.343 73.5366 175.319C73.7229 175.286 73.9173 175.262 74.1198 175.246C74.3305 175.222 74.5411 175.209 74.7517 175.209ZM80.7549 181.771C80.3418 180.961 79.9205 180.013 79.4912 178.928C79.0699 177.842 78.6689 176.659 78.2882 175.38H80.2081C80.2891 175.695 80.3823 176.04 80.4876 176.412C80.601 176.777 80.7144 177.15 80.8278 177.53C80.9493 177.903 81.0668 178.267 81.1802 178.624C81.3017 178.98 81.4192 179.304 81.5326 179.596C81.6379 179.304 81.7513 178.98 81.8728 178.624C81.9943 178.267 82.1118 177.903 82.2252 177.53C82.3467 177.15 82.4601 176.777 82.5655 176.412C82.6789 176.04 82.7761 175.695 82.8571 175.38H84.7284C84.3476 176.659 83.9426 177.842 83.5133 178.928C83.092 180.013 82.6748 180.961 82.2617 181.771H80.7549ZM85.2282 178.624C85.2282 178.057 85.3133 177.563 85.4834 177.141C85.6616 176.712 85.8925 176.356 86.176 176.072C86.4595 175.789 86.7836 175.574 87.1481 175.428C87.5207 175.282 87.9015 175.209 88.2903 175.209C89.1976 175.209 89.9145 175.489 90.4411 176.048C90.9677 176.599 91.2309 177.413 91.2309 178.49C91.2309 178.596 91.2269 178.713 91.2188 178.843C91.2107 178.964 91.2026 179.074 91.1945 179.171H87.0873C87.1278 179.543 87.302 179.839 87.6098 180.058C87.9177 180.277 88.3308 180.386 88.8493 180.386C89.1814 180.386 89.5054 180.358 89.8214 180.301C90.1454 180.236 90.4087 180.159 90.6112 180.07L90.8542 181.54C90.757 181.589 90.6274 181.637 90.4654 181.686C90.3034 181.735 90.1211 181.775 89.9186 181.808C89.7242 181.848 89.5135 181.88 89.2867 181.905C89.0599 181.929 88.8331 181.941 88.6063 181.941C88.0311 181.941 87.5288 181.856 87.0995 181.686C86.6782 181.516 86.3259 181.285 86.0423 180.993C85.7669 180.694 85.5603 180.341 85.4226 179.936C85.293 179.531 85.2282 179.094 85.2282 178.624ZM89.4811 177.931C89.473 177.777 89.4447 177.628 89.3961 177.482C89.3556 177.336 89.2867 177.206 89.1895 177.093C89.1004 176.979 88.9829 176.886 88.8371 176.813C88.6994 176.74 88.5252 176.704 88.3146 176.704C88.1121 176.704 87.9379 176.74 87.7921 176.813C87.6463 176.878 87.5248 176.967 87.4276 177.081C87.3304 177.194 87.2534 177.328 87.1967 177.482C87.1481 177.628 87.1116 177.777 87.0873 177.931H89.4811ZM95.5473 175.598C95.8551 175.509 96.2521 175.428 96.7381 175.355C97.2242 175.274 97.7345 175.234 98.2692 175.234C98.8119 175.234 99.2615 175.307 99.618 175.452C99.9825 175.59 100.27 175.789 100.481 176.048C100.691 176.307 100.841 176.615 100.93 176.971C101.019 177.328 101.064 177.725 101.064 178.162V181.771H99.2534V178.381C99.2534 177.798 99.1765 177.385 99.0226 177.141C98.8686 176.898 98.5811 176.777 98.1598 176.777C98.0302 176.777 97.8925 176.785 97.7467 176.801C97.6009 176.809 97.4712 176.821 97.3578 176.838V181.771H95.5473V175.598ZM108.681 178.563C108.681 179.065 108.608 179.527 108.462 179.948C108.317 180.362 108.106 180.718 107.831 181.018C107.555 181.309 107.223 181.536 106.834 181.698C106.453 181.86 106.024 181.941 105.546 181.941C105.076 181.941 104.647 181.86 104.258 181.698C103.877 181.536 103.549 181.309 103.274 181.018C102.998 180.718 102.784 180.362 102.63 179.948C102.476 179.527 102.399 179.065 102.399 178.563C102.399 178.061 102.476 177.603 102.63 177.19C102.792 176.777 103.011 176.425 103.286 176.133C103.57 175.841 103.902 175.614 104.282 175.452C104.671 175.29 105.093 175.209 105.546 175.209C106.008 175.209 106.429 175.29 106.81 175.452C107.199 175.614 107.531 175.841 107.806 176.133C108.082 176.425 108.296 176.777 108.45 177.19C108.604 177.603 108.681 178.061 108.681 178.563ZM106.834 178.563C106.834 178.004 106.721 177.567 106.494 177.251C106.275 176.927 105.959 176.765 105.546 176.765C105.133 176.765 104.813 176.927 104.586 177.251C104.359 177.567 104.246 178.004 104.246 178.563C104.246 179.122 104.359 179.568 104.586 179.9C104.813 180.224 105.133 180.386 105.546 180.386C105.959 180.386 106.275 180.224 106.494 179.9C106.721 179.568 106.834 179.122 106.834 178.563ZM116.855 176.984C116.693 176.943 116.502 176.903 116.284 176.862C116.065 176.813 115.83 176.789 115.579 176.789C115.466 176.789 115.328 176.801 115.166 176.826C115.012 176.842 114.894 176.862 114.813 176.886V181.771H113.003V175.72C113.327 175.606 113.708 175.501 114.145 175.404C114.591 175.299 115.085 175.246 115.628 175.246C115.725 175.246 115.842 175.254 115.98 175.27C116.118 175.278 116.255 175.294 116.393 175.319C116.531 175.335 116.669 175.359 116.806 175.392C116.944 175.416 117.061 175.448 117.159 175.489L116.855 176.984ZM119.94 181.771H118.129V175.38H119.94V181.771ZM120.11 173.533C120.11 173.865 120.001 174.128 119.782 174.322C119.571 174.509 119.32 174.602 119.028 174.602C118.737 174.602 118.482 174.509 118.263 174.322C118.052 174.128 117.947 173.865 117.947 173.533C117.947 173.2 118.052 172.941 118.263 172.755C118.482 172.56 118.737 172.463 119.028 172.463C119.32 172.463 119.571 172.56 119.782 172.755C120.001 172.941 120.11 173.2 120.11 173.533ZM123.185 178.369C123.185 179.381 123.594 179.888 124.412 179.888C124.599 179.888 124.773 179.863 124.935 179.815C125.097 179.766 125.234 179.709 125.348 179.645V176.753C125.259 176.736 125.153 176.724 125.032 176.716C124.91 176.7 124.769 176.692 124.607 176.692C124.129 176.692 123.772 176.85 123.537 177.166C123.302 177.482 123.185 177.883 123.185 178.369ZM127.158 180.969C127.158 182.014 126.891 182.788 126.356 183.29C125.83 183.8 125.012 184.056 123.902 184.056C123.513 184.056 123.124 184.019 122.735 183.946C122.346 183.881 121.986 183.792 121.654 183.679L121.97 182.16C122.253 182.273 122.549 182.362 122.857 182.427C123.173 182.492 123.529 182.524 123.926 182.524C124.445 182.524 124.809 182.411 125.02 182.184C125.238 181.957 125.348 181.666 125.348 181.309V181.078C125.153 181.168 124.951 181.236 124.74 181.285C124.538 181.326 124.315 181.346 124.072 181.346C123.189 181.346 122.513 181.087 122.043 180.568C121.573 180.042 121.338 179.308 121.338 178.369C121.338 177.899 121.411 177.474 121.557 177.093C121.702 176.704 121.913 176.372 122.189 176.096C122.472 175.821 122.816 175.61 123.221 175.465C123.626 175.311 124.084 175.234 124.594 175.234C124.813 175.234 125.036 175.246 125.263 175.27C125.498 175.286 125.729 175.311 125.955 175.343C126.182 175.375 126.397 175.416 126.599 175.465C126.81 175.505 126.996 175.55 127.158 175.598V180.969ZM128.857 181.771V172.633L130.667 172.342V175.404C130.789 175.363 130.942 175.327 131.129 175.294C131.323 175.254 131.51 175.234 131.688 175.234C132.206 175.234 132.636 175.307 132.976 175.452C133.324 175.59 133.6 175.789 133.802 176.048C134.013 176.307 134.159 176.615 134.24 176.971C134.329 177.328 134.373 177.725 134.373 178.162V181.771H132.563V178.381C132.563 177.798 132.486 177.385 132.332 177.141C132.186 176.898 131.911 176.777 131.505 176.777C131.343 176.777 131.19 176.793 131.044 176.826C130.906 176.85 130.78 176.878 130.667 176.911V181.771H128.857ZM135.951 173.788L137.762 173.496V175.38H139.937V176.886H137.762V179.134C137.762 179.515 137.827 179.819 137.956 180.046C138.094 180.272 138.365 180.386 138.77 180.386C138.965 180.386 139.163 180.37 139.366 180.337C139.576 180.297 139.767 180.244 139.937 180.179L140.192 181.589C139.973 181.678 139.73 181.755 139.463 181.82C139.196 181.885 138.868 181.917 138.479 181.917C137.985 181.917 137.575 181.852 137.251 181.723C136.927 181.585 136.668 181.398 136.474 181.164C136.279 180.921 136.142 180.629 136.061 180.289C135.988 179.948 135.951 179.572 135.951 179.159V173.788ZM144.27 173.788L146.08 173.496V175.38H148.255V176.886H146.08V179.134C146.08 179.515 146.145 179.819 146.275 180.046C146.412 180.272 146.684 180.386 147.089 180.386C147.283 180.386 147.482 180.37 147.684 180.337C147.895 180.297 148.085 180.244 148.255 180.179L148.51 181.589C148.292 181.678 148.049 181.755 147.781 181.82C147.514 181.885 147.186 181.917 146.797 181.917C146.303 181.917 145.894 181.852 145.57 181.723C145.246 181.585 144.987 181.398 144.792 181.164C144.598 180.921 144.46 180.629 144.379 180.289C144.306 179.948 144.27 179.572 144.27 179.159V173.788ZM155.471 178.563C155.471 179.065 155.398 179.527 155.252 179.948C155.106 180.362 154.896 180.718 154.62 181.018C154.345 181.309 154.013 181.536 153.624 181.698C153.243 181.86 152.814 181.941 152.336 181.941C151.866 181.941 151.437 181.86 151.048 181.698C150.667 181.536 150.339 181.309 150.063 181.018C149.788 180.718 149.573 180.362 149.419 179.948C149.266 179.527 149.189 179.065 149.189 178.563C149.189 178.061 149.266 177.603 149.419 177.19C149.581 176.777 149.8 176.425 150.076 176.133C150.359 175.841 150.691 175.614 151.072 175.452C151.461 175.29 151.882 175.209 152.336 175.209C152.797 175.209 153.219 175.29 153.599 175.452C153.988 175.614 154.32 175.841 154.596 176.133C154.871 176.425 155.086 176.777 155.24 177.19C155.394 177.603 155.471 178.061 155.471 178.563ZM153.624 178.563C153.624 178.004 153.51 177.567 153.284 177.251C153.065 176.927 152.749 176.765 152.336 176.765C151.923 176.765 151.603 176.927 151.376 177.251C151.149 177.567 151.036 178.004 151.036 178.563C151.036 179.122 151.149 179.568 151.376 179.9C151.603 180.224 151.923 180.386 152.336 180.386C152.749 180.386 153.065 180.224 153.284 179.9C153.51 179.568 153.624 179.122 153.624 178.563ZM162.235 180.507C162.413 180.507 162.583 180.503 162.745 180.495C162.907 180.487 163.037 180.475 163.134 180.459V179.086C163.061 179.069 162.952 179.053 162.806 179.037C162.66 179.021 162.526 179.013 162.405 179.013C162.235 179.013 162.073 179.025 161.919 179.049C161.773 179.065 161.643 179.102 161.53 179.159C161.417 179.215 161.328 179.292 161.263 179.389C161.198 179.487 161.166 179.608 161.166 179.754C161.166 180.038 161.259 180.236 161.445 180.349C161.639 180.455 161.903 180.507 162.235 180.507ZM162.089 175.209C162.624 175.209 163.069 175.27 163.426 175.392C163.782 175.513 164.066 175.687 164.276 175.914C164.495 176.141 164.649 176.416 164.738 176.74C164.827 177.065 164.872 177.425 164.872 177.822V181.589C164.612 181.646 164.252 181.71 163.79 181.783C163.328 181.864 162.77 181.905 162.113 181.905C161.7 181.905 161.324 181.868 160.983 181.795C160.651 181.723 160.364 181.605 160.121 181.443C159.878 181.273 159.691 181.054 159.562 180.787C159.432 180.52 159.367 180.191 159.367 179.803C159.367 179.43 159.44 179.114 159.586 178.855C159.74 178.596 159.942 178.389 160.193 178.235C160.445 178.081 160.732 177.972 161.056 177.907C161.38 177.834 161.716 177.798 162.065 177.798C162.3 177.798 162.506 177.81 162.684 177.834C162.871 177.85 163.021 177.875 163.134 177.907V177.737C163.134 177.429 163.041 177.182 162.855 176.996C162.668 176.809 162.344 176.716 161.882 176.716C161.575 176.716 161.271 176.74 160.971 176.789C160.671 176.83 160.412 176.89 160.193 176.971L159.963 175.513C160.068 175.481 160.197 175.448 160.351 175.416C160.513 175.375 160.688 175.343 160.874 175.319C161.06 175.286 161.255 175.262 161.457 175.246C161.668 175.222 161.878 175.209 162.089 175.209ZM166.205 178.575C166.205 178.114 166.278 177.68 166.424 177.275C166.578 176.862 166.796 176.506 167.08 176.206C167.364 175.898 167.708 175.655 168.113 175.477C168.518 175.299 168.98 175.209 169.498 175.209C169.838 175.209 170.15 175.242 170.434 175.307C170.717 175.363 170.993 175.448 171.26 175.562L170.883 177.008C170.713 176.943 170.527 176.886 170.324 176.838C170.122 176.789 169.895 176.765 169.644 176.765C169.109 176.765 168.708 176.931 168.441 177.263C168.182 177.595 168.052 178.033 168.052 178.575C168.052 179.15 168.174 179.596 168.417 179.912C168.668 180.228 169.101 180.386 169.717 180.386C169.936 180.386 170.17 180.366 170.422 180.325C170.673 180.285 170.904 180.22 171.114 180.131L171.369 181.613C171.159 181.702 170.895 181.779 170.58 181.844C170.264 181.909 169.915 181.941 169.535 181.941C168.951 181.941 168.449 181.856 168.028 181.686C167.607 181.508 167.258 181.269 166.983 180.969C166.715 180.669 166.517 180.317 166.387 179.912C166.266 179.499 166.205 179.053 166.205 178.575ZM171.972 178.575C171.972 178.114 172.045 177.68 172.191 177.275C172.345 176.862 172.564 176.506 172.847 176.206C173.131 175.898 173.475 175.655 173.88 175.477C174.285 175.299 174.747 175.209 175.265 175.209C175.605 175.209 175.917 175.242 176.201 175.307C176.484 175.363 176.76 175.448 177.027 175.562L176.65 177.008C176.48 176.943 176.294 176.886 176.091 176.838C175.889 176.789 175.662 176.765 175.411 176.765C174.876 176.765 174.475 176.931 174.208 177.263C173.949 177.595 173.819 178.033 173.819 178.575C173.819 179.15 173.941 179.596 174.184 179.912C174.435 180.228 174.868 180.386 175.484 180.386C175.703 180.386 175.938 180.366 176.189 180.325C176.44 180.285 176.671 180.22 176.881 180.131L177.137 181.613C176.926 181.702 176.663 181.779 176.347 181.844C176.031 181.909 175.682 181.941 175.302 181.941C174.718 181.941 174.216 181.856 173.795 181.686C173.374 181.508 173.025 181.269 172.75 180.969C172.483 180.669 172.284 180.317 172.154 179.912C172.033 179.499 171.972 179.053 171.972 178.575ZM177.739 178.624C177.739 178.057 177.824 177.563 177.995 177.141C178.173 176.712 178.404 176.356 178.687 176.072C178.971 175.789 179.295 175.574 179.659 175.428C180.032 175.282 180.413 175.209 180.801 175.209C181.709 175.209 182.426 175.489 182.952 176.048C183.479 176.599 183.742 177.413 183.742 178.49C183.742 178.596 183.738 178.713 183.73 178.843C183.722 178.964 183.714 179.074 183.706 179.171H179.598C179.639 179.543 179.813 179.839 180.121 180.058C180.429 180.277 180.842 180.386 181.36 180.386C181.693 180.386 182.017 180.358 182.333 180.301C182.657 180.236 182.92 180.159 183.122 180.07L183.365 181.54C183.268 181.589 183.139 181.637 182.977 181.686C182.815 181.735 182.632 181.775 182.43 181.808C182.235 181.848 182.025 181.88 181.798 181.905C181.571 181.929 181.344 181.941 181.117 181.941C180.542 181.941 180.04 181.856 179.611 181.686C179.189 181.516 178.837 181.285 178.553 180.993C178.278 180.694 178.071 180.341 177.934 179.936C177.804 179.531 177.739 179.094 177.739 178.624ZM181.992 177.931C181.984 177.777 181.956 177.628 181.907 177.482C181.867 177.336 181.798 177.206 181.701 177.093C181.612 176.979 181.494 176.886 181.348 176.813C181.211 176.74 181.036 176.704 180.826 176.704C180.623 176.704 180.449 176.74 180.303 176.813C180.157 176.878 180.036 176.967 179.939 177.081C179.841 177.194 179.765 177.328 179.708 177.482C179.659 177.628 179.623 177.777 179.598 177.931H181.992ZM186.974 180.471C187.306 180.471 187.541 180.439 187.679 180.374C187.817 180.309 187.885 180.183 187.885 179.997C187.885 179.851 187.796 179.726 187.618 179.62C187.44 179.507 187.169 179.381 186.804 179.244C186.52 179.138 186.261 179.029 186.026 178.916C185.799 178.802 185.605 178.668 185.443 178.515C185.281 178.353 185.155 178.162 185.066 177.943C184.977 177.725 184.933 177.461 184.933 177.154C184.933 176.554 185.155 176.08 185.601 175.732C186.047 175.384 186.658 175.209 187.436 175.209C187.825 175.209 188.197 175.246 188.554 175.319C188.91 175.384 189.194 175.457 189.404 175.538L189.088 176.947C188.878 176.874 188.647 176.809 188.396 176.753C188.153 176.696 187.877 176.668 187.57 176.668C187.002 176.668 186.719 176.826 186.719 177.141C186.719 177.214 186.731 177.279 186.755 177.336C186.78 177.393 186.828 177.449 186.901 177.506C186.974 177.555 187.071 177.611 187.193 177.676C187.322 177.733 187.484 177.798 187.679 177.871C188.076 178.016 188.404 178.162 188.663 178.308C188.922 178.446 189.125 178.6 189.271 178.77C189.425 178.932 189.53 179.114 189.587 179.317C189.651 179.519 189.684 179.754 189.684 180.021C189.684 180.653 189.445 181.131 188.967 181.455C188.497 181.779 187.829 181.941 186.962 181.941C186.395 181.941 185.921 181.893 185.54 181.795C185.168 181.698 184.908 181.617 184.763 181.552L185.066 180.082C185.374 180.204 185.69 180.301 186.014 180.374C186.338 180.439 186.658 180.471 186.974 180.471ZM192.872 180.471C193.204 180.471 193.439 180.439 193.577 180.374C193.714 180.309 193.783 180.183 193.783 179.997C193.783 179.851 193.694 179.726 193.516 179.62C193.338 179.507 193.066 179.381 192.702 179.244C192.418 179.138 192.159 179.029 191.924 178.916C191.697 178.802 191.503 178.668 191.341 178.515C191.179 178.353 191.053 178.162 190.964 177.943C190.875 177.725 190.83 177.461 190.83 177.154C190.83 176.554 191.053 176.08 191.499 175.732C191.944 175.384 192.556 175.209 193.334 175.209C193.722 175.209 194.095 175.246 194.451 175.319C194.808 175.384 195.091 175.457 195.302 175.538L194.986 176.947C194.775 176.874 194.545 176.809 194.293 176.753C194.05 176.696 193.775 176.668 193.467 176.668C192.9 176.668 192.617 176.826 192.617 177.141C192.617 177.214 192.629 177.279 192.653 177.336C192.677 177.393 192.726 177.449 192.799 177.506C192.872 177.555 192.969 177.611 193.09 177.676C193.22 177.733 193.382 177.798 193.577 177.871C193.973 178.016 194.302 178.162 194.561 178.308C194.82 178.446 195.023 178.6 195.168 178.77C195.322 178.932 195.428 179.114 195.484 179.317C195.549 179.519 195.581 179.754 195.581 180.021C195.581 180.653 195.343 181.131 194.865 181.455C194.395 181.779 193.726 181.941 192.86 181.941C192.293 181.941 191.819 181.893 191.438 181.795C191.065 181.698 190.806 181.617 190.66 181.552L190.964 180.082C191.272 180.204 191.588 180.301 191.912 180.374C192.236 180.439 192.556 180.471 192.872 180.471ZM199.793 173.788L201.604 173.496V175.38H203.779V176.886H201.604V179.134C201.604 179.515 201.668 179.819 201.798 180.046C201.936 180.272 202.207 180.386 202.612 180.386C202.806 180.386 203.005 180.37 203.207 180.337C203.418 180.297 203.608 180.244 203.779 180.179L204.034 181.589C203.815 181.678 203.572 181.755 203.305 181.82C203.037 181.885 202.709 181.917 202.32 181.917C201.826 181.917 201.417 181.852 201.093 181.723C200.769 181.585 200.51 181.398 200.315 181.164C200.121 180.921 199.983 180.629 199.902 180.289C199.829 179.948 199.793 179.572 199.793 179.159V173.788ZM205.253 181.771V172.633L207.064 172.342V175.404C207.185 175.363 207.339 175.327 207.525 175.294C207.72 175.254 207.906 175.234 208.084 175.234C208.603 175.234 209.032 175.307 209.372 175.452C209.721 175.59 209.996 175.789 210.199 176.048C210.409 176.307 210.555 176.615 210.636 176.971C210.725 177.328 210.77 177.725 210.77 178.162V181.771H208.959V178.381C208.959 177.798 208.882 177.385 208.728 177.141C208.582 176.898 208.307 176.777 207.902 176.777C207.74 176.777 207.586 176.793 207.44 176.826C207.302 176.85 207.177 176.878 207.064 176.911V181.771H205.253ZM214.219 181.771H212.408V175.38H214.219V181.771ZM214.389 173.533C214.389 173.865 214.28 174.128 214.061 174.322C213.85 174.509 213.599 174.602 213.308 174.602C213.016 174.602 212.761 174.509 212.542 174.322C212.331 174.128 212.226 173.865 212.226 173.533C212.226 173.2 212.331 172.941 212.542 172.755C212.761 172.56 213.016 172.463 213.308 172.463C213.599 172.463 213.85 172.56 214.061 172.755C214.28 172.941 214.389 173.2 214.389 173.533ZM217.756 180.471C218.088 180.471 218.323 180.439 218.461 180.374C218.598 180.309 218.667 180.183 218.667 179.997C218.667 179.851 218.578 179.726 218.4 179.62C218.222 179.507 217.95 179.381 217.586 179.244C217.302 179.138 217.043 179.029 216.808 178.916C216.581 178.802 216.387 178.668 216.225 178.515C216.063 178.353 215.937 178.162 215.848 177.943C215.759 177.725 215.714 177.461 215.714 177.154C215.714 176.554 215.937 176.08 216.383 175.732C216.828 175.384 217.44 175.209 218.218 175.209C218.606 175.209 218.979 175.246 219.335 175.319C219.692 175.384 219.975 175.457 220.186 175.538L219.87 176.947C219.659 176.874 219.429 176.809 219.177 176.753C218.934 176.696 218.659 176.668 218.351 176.668C217.784 176.668 217.501 176.826 217.501 177.141C217.501 177.214 217.513 177.279 217.537 177.336C217.561 177.393 217.61 177.449 217.683 177.506C217.756 177.555 217.853 177.611 217.974 177.676C218.104 177.733 218.266 177.798 218.461 177.871C218.857 178.016 219.186 178.162 219.445 178.308C219.704 178.446 219.907 178.6 220.052 178.77C220.206 178.932 220.312 179.114 220.368 179.317C220.433 179.519 220.466 179.754 220.466 180.021C220.466 180.653 220.227 181.131 219.749 181.455C219.279 181.779 218.61 181.941 217.744 181.941C217.177 181.941 216.703 181.893 216.322 181.795C215.949 181.698 215.69 181.617 215.544 181.552L215.848 180.082C216.156 180.204 216.472 180.301 216.796 180.374C217.12 180.439 217.44 180.471 217.756 180.471ZM228.833 178.624C228.833 178.065 228.707 177.619 228.456 177.287C228.205 176.947 227.832 176.777 227.338 176.777C227.176 176.777 227.026 176.785 226.889 176.801C226.751 176.809 226.637 176.821 226.548 176.838V180.106C226.662 180.179 226.808 180.24 226.986 180.289C227.172 180.337 227.358 180.362 227.545 180.362C228.403 180.362 228.833 179.782 228.833 178.624ZM230.68 178.575C230.68 179.069 230.619 179.519 230.497 179.924C230.376 180.329 230.198 180.678 229.963 180.969C229.728 181.261 229.436 181.488 229.088 181.65C228.74 181.812 228.339 181.893 227.885 181.893C227.634 181.893 227.399 181.868 227.18 181.82C226.961 181.771 226.751 181.702 226.548 181.613V184.019H224.738V175.598C224.9 175.55 225.086 175.505 225.297 175.465C225.507 175.416 225.726 175.375 225.953 175.343C226.188 175.311 226.423 175.286 226.658 175.27C226.901 175.246 227.132 175.234 227.35 175.234C227.877 175.234 228.347 175.315 228.76 175.477C229.173 175.631 229.521 175.853 229.805 176.145C230.088 176.429 230.303 176.777 230.449 177.19C230.603 177.603 230.68 178.065 230.68 178.575ZM234.514 180.507C234.692 180.507 234.862 180.503 235.024 180.495C235.186 180.487 235.316 180.475 235.413 180.459V179.086C235.34 179.069 235.231 179.053 235.085 179.037C234.939 179.021 234.805 179.013 234.684 179.013C234.514 179.013 234.352 179.025 234.198 179.049C234.052 179.065 233.922 179.102 233.809 179.159C233.695 179.215 233.606 179.292 233.542 179.389C233.477 179.487 233.444 179.608 233.444 179.754C233.444 180.038 233.537 180.236 233.724 180.349C233.918 180.455 234.181 180.507 234.514 180.507ZM234.368 175.209C234.902 175.209 235.348 175.27 235.704 175.392C236.061 175.513 236.344 175.687 236.555 175.914C236.774 176.141 236.928 176.416 237.017 176.74C237.106 177.065 237.15 177.425 237.15 177.822V181.589C236.891 181.646 236.531 181.71 236.069 181.783C235.607 181.864 235.048 181.905 234.392 181.905C233.979 181.905 233.602 181.868 233.262 181.795C232.93 181.723 232.642 181.605 232.399 181.443C232.156 181.273 231.97 181.054 231.84 180.787C231.711 180.52 231.646 180.191 231.646 179.803C231.646 179.43 231.719 179.114 231.865 178.855C232.019 178.596 232.221 178.389 232.472 178.235C232.723 178.081 233.011 177.972 233.335 177.907C233.659 177.834 233.995 177.798 234.344 177.798C234.578 177.798 234.785 177.81 234.963 177.834C235.15 177.85 235.299 177.875 235.413 177.907V177.737C235.413 177.429 235.32 177.182 235.133 176.996C234.947 176.809 234.623 176.716 234.161 176.716C233.853 176.716 233.55 176.74 233.25 176.789C232.95 176.83 232.691 176.89 232.472 176.971L232.241 175.513C232.347 175.481 232.476 175.448 232.63 175.416C232.792 175.375 232.966 175.343 233.153 175.319C233.339 175.286 233.533 175.262 233.736 175.246C233.947 175.222 234.157 175.209 234.368 175.209ZM240.331 178.369C240.331 179.381 240.74 179.888 241.558 179.888C241.744 179.888 241.919 179.863 242.081 179.815C242.243 179.766 242.38 179.709 242.494 179.645V176.753C242.405 176.736 242.299 176.724 242.178 176.716C242.056 176.7 241.915 176.692 241.753 176.692C241.275 176.692 240.918 176.85 240.683 177.166C240.448 177.482 240.331 177.883 240.331 178.369ZM244.304 180.969C244.304 182.014 244.037 182.788 243.502 183.29C242.976 183.8 242.158 184.056 241.048 184.056C240.659 184.056 240.27 184.019 239.881 183.946C239.492 183.881 239.132 183.792 238.8 183.679L239.116 182.16C239.399 182.273 239.695 182.362 240.003 182.427C240.319 182.492 240.675 182.524 241.072 182.524C241.591 182.524 241.955 182.411 242.166 182.184C242.384 181.957 242.494 181.666 242.494 181.309V181.078C242.299 181.168 242.097 181.236 241.886 181.285C241.684 181.326 241.461 181.346 241.218 181.346C240.335 181.346 239.658 181.087 239.189 180.568C238.719 180.042 238.484 179.308 238.484 178.369C238.484 177.899 238.557 177.474 238.703 177.093C238.848 176.704 239.059 176.372 239.334 176.096C239.618 175.821 239.962 175.61 240.367 175.465C240.772 175.311 241.23 175.234 241.74 175.234C241.959 175.234 242.182 175.246 242.409 175.27C242.644 175.286 242.875 175.311 243.101 175.343C243.328 175.375 243.543 175.416 243.745 175.465C243.956 175.505 244.142 175.55 244.304 175.598V180.969ZM245.699 178.624C245.699 178.057 245.784 177.563 245.954 177.141C246.132 176.712 246.363 176.356 246.646 176.072C246.93 175.789 247.254 175.574 247.619 175.428C247.991 175.282 248.372 175.209 248.761 175.209C249.668 175.209 250.385 175.489 250.912 176.048C251.438 176.599 251.701 177.413 251.701 178.49C251.701 178.596 251.697 178.713 251.689 178.843C251.681 178.964 251.673 179.074 251.665 179.171H247.558C247.598 179.543 247.773 179.839 248.08 180.058C248.388 180.277 248.801 180.386 249.32 180.386C249.652 180.386 249.976 180.358 250.292 180.301C250.616 180.236 250.879 180.159 251.082 180.07L251.325 181.54C251.228 181.589 251.098 181.637 250.936 181.686C250.774 181.735 250.592 181.775 250.389 181.808C250.195 181.848 249.984 181.88 249.757 181.905C249.53 181.929 249.304 181.941 249.077 181.941C248.502 181.941 247.999 181.856 247.57 181.686C247.149 181.516 246.796 181.285 246.513 180.993C246.237 180.694 246.031 180.341 245.893 179.936C245.764 179.531 245.699 179.094 245.699 178.624ZM249.952 177.931C249.944 177.777 249.915 177.628 249.867 177.482C249.826 177.336 249.757 177.206 249.66 177.093C249.571 176.979 249.453 176.886 249.308 176.813C249.17 176.74 248.996 176.704 248.785 176.704C248.583 176.704 248.408 176.74 248.263 176.813C248.117 176.878 247.995 176.967 247.898 177.081C247.801 177.194 247.724 177.328 247.667 177.482C247.619 177.628 247.582 177.777 247.558 177.931H249.952ZM254.958 175.525C254.958 176.182 254.933 176.793 254.885 177.36C254.836 177.927 254.771 178.502 254.69 179.086H253.305C253.224 178.502 253.155 177.927 253.099 177.36C253.05 176.793 253.026 176.182 253.026 175.525V173.35H254.958V175.525ZM255.116 180.811C255.116 181.168 254.998 181.443 254.763 181.637C254.537 181.832 254.277 181.929 253.986 181.929C253.694 181.929 253.431 181.832 253.196 181.637C252.969 181.443 252.856 181.168 252.856 180.811C252.856 180.455 252.969 180.179 253.196 179.985C253.431 179.79 253.694 179.693 253.986 179.693C254.277 179.693 254.537 179.79 254.763 179.985C254.998 180.179 255.116 180.455 255.116 180.811Z" fill="black"/>
</svg>
