<svg width="20" height="20" viewBox="0 0 20 20" fill="none" xmlns="http://www.w3.org/2000/svg">
<g clip-path="url(#clip0_399_39300)">
<path d="M17.8576 7.8575H12.2862C12.2121 7.85249 12.1423 7.82078 12.0897 7.76824C12.0372 7.71571 12.0055 7.64591 12.0005 7.57179V2.14322C12.0214 1.86853 11.9852 1.59247 11.894 1.33251C11.8028 1.07256 11.6586 0.834348 11.4707 0.632949C11.2827 0.43155 11.055 0.271344 10.8019 0.162458C10.5489 0.0535721 10.276 -0.00162371 10.0005 0.000360197C9.71763 -0.00487362 9.43664 0.0469772 9.17429 0.152813C8.91194 0.258649 8.67362 0.416296 8.47359 0.616331C8.27355 0.816366 8.11591 1.05468 8.01007 1.31703C7.90424 1.57938 7.85239 1.86037 7.85762 2.14322V7.71465C7.85261 7.78877 7.82089 7.85857 7.76836 7.9111C7.71583 7.96363 7.64603 7.99535 7.57191 8.00036H2.14333C1.86616 7.96714 1.58508 7.99485 1.31973 8.08156C1.05438 8.16826 0.811167 8.31187 0.607088 8.50234C0.40301 8.69281 0.24299 8.92556 0.138212 9.18431C0.0334349 9.44305 -0.0135723 9.72156 0.000476258 10.0004C0.014247 10.5643 0.244432 11.1014 0.64335 11.5003C1.04227 11.8993 1.57935 12.1294 2.14333 12.1432H7.71476C7.78889 12.1482 7.85868 12.1799 7.91122 12.2325C7.96375 12.285 7.99546 12.3548 8.00048 12.4289V18.0004C7.9936 18.2649 8.04064 18.528 8.13871 18.7738C8.23679 19.0195 8.38385 19.2428 8.57096 19.4299C8.75807 19.617 8.98129 19.764 9.22705 19.8621C9.47281 19.9602 9.73596 20.0072 10.0005 20.0004C10.5645 19.9866 11.1015 19.7564 11.5005 19.3575C11.8994 18.9586 12.1296 18.4215 12.1433 17.8575V12.2861C12.1483 12.2119 12.1801 12.1422 12.2326 12.0896C12.2851 12.0371 12.3549 12.0054 12.429 12.0004H18.0005C18.5275 11.9894 19.0299 11.7752 19.4026 11.4025C19.7753 11.0297 19.9895 10.5274 20.0005 10.0004C20.0238 9.71304 19.9844 9.4241 19.8849 9.15353C19.7855 8.88297 19.6284 8.63726 19.4245 8.43343C19.2207 8.2296 18.975 8.07252 18.7044 7.97307C18.4339 7.87363 18.1449 7.83419 17.8576 7.8575Z" fill="white"/>
</g>
<defs>
<clipPath id="clip0_399_39300">
<rect width="20" height="20" fill="white"/>
</clipPath>
</defs>
</svg>
