<svg width="18" height="18" viewBox="0 0 18 18"  xmlns="http://www.w3.org/2000/svg">
<path d="M5.4 9.42857C7.14094 9.42857 8.55 7.99075 8.55 6.21429C8.55 4.43782 7.14094 3 5.4 3C3.65906 3 2.25 4.43782 2.25 6.21429C2.25 7.99075 3.65906 9.42857 5.4 9.42857ZM7.56 10.3469H7.32656C6.74156 10.6339 6.09188 10.8061 5.4 10.8061C4.70812 10.8061 4.06125 10.6339 3.47344 10.3469H3.24C1.45125 10.3469 0 11.8278 0 13.6531V14.4796C0 15.2401 0.604688 15.8571 1.35 15.8571H9.45C10.1953 15.8571 10.8 15.2401 10.8 14.4796V13.6531C10.8 11.8278 9.34875 10.3469 7.56 10.3469ZM13.5 9.42857C14.9906 9.42857 16.2 8.19452 16.2 6.67347C16.2 5.15242 14.9906 3.91837 13.5 3.91837C12.0094 3.91837 10.8 5.15242 10.8 6.67347C10.8 8.19452 12.0094 9.42857 13.5 9.42857ZM14.85 10.3469H14.7431C14.3522 10.4847 13.9387 10.5765 13.5 10.5765C13.0612 10.5765 12.6478 10.4847 12.2569 10.3469H12.15C11.5763 10.3469 11.0475 10.5163 10.5834 10.7889C11.2697 11.5437 11.7 12.5453 11.7 13.6531V14.7551C11.7 14.8182 11.6859 14.8785 11.6831 14.9388H16.65C17.3953 14.9388 18 14.3217 18 13.5612C18 11.7848 16.5909 10.3469 14.85 10.3469Z" />
</svg>
