<svg width="21" height="20" viewBox="0 0 21 20" fill="none" xmlns="http://www.w3.org/2000/svg">
<path d="M14.5574 1.03703C14.7107 1.28209 14.7919 1.56529 14.792 1.85431V18.1314C14.792 18.4067 14.7183 18.6769 14.5786 18.9141C14.4389 19.1513 14.2383 19.3467 13.9976 19.4801C13.7568 19.6136 13.4847 19.6801 13.2096 19.6729C12.9344 19.6657 12.6662 19.5849 12.4328 19.439L6.20027 15.5436H2.89801C2.32547 15.5436 1.77639 15.3161 1.37154 14.9113C0.966697 14.5064 0.739258 13.9573 0.739258 13.3848V6.60092C0.739258 6.02838 0.966697 5.47929 1.37154 5.07444C1.77639 4.6696 2.32547 4.44216 2.89801 4.44216H6.20027L12.4328 0.54695C12.6045 0.439606 12.7957 0.367138 12.9954 0.333685C13.1951 0.300232 13.3995 0.306448 13.5968 0.35198C13.7941 0.397511 13.9805 0.481466 14.1454 0.599048C14.3103 0.716631 14.4501 0.865298 14.5574 1.03703ZM17.2876 4.06655C17.4458 3.95677 17.6411 3.91432 17.8306 3.94854C18.0201 3.98276 18.1882 4.09085 18.298 4.24903C19.4708 5.93393 20.0997 7.93749 20.1002 9.99039C20.1007 12.0433 19.4727 14.0471 18.3007 15.7326C18.1894 15.8869 18.022 15.9913 17.8345 16.0235C17.647 16.0557 17.4544 16.013 17.2981 15.9046C17.1418 15.7962 17.0342 15.6308 16.9986 15.4439C16.9629 15.2571 17.0021 15.0637 17.1075 14.9054C18.111 13.463 18.6487 11.7479 18.6483 9.99079C18.6479 8.23367 18.1093 6.51884 17.1051 5.07696C16.9953 4.91877 16.9529 4.72345 16.9871 4.53397C17.0213 4.34448 17.1294 4.17635 17.2876 4.06655Z" fill="#B3BAD1"/>
</svg>
