<svg xmlns="http://www.w3.org/2000/svg" width="22" height="22" viewBox="0 0 22 22">
  <g id="组_638" data-name="组 638" transform="translate(-28 -23)">
    <path id="路径_32" data-name="路径 32" d="M11.349.409a1.393,1.393,0,0,1,1.972,0,1.313,1.313,0,0,1,.424.979,1.313,1.313,0,0,1-.424.979L7.858,7.8a.918.918,0,0,1-.438.285,1.611,1.611,0,0,1-.555.066,1.857,1.857,0,0,1-.577-.124A1.386,1.386,0,0,1,5.8,7.712L.424,2.366A1.313,1.313,0,0,1,0,1.388,1.313,1.313,0,0,1,.424.409,1.362,1.362,0,0,1,.884.1,1.4,1.4,0,0,1,1.41,0a1.461,1.461,0,0,1,.533.1A1.345,1.345,0,0,1,2.41.409L6.88,4.82Z" transform="translate(43.025 27.124) rotate(90)" />
    <rect id="矩形_210" data-name="矩形 210" width="22" height="22" transform="translate(28 23)" fill="none"/>
  </g>
</svg>
