<svg width="34" height="34" viewBox="0 0 34 34" fill="none" xmlns="http://www.w3.org/2000/svg">
<path fill-rule="evenodd" clip-rule="evenodd" d="M23.8483 4.4721C21.3942 2.88818 18.4771 2 15.3932 2C6.8993 2.01538 0 8.73501 0 17.0077C0 25.2804 6.8993 32 15.3932 32C23.2555 32 29.8233 26.2645 30.6916 18.6684C30.7705 18.0379 30.2969 17.469 29.6496 17.3921C29.0181 17.3306 28.4182 17.7765 28.3392 18.407C27.613 24.8344 22.0399 29.6781 15.3932 29.6781C8.20969 29.6781 2.36818 23.9887 2.36818 16.9923C2.36818 9.9959 8.20969 4.32189 15.3932 4.32189C18.0623 4.32189 20.5801 5.10031 22.6841 6.48916C22.9517 5.74886 23.3486 5.06794 23.8483 4.4721Z" fill="#B3BAD1"/>
<path fill-rule="evenodd" clip-rule="evenodd" d="M22.2949 8.5626C20.3993 7.08179 18.0091 6.17969 15.3972 6.17969C9.30309 6.17969 4.3457 11.008 4.3457 16.9434C4.3457 22.8788 9.30309 27.7071 15.3972 27.7071C21.4913 27.7071 26.4487 22.8788 26.4487 16.9434C26.4487 16.2109 26.3702 15.4901 26.2242 14.7957C25.5175 14.4669 24.8771 14.0244 24.3281 13.4925C23.0681 13.2443 22.107 12.15 22.107 10.8542C22.107 10.4472 22.2012 10.0656 22.3683 9.7212C22.3187 9.39587 22.293 9.06293 22.293 8.72414C22.293 8.67014 22.2936 8.61629 22.2949 8.5626ZM15.552 10.7734C16.8266 10.7734 17.8236 11.0377 18.5429 11.5662C19.2623 12.0825 19.7355 12.8138 19.9627 13.7602H20.966V15.0324H20.133C20.1457 15.1061 20.152 15.1799 20.152 15.2536V15.438C20.152 15.5609 20.1457 15.6838 20.133 15.8067C20.133 15.9173 20.1267 16.0218 20.1141 16.1201H20.966V17.3923H19.8491C19.6598 17.97 19.3569 18.4862 18.9405 18.941C18.524 19.3958 17.975 19.7522 17.2936 20.0103C16.6121 20.2684 15.7729 20.3975 14.7759 20.3975H14.4162V23.9374H11.5957V17.3923H10.5167V16.1201H11.5957V15.0324H10.5167V13.7602H11.5957V10.7734H15.552ZM16.896 17.3923H14.4162V18.1851H14.7191C15.2365 18.1851 15.6782 18.1236 16.0442 18.0007C16.4102 17.8778 16.6941 17.675 16.896 17.3923ZM17.3125 15.0324H14.4162V16.1201H17.3125C17.3251 16.0218 17.3314 15.9296 17.3314 15.8436V15.5302V15.2905C17.3314 15.2044 17.3251 15.1184 17.3125 15.0324ZM15.4195 12.9859H14.4162V13.7602H17.0096C16.8708 13.5144 16.6689 13.3239 16.4039 13.1887C16.1515 13.0535 15.8233 12.9859 15.4195 12.9859Z" fill="#B3BAD1"/>
<ellipse cx="28.9935" cy="9.51562" rx="5.00719" ry="5" fill="#DF342D"/>
</svg>
