<svg width="30" height="30" viewBox="0 0 30 30" fill="none" xmlns="http://www.w3.org/2000/svg">
<path d="M30 8.857V4.18247C30 3.55202 29.4769 3.02922 28.8462 3.02922C28.2154 3.02922 27.6923 3.55202 27.6923 4.18247V7.05792C24.9692 2.69093 20.2308 0 15 0C6.72308 0.0153767 0 6.73501 0 15.0077C0 23.2804 6.72308 30 15 30C22.6615 30 29.0615 24.2645 29.9077 16.6684C29.9846 16.0379 29.5231 15.469 28.8923 15.3921C28.2769 15.3306 27.6923 15.7765 27.6154 16.407C26.9077 22.8344 21.4769 27.6781 15 27.6781C8 27.6781 2.30769 21.9887 2.30769 14.9923C2.30769 7.9959 8 2.32189 15 2.32189C19.2 2.32189 23.0154 4.35161 25.3692 7.70374H24.2308C23.6 7.70374 23.0769 8.22655 23.0769 8.857C23.0769 9.48744 23.6 10.0103 24.2308 10.0103H28.8462C29.4769 10.0103 30 9.48744 30 8.857V8.857Z" fill="#B3BAD1"/>
<path fill-rule="evenodd" clip-rule="evenodd" d="M4.23633 14.9434C4.23633 9.00798 9.0671 4.17969 15.0056 4.17969C17.8056 4.17969 20.344 5.27144 22.2671 7.02438C21.8209 7.51644 21.544 8.14688 21.544 8.85421C21.544 10.3304 22.7594 11.5451 24.2363 11.5451H25.2209C25.5748 12.6061 25.7748 13.7594 25.7748 14.9434C25.7748 20.8788 20.944 25.7071 15.0056 25.7071C9.0671 25.7071 4.23633 20.8788 4.23633 14.9434ZM18.0718 9.56623C17.3709 9.0377 16.3993 8.77344 15.1573 8.77344H11.302V11.7602H10.2506V13.0324H11.302V14.1201H10.2506V15.3923H11.302V21.9374H14.0505V18.3975H14.401C15.3725 18.3975 16.1903 18.2684 16.8544 18.0103C17.5184 17.7522 18.0534 17.3958 18.4592 16.941C18.865 16.4862 19.1602 15.97 19.3446 15.3923H20.433V14.1201H19.6029C19.6152 14.0218 19.6213 13.9173 19.6213 13.8067C19.6336 13.6838 19.6398 13.5609 19.6398 13.438V13.2536C19.6398 13.1799 19.6336 13.1061 19.6213 13.0324H20.433V11.7602H19.4553C19.2339 10.8138 18.7728 10.0825 18.0718 9.56623ZM14.0505 15.3923H16.467C16.2702 15.675 15.9935 15.8778 15.6369 16.0007C15.2803 16.1236 14.8499 16.1851 14.3457 16.1851H14.0505V15.3923ZM14.0505 13.0324H16.8728C16.8851 13.1184 16.8913 13.2044 16.8913 13.2905V13.5302V13.8436C16.8913 13.9296 16.8851 14.0218 16.8728 14.1201H14.0505V13.0324ZM14.0505 10.9859H15.0282C15.4217 10.9859 15.7414 11.0535 15.9874 11.1887C16.2456 11.3239 16.4424 11.5144 16.5777 11.7602H14.0505V10.9859Z" fill="#B3BAD1"/>
</svg>
