<svg width="16" height="16" viewBox="0 0 16 16" fill="none" xmlns="http://www.w3.org/2000/svg">
<path fill-rule="evenodd" clip-rule="evenodd" d="M8.00004 14.6666C4.85737 14.6666 3.28604 14.6666 2.30937 13.6899C1.33337 12.7146 1.33337 11.1426 1.33337 7.99992C1.33337 4.85725 1.33337 3.28592 2.30937 2.30925C3.28671 1.33325 4.85737 1.33325 8.00004 1.33325C11.1427 1.33325 12.714 1.33325 13.69 2.30925C14.6667 3.28659 14.6667 4.85725 14.6667 7.99992C14.6667 11.1426 14.6667 12.7139 13.69 13.6899C12.7147 14.6666 11.1427 14.6666 8.00004 14.6666ZM6.13204 4.83325H6.20137C6.80071 4.83325 7.30004 4.83325 7.69604 4.88659C8.11471 4.94259 8.49271 5.06659 8.79604 5.36992C9.10004 5.67392 9.22404 6.05192 9.28004 6.46992C9.33337 6.86659 9.33337 7.36659 9.33337 7.96525V7.99992C9.33337 8.13253 9.2807 8.2597 9.18693 8.35347C9.09316 8.44724 8.96598 8.49992 8.83337 8.49992C8.70077 8.49992 8.57359 8.44724 8.47982 8.35347C8.38605 8.2597 8.33337 8.13253 8.33337 7.99992C8.33337 7.35725 8.33204 6.92525 8.28937 6.60325C8.24737 6.29592 8.17604 6.16392 8.08937 6.07725C8.00271 5.99059 7.87071 5.91925 7.56271 5.87725C7.24137 5.83459 6.80937 5.83325 6.16671 5.83325C5.52404 5.83325 5.09204 5.83459 4.77004 5.87792C4.46271 5.91925 4.33071 5.99059 4.24404 6.07792C4.15737 6.16459 4.08604 6.29592 4.04404 6.60325C4.00204 6.92525 4.00004 7.35725 4.00004 7.99992C4.00004 8.64259 4.00137 9.07459 4.04471 9.39659C4.08604 9.70392 4.15737 9.83592 4.24471 9.92259C4.33137 10.0093 4.46271 10.0806 4.77004 10.1226C5.09204 10.1653 5.52404 10.1666 6.16671 10.1666C6.29932 10.1666 6.42649 10.2193 6.52026 10.313C6.61403 10.4068 6.66671 10.534 6.66671 10.6666C6.66671 10.7992 6.61403 10.9264 6.52026 11.0201C6.42649 11.1139 6.29932 11.1666 6.16671 11.1666H6.13204C5.53337 11.1666 5.03337 11.1666 4.63737 11.1133C4.21871 11.0573 3.84071 10.9333 3.53737 10.6293C3.23337 10.3259 3.10937 9.94792 3.05337 9.52925C3.00004 9.13325 3.00004 8.63325 3.00004 8.03459V7.96525C3.00004 7.36592 3.00004 6.86659 3.05337 6.47059C3.10937 6.05192 3.23337 5.67392 3.53671 5.37059C3.84071 5.06659 4.21871 4.94259 4.63671 4.88659C5.03337 4.83325 5.53337 4.83325 6.13204 4.83325ZM11.23 5.87792C10.908 5.83459 10.476 5.83325 9.83337 5.83325C9.70077 5.83325 9.57359 5.78057 9.47982 5.68681C9.38605 5.59304 9.33337 5.46586 9.33337 5.33325C9.33337 5.20064 9.38605 5.07347 9.47982 4.9797C9.57359 4.88593 9.70077 4.83325 9.83337 4.83325H9.86804C10.4674 4.83325 10.9667 4.83325 11.3627 4.88659C11.7814 4.94259 12.1594 5.06659 12.4627 5.36992C12.7667 5.67392 12.8907 6.05192 12.9467 6.46992C13 6.86659 13 7.36659 13 7.96525V8.03459C13 8.63392 13 9.13325 12.9467 9.52925C12.8907 9.94792 12.7667 10.3259 12.4627 10.6293C12.1594 10.9333 11.7814 11.0573 11.3627 11.1133C10.9667 11.1666 10.4667 11.1666 9.86804 11.1666H9.79871C9.19937 11.1666 8.70004 11.1666 8.30404 11.1133C7.88537 11.0573 7.50737 10.9333 7.20404 10.6293C6.90004 10.3259 6.77604 9.94792 6.72004 9.52925C6.66671 9.13325 6.66671 8.63325 6.66671 8.03459V7.99992C6.66671 7.86731 6.71939 7.74013 6.81315 7.64637C6.90692 7.5526 7.0341 7.49992 7.16671 7.49992C7.29932 7.49992 7.42649 7.5526 7.52026 7.64637C7.61403 7.74013 7.66671 7.86731 7.66671 7.99992C7.66671 8.64259 7.66804 9.07459 7.71071 9.39659C7.75271 9.70392 7.82404 9.83592 7.91071 9.92259C7.99737 10.0093 8.12937 10.0806 8.43737 10.1226C8.75871 10.1653 9.19071 10.1666 9.83337 10.1666C10.476 10.1666 10.908 10.1653 11.23 10.1226C11.5374 10.0806 11.6694 10.0093 11.756 9.92259C11.8427 9.83592 11.914 9.70392 11.956 9.39592C11.9987 9.07459 12 8.64259 12 7.99992C12 7.35725 11.9987 6.92525 11.9554 6.60325C11.914 6.29592 11.8427 6.16392 11.7554 6.07725C11.6687 5.99059 11.5374 5.91925 11.23 5.87725V5.87792Z" fill="#115BCA"/>
</svg>
