<svg width="18" height="18" viewBox="0 0 18 18"  xmlns="http://www.w3.org/2000/svg">
<path fill-rule="evenodd" clip-rule="evenodd" d="M18 9C18 13.9706 13.9706 18 9 18C4.02944 18 0 13.9706 0 9C0 4.02944 4.02944 0 9 0C13.9706 0 18 4.02944 18 9ZM9 16.5C13.1421 16.5 16.5 13.1421 16.5 9C16.5 4.85786 13.1421 1.5 9 1.5C4.85786 1.5 1.5 4.85786 1.5 9C1.5 13.1421 4.85786 16.5 9 16.5ZM9 17C13.4183 17 17 13.4183 17 9C17 4.58172 13.4183 1 9 1C4.58172 1 1 4.58172 1 9C1 13.4183 4.58172 17 9 17ZM11.7909 9.89293C11.4927 9.45918 11.1087 9.15194 10.6388 8.97121V8.9441C10.937 8.81759 11.2035 8.5736 11.4385 8.21214C11.6734 7.85069 11.7909 7.44405 11.7909 6.99222C11.7909 6.26027 11.5243 5.67742 10.9912 5.24367C10.458 4.80992 9.76222 4.59304 8.90375 4.59304C8.06336 4.59304 7.37659 4.8054 6.84344 5.23011C6.31029 5.65483 6.04371 6.2422 6.04371 6.99222C6.04371 7.44405 6.15667 7.85069 6.38258 8.21214C6.61753 8.5736 6.8841 8.82211 7.18231 8.95765V8.97121C6.71241 9.16097 6.32836 9.46821 6.03016 9.89293C5.73195 10.3176 5.58285 10.8327 5.58285 11.4382C5.58285 12.2243 5.89461 12.8659 6.51813 13.3629C7.14164 13.8509 7.93685 14.0949 8.90375 14.0949C9.86162 14.0949 10.6568 13.8554 11.2894 13.3765C11.931 12.8885 12.2518 12.2424 12.2518 11.4382C12.2518 10.8327 12.0981 10.3176 11.7909 9.89293ZM8.90375 5.97562C9.30136 5.97562 9.63119 6.08858 9.89325 6.31449C10.1553 6.53136 10.2863 6.80697 10.2863 7.14132C10.2863 7.48471 10.1553 7.76484 9.89325 7.98171C9.64022 8.18955 9.31039 8.29347 8.90375 8.29347C8.49711 8.29347 8.16728 8.18955 7.91426 7.98171C7.66124 7.76484 7.53473 7.48471 7.53473 7.14132C7.53473 6.82505 7.66124 6.55395 7.91426 6.32804C8.17632 6.09309 8.50615 5.97562 8.90375 5.97562ZM10.1508 12.265C9.82547 12.5542 9.40979 12.6987 8.90375 12.6987C8.42482 12.6987 8.01818 12.5587 7.68383 12.2786C7.34948 11.9984 7.18231 11.6505 7.18231 11.2348C7.18231 10.7921 7.34044 10.4306 7.65672 10.1505C7.973 9.87034 8.38867 9.73027 8.90375 9.73027C9.41883 9.73027 9.83451 9.87034 10.1508 10.1505C10.4761 10.4306 10.6388 10.7921 10.6388 11.2348C10.6388 11.6324 10.4761 11.9758 10.1508 12.265Z" />
</svg>
