<svg width="18" height="18" viewBox="0 0 18 18"  xmlns="http://www.w3.org/2000/svg">
<g clip-path="url(#clip0_138_62423)">
<mask id="mask0_138_62423" style="mask-type:luminance" maskUnits="userSpaceOnUse" x="0" y="0" width="18" height="18">
<path d="M18 0H0V18H18V0Z" fill="white"/>
</mask>
<g mask="url(#mask0_138_62423)">
<path d="M7.18485 0C6.78456 0.231094 6.71984 0.400312 6.8651 0.838594C6.98303 1.19391 7.10191 1.54922 7.22368 1.91672L5.64171 2.88563C4.88205 3.35 4.12239 3.815 3.36273 4.28063C2.99312 4.5075 2.92649 4.78078 3.15372 5.13844C3.47938 5.65031 3.80568 6.16141 4.13262 6.67172C4.34546 7.00313 4.57604 7.0725 4.93798 6.91313C5.5722 6.63188 6.21841 6.38438 6.9231 6.36C7.18454 6.35294 7.44568 6.38214 7.69874 6.44672C7.9672 6.51469 8.03048 6.71016 7.86461 6.93375C7.7179 7.13252 7.54784 7.31376 7.3579 7.47375C6.87564 7.87594 6.37181 8.25328 5.88668 8.65266C5.11631 9.28641 4.43271 9.99422 4.00366 10.9027C3.89628 11.1291 3.81479 11.3672 3.71076 11.6269C3.80664 11.6316 3.86656 11.6367 3.9284 11.6367C7.09712 11.6367 10.2658 11.6381 13.4346 11.6409C13.5755 11.6409 13.6426 11.5983 13.7054 11.4773C14.0803 10.7588 14.5012 10.0613 14.8391 9.32672C15.6186 7.63406 15.622 5.93391 14.7433 4.26703C14.1728 3.18234 13.2984 2.36813 12.2629 1.71281C10.8411 0.812344 9.26872 0.302344 7.60814 0.0351563C7.56213 0.0259143 7.51668 0.0141775 7.472 0H7.18485Z" />
<path d="M15.5996 18.0009C15.9088 17.8602 16.0119 17.6202 15.9989 17.2926C15.9802 16.8205 15.9941 16.3471 15.9941 15.8652H2.01726C2.00837 15.8959 2.00259 15.9273 2 15.959C2 16.4568 2 16.9546 2 17.4524C2 17.7299 2.16587 17.8865 2.39549 18.0027L15.5996 18.0009Z" />
<path d="M14.8618 14.7881C14.8618 14.2406 14.8714 13.703 14.8579 13.1653C14.8512 12.9112 14.623 12.7139 14.3618 12.6933C14.3086 12.6891 14.2544 12.6933 14.2007 12.6933H3.69072C3.21134 12.6933 3.02246 12.8808 3.02246 13.3556V14.79L14.8618 14.7881Z" />
</g>
</g>
<defs>
<clipPath id="clip0_138_62423">
<rect width="18" height="18" fill="white"/>
</clipPath>
</defs>
</svg>
