<svg width="8" height="8" viewBox="0 0 8 8" fill="none" xmlns="http://www.w3.org/2000/svg">
<path d="M6.96775 0H7.18643C7.20054 0.00571559 7.21502 0.0105002 7.22976 0.0143231C7.35892 0.0346771 7.48207 0.0829625 7.59058 0.1558C7.69909 0.228637 7.79034 0.324266 7.85795 0.435994C8.09327 0.810971 8.03185 1.27131 7.7047 1.59903C6.92834 2.37648 6.1514 3.15336 5.37389 3.92967C5.35006 3.94985 5.32441 3.96778 5.29727 3.98324V4.01676C5.3243 4.03239 5.34994 4.05031 5.37389 4.07033C6.14203 4.83747 6.90978 5.60509 7.67715 6.37319C7.70843 6.40441 7.73971 6.43592 7.76899 6.46915C8.21466 6.97361 7.97561 7.78515 7.32848 7.96505C7.28141 7.97794 7.23378 7.98854 7.18499 8H6.96775C6.66585 7.95674 6.45694 7.76825 6.25204 7.56143C5.52685 6.82837 4.79535 6.10048 4.0673 5.37143C4.04809 5.3465 4.03209 5.31926 4.01966 5.29036C3.98525 5.3152 3.95394 5.34405 3.92639 5.3763C3.15366 6.14994 2.38065 6.92338 1.60735 7.69664C1.49233 7.81801 1.34823 7.90812 1.18865 7.95846C1.13671 7.97393 1.08362 7.9851 1.0311 7.99828H0.812426C0.800999 7.9928 0.789086 7.98839 0.776841 7.9851C0.412096 7.91693 0.169602 7.70609 0.046203 7.35775C0.0264017 7.30046 0.0152097 7.24317 0 7.18588V6.96702C0.0444811 6.66251 0.235319 6.45139 0.444237 6.24543C1.1766 5.52412 1.89977 4.79421 2.62783 4.06775C2.6527 4.04858 2.67989 4.0326 2.70876 4.0202L2.69498 3.98553C2.67131 3.96931 2.64869 3.95161 2.62726 3.93254C1.85147 3.15795 1.07635 2.38307 0.301898 1.60791C0.180312 1.49281 0.0901356 1.34867 0.0398895 1.1891C0.0246798 1.13725 0.0132008 1.08397 0 1.03126V0.812404C0.00580263 0.798371 0.010504 0.783909 0.0140618 0.769148C0.0671521 0.475525 0.224127 0.252945 0.485849 0.114584C0.58629 0.0610162 0.703089 0.0378129 0.812426 0H1.0311C1.33271 0.0435421 1.54192 0.231461 1.74682 0.438572C2.472 1.17163 3.2035 1.89952 3.93156 2.62828C3.95076 2.65321 3.96677 2.68045 3.97919 2.70935L4.01392 2.69531C4.03007 2.67169 4.04771 2.64911 4.06672 2.62771C4.84155 1.85216 5.61639 1.07671 6.39122 0.301357C6.5063 0.180002 6.65052 0.089981 6.8102 0.0398181C6.86214 0.0246357 6.9161 0.0131772 6.96775 0Z" fill="#B3BAD1"/>
</svg>
