<svg width="18" height="18" viewBox="0 0 18 18"  xmlns="http://www.w3.org/2000/svg">
<path d="M2.21783 17.9985C2.11736 17.9689 2.01388 17.9445 1.91642 17.9092C1.59652 17.7957 1.3312 17.578 1.16923 17.2962C1.00726 17.0144 0.959529 16.6873 1.0348 16.3753C1.74713 13.3454 4.46484 10.9664 7.74567 10.5043C8.03351 10.4634 8.32387 10.4404 8.61925 10.4103C8.28569 10.3263 7.95515 10.2694 7.64219 10.1605C5.92817 9.57664 4.92197 8.11641 5.06363 6.46877C5.21434 4.70982 6.54355 3.36889 8.35652 3.08238C10.804 2.69584 12.6506 4.40923 12.9279 6.22125C13.0053 6.72142 12.9695 7.23121 12.8229 7.71765C12.7837 7.84916 12.7224 7.89143 12.5788 7.89049C11.8187 7.88392 11.0587 7.88533 10.2986 7.89049C9.94696 7.89049 9.741 8.0314 9.67669 8.29301C9.59783 8.61662 9.80329 8.91064 10.1584 8.93459C10.5136 8.95854 10.8743 8.94633 11.232 8.94821C11.5258 8.94821 11.8192 8.94821 12.1568 8.94821C11.8338 9.35803 11.4215 9.69916 10.9471 9.9491C10.477 10.192 9.95898 10.343 9.42452 10.3929C9.91179 10.4648 10.379 10.508 10.8336 10.6048C13.0474 11.0745 14.7263 12.2524 15.9339 14.0301C16.4123 14.7334 16.7579 15.5082 16.9557 16.3208C17.1521 17.1239 16.6814 17.8026 15.8164 17.9703C15.793 17.9775 15.7704 17.987 15.7491 17.9985H2.21783Z" />
<path d="M3.71972 3.9325H4.85251C3.6082 5.78961 3.61021 7.63592 4.83694 9.49351C4.83694 9.49351 4.82137 9.50995 4.8063 9.50995C4.34816 9.50995 3.88851 9.52732 3.43187 9.49867C2.54724 9.44278 1.84847 8.84112 1.80176 8.02059C1.75152 7.139 1.7892 6.25225 1.80176 5.36831C1.81308 5.21627 1.85645 5.06783 1.92935 4.93151C2.1333 4.50504 2.33726 4.0781 2.56934 3.66337C3.72876 1.59678 5.55128 0.37186 8.02685 0.0684472C10.4447 -0.22839 12.5435 0.439964 14.256 2.07915C14.9487 2.74139 15.439 3.52952 15.7881 4.39467C15.8304 4.4982 15.8838 4.59749 15.9474 4.69103C16.137 4.96936 16.2367 5.29289 16.2347 5.62288C16.2347 6.34384 16.2347 7.06432 16.2347 7.7834C16.2317 8.7486 15.5435 9.4456 14.5132 9.50243C14.0651 9.52732 13.6145 9.50666 13.1624 9.50666C14.4021 7.64297 14.4016 5.79619 13.1624 3.93814H14.3037C13.8507 3.16229 13.206 2.4989 12.4232 2.00323C11.6404 1.50756 10.7423 1.19397 9.80366 1.08859C7.02316 0.772027 4.74099 2.12846 3.71972 3.9325Z" />
</svg>
