<svg width="24" height="24" viewBox="0 0 24 24"  xmlns="http://www.w3.org/2000/svg">
<g clip-path="url(#clip0_549_59522)">
<path d="M5.5519 5.93296H18.409C18.5592 5.93289 18.7093 5.94242 18.8582 5.96149C18.8077 5.60701 18.686 5.26642 18.5003 4.96027C18.3146 4.65412 18.0689 4.38874 17.7779 4.18013C17.4869 3.97153 17.1566 3.82402 16.8071 3.74649C16.4575 3.66897 16.0959 3.66304 15.744 3.72907L5.1702 5.53437H5.15815C4.49443 5.6613 3.9042 6.03684 3.50801 6.58429C4.1049 6.15971 4.81942 5.93201 5.5519 5.93296ZM18.409 6.89729H5.5519C4.87014 6.89804 4.21652 7.1692 3.73444 7.6513C3.25237 8.1334 2.98121 8.78705 2.98047 9.46884V17.1835C2.98121 17.8653 3.25237 18.5189 3.73444 19.001C4.21652 19.4831 4.87014 19.7543 5.5519 19.755H18.409C19.0908 19.7543 19.7444 19.4831 20.2265 19.001C20.7086 18.5189 20.9797 17.8653 20.9805 17.1835V9.46884C20.9797 8.78705 20.7086 8.1334 20.2265 7.6513C19.7444 7.1692 19.0908 6.89804 18.409 6.89729ZM16.5006 14.6119C16.2463 14.6119 15.9977 14.5365 15.7863 14.3952C15.5748 14.254 15.41 14.0531 15.3127 13.8182C15.2154 13.5833 15.1899 13.3247 15.2395 13.0753C15.2892 12.8259 15.4116 12.5968 15.5914 12.417C15.7712 12.2372 16.0003 12.1147 16.2497 12.0651C16.4991 12.0155 16.7576 12.0409 16.9926 12.1383C17.2275 12.2356 17.4283 12.4004 17.5696 12.6118C17.7109 12.8233 17.7863 13.0719 17.7863 13.3262C17.7863 13.6672 17.6508 13.9942 17.4097 14.2353C17.1686 14.4765 16.8416 14.6119 16.5006 14.6119Z" />
</g>
<defs>
<clipPath id="clip0_549_59522">
<rect width="18" height="18" fill="white" transform="translate(3 3)"/>
</clipPath>
</defs>
</svg>
