<svg width="24" height="24" viewBox="0 0 24 24" fill="none" xmlns="http://www.w3.org/2000/svg">
<g clip-path="url(#clip0_490_35422)">
<g filter="url(#filter0_d_490_35422)">
<path d="M12.5354 18.3531L12.0017 18.0153L11.4674 18.3521L6.29423 21.6129L6.29243 21.614C6.23437 21.6508 6.19548 21.6537 6.17087 21.652C6.1401 21.6499 6.09875 21.6372 6.05561 21.6044C5.97122 21.5402 5.91109 21.4256 5.9463 21.2672L7.3174 15.1112L7.44383 14.5435L7.013 14.1529L2.43816 10.0052L2.43782 10.0049C2.34374 9.91965 2.30827 9.79272 2.35185 9.65299C2.37307 9.58494 2.40825 9.53609 2.44146 9.50725C2.46972 9.48271 2.50446 9.46461 2.55996 9.46L2.55996 9.46001L2.56549 9.45952L8.58632 8.92475L9.19471 8.87071L9.42443 8.30477L11.7804 2.50051L11.7804 2.50052L11.7819 2.49673C11.8123 2.42099 11.8502 2.38572 11.879 2.36685C11.9121 2.34524 11.9542 2.33203 12.0007 2.33203C12.0471 2.33203 12.0892 2.34524 12.1223 2.36685C12.1511 2.38572 12.189 2.42099 12.2194 2.49673L12.2206 2.49979L14.5766 8.31709L14.8061 8.8837L15.415 8.93779L21.4358 9.47256L21.4358 9.47258L21.4413 9.47304C21.4968 9.47766 21.5316 9.49575 21.5598 9.5203C21.5931 9.54914 21.6282 9.59798 21.6495 9.66604C21.693 9.80577 21.6576 9.93269 21.5635 10.0179L21.5631 10.0182L16.9883 14.166L16.5575 14.5566L16.6839 15.1242L18.055 21.2802C18.055 21.2802 18.055 21.2802 18.055 21.2802C18.0902 21.4386 18.0301 21.5532 17.9457 21.6174C17.9026 21.6503 17.8612 21.6629 17.8304 21.665C17.8058 21.6667 17.7669 21.6639 17.7089 21.6271L17.7086 21.6269L12.5354 18.3531Z" stroke="white" stroke-width="2" shape-rendering="crispEdges"/>
</g>
</g>
<defs>
<filter id="filter0_d_490_35422" x="-2.66602" y="-2.66797" width="29.334" height="29.332" filterUnits="userSpaceOnUse" color-interpolation-filters="sRGB">
<feFlood flood-opacity="0" result="BackgroundImageFix"/>
<feColorMatrix in="SourceAlpha" type="matrix" values="0 0 0 0 0 0 0 0 0 0 0 0 0 0 0 0 0 0 127 0" result="hardAlpha"/>
<feOffset/>
<feGaussianBlur stdDeviation="2"/>
<feComposite in2="hardAlpha" operator="out"/>
<feColorMatrix type="matrix" values="0 0 0 0 0 0 0 0 0 0 0 0 0 0 0 0 0 0 0.15 0"/>
<feBlend mode="normal" in2="BackgroundImageFix" result="effect1_dropShadow_490_35422"/>
<feBlend mode="normal" in="SourceGraphic" in2="effect1_dropShadow_490_35422" result="shape"/>
</filter>
<clipPath id="clip0_490_35422">
<rect width="24" height="24" fill="white"/>
</clipPath>
</defs>
</svg>
