<svg width="24" height="24" viewBox="0 0 24 24" fill="none" xmlns="http://www.w3.org/2000/svg">
<g clip-path="url(#clip0_490_35423)">
<g filter="url(#filter0_d_490_35423)">
<path d="M12.0007 19.1981L17.1738 22.4719C18.1212 23.0719 19.2805 22.185 19.0312 21.0632L17.66 14.9068L22.2348 10.7591C23.07 10.0025 22.6213 8.56779 21.5243 8.47648L15.5035 7.94171L13.1475 2.12441C12.7236 1.0679 11.2777 1.0679 10.8538 2.12441L8.49785 7.92867L2.47702 8.46344C1.38005 8.55474 0.931296 9.9895 1.76648 10.746L6.34132 14.8938L4.97012 21.0502C4.72081 22.1719 5.8801 23.0589 6.82747 22.4589L12.0007 19.1981Z" fill="white"/>
</g>
</g>
<defs>
<filter id="filter0_d_490_35423" x="-2.66602" y="-2.66797" width="29.334" height="29.332" filterUnits="userSpaceOnUse" color-interpolation-filters="sRGB">
<feFlood flood-opacity="0" result="BackgroundImageFix"/>
<feColorMatrix in="SourceAlpha" type="matrix" values="0 0 0 0 0 0 0 0 0 0 0 0 0 0 0 0 0 0 127 0" result="hardAlpha"/>
<feOffset/>
<feGaussianBlur stdDeviation="2"/>
<feComposite in2="hardAlpha" operator="out"/>
<feColorMatrix type="matrix" values="0 0 0 0 0 0 0 0 0 0 0 0 0 0 0 0 0 0 0.15 0"/>
<feBlend mode="normal" in2="BackgroundImageFix" result="effect1_dropShadow_490_35423"/>
<feBlend mode="normal" in="SourceGraphic" in2="effect1_dropShadow_490_35423" result="shape"/>
</filter>
<clipPath id="clip0_490_35423">
<rect width="24" height="24" fill="white"/>
</clipPath>
</defs>
</svg>
