<svg width="18" height="18" viewBox="0 0 18 18"  xmlns="http://www.w3.org/2000/svg">
<g clip-path="url(#clip0_138_62405)">
<path fill-rule="evenodd" clip-rule="evenodd" d="M11.6741 17.2347C12.3691 15.9305 13.1973 13.7097 12.0403 12.752C10.9739 12.9023 10.1115 12.9032 9.40983 12.7554C7.64296 12.3832 7.08369 11.0697 7.57014 9.38761C5.19294 11.426 5.09258 14.4315 5.97384 17.3257C6.11698 17.7959 5.55614 18.1809 5.12184 17.9093C4.97394 17.8168 1.5 15.6046 1.5 12.198C1.5 6.6171 8.24318 6.37698 8.24318 0.527892C8.24318 0.0810905 8.80114 -0.163453 9.16629 0.12394C11.8609 2.24483 16.7641 7.34314 16.4889 12.0322C16.3525 14.3568 15.0065 16.3341 12.4884 17.9093C12.0121 18.2071 11.4173 17.7166 11.6741 17.2347Z" />
</g>
<defs>
<clipPath id="clip0_138_62405">
<rect width="18" height="18" fill="white"/>
</clipPath>
</defs>
</svg>
