<svg width="20" height="20" viewBox="0 0 20 20" fill="none" xmlns="http://www.w3.org/2000/svg">
<g clip-path="url(#clip0_365_28071)">
<path d="M2.04015 4.00376H0V2.00126H2.02712C2.06088 1.79054 2.1052 1.58168 2.1599 1.37548C2.28421 0.985816 2.52589 0.644944 2.8513 0.400315C3.17672 0.155687 3.56966 0.0194751 3.97543 0.0106441C4.66541 -0.00500042 5.356 -0.00124572 6.04598 0.00814101C7.10638 0.028166 7.91363 0.798504 8.0036 1.8542C8.0036 1.89175 8.01291 1.92867 8.02097 1.98937H19.9963V3.995H8.02097C8.00422 4.1358 7.99864 4.25157 7.9763 4.36421C7.8007 5.26471 7.10328 5.92429 6.1738 5.98123C5.41507 6.02911 4.65412 6.02911 3.89539 5.98123C2.89951 5.91865 2.20271 5.20151 2.06993 4.20213C2.06186 4.14018 2.05193 4.07885 2.04015 4.00376Z" fill="#B3BAD1"/>
<path d="M8.05324 17.9999C7.98623 18.2677 7.95582 18.5118 7.86709 18.7301C7.5432 19.5049 6.95747 19.9467 6.11795 19.9817C5.4286 20.0105 4.73738 19.9999 4.04741 19.9886C2.99879 19.9723 2.21512 19.2577 2.07365 18.2082C2.06558 18.1457 2.05442 18.0862 2.04077 18.0005H0V16.0024H1.96693C2.11336 15.6106 2.19837 15.2383 2.38265 14.9248C2.53733 14.6505 2.76043 14.4217 3.02981 14.2613C3.29919 14.1008 3.6055 14.0141 3.91834 14.0099C4.66292 13.9817 5.4075 13.9805 6.15208 14.0099C7.10576 14.0462 7.96885 14.8296 8.01849 15.9867H20V18.0011L8.05324 17.9999Z" fill="#B3BAD1"/>
<path d="M20 10.9963H14.984C14.9573 11.1622 14.9437 11.3092 14.9089 11.4525C14.8081 11.8904 14.5636 12.281 14.215 12.5612C13.8664 12.8413 13.4342 12.9944 12.9886 12.9957C12.3364 13.0032 11.6855 13.0014 11.0334 12.9957C9.94137 12.9882 9.11798 12.2241 9.01623 11.1303C9.01312 11.0933 9.00382 11.0564 8.99327 10.997H0V9.00699H8.98272C9.02305 8.79234 9.04477 8.60524 9.09441 8.42876C9.21415 8.0208 9.46023 7.6622 9.79663 7.40546C10.133 7.14873 10.5421 7.00733 10.9639 7.00198C11.6309 6.99322 12.2986 6.9951 12.9656 7.00198C14.0018 7.01137 14.8115 7.73978 14.948 8.77607C14.9567 8.84491 14.9698 8.91312 14.984 9.00198H20V10.9963Z" fill="#B3BAD1"/>
</g>
<defs>
<clipPath id="clip0_365_28071">
<rect width="20" height="20" fill="white"/>
</clipPath>
</defs>
</svg>
