<svg width="18" height="18" viewBox="0 0 18 18"  xmlns="http://www.w3.org/2000/svg">
<g clip-path="url(#clip0_138_62409)">
<mask id="mask0_138_62409" style="mask-type:luminance" maskUnits="userSpaceOnUse" x="0" y="0" width="18" height="18">
<path d="M18 0H0V18H18V0Z" fill="white"/>
</mask>
<g mask="url(#mask0_138_62409)">
<path d="M4.65243 18.0008C3.16392 17.0675 1.89128 15.9064 0.999682 14.3802C-0.334903 12.0946 -0.304401 9.76862 0.918968 7.45112C1.65947 6.04769 2.78007 4.98831 4.0574 4.07237C5.13671 3.298 6.34741 2.9005 7.64633 2.72097C9.23807 2.49972 10.8082 2.56347 12.3483 3.058C12.4577 3.09316 12.5647 3.13441 12.6876 3.178C12.399 3.35659 12.1193 3.51409 11.8556 3.69362C10.8049 4.41456 10.0865 5.37034 9.83215 6.63925C9.64445 7.57675 9.74675 8.50441 10.0077 9.41659C10.2225 10.1714 10.5369 10.8942 10.9424 11.5663C10.9593 11.5939 10.9711 11.6249 11.0025 11.6914C10.3925 11.563 9.81573 11.45 9.24182 11.3164C8.16391 11.074 7.10487 10.7545 6.07289 10.3602C4.552 9.77003 3.2498 10.1038 2.14938 11.2738C1.87063 11.5705 1.64726 11.9192 1.39856 12.2436C1.36916 12.2752 1.35228 12.3164 1.35107 12.3596C1.34986 12.4027 1.3644 12.4448 1.39199 12.478C2.22868 13.7647 3.41216 14.3408 4.93305 14.1721C5.38119 14.1224 5.82465 13.9846 6.25871 13.8603C6.63084 13.753 6.93821 13.9124 7.00672 14.2907C7.12169 14.9291 7.17565 15.5694 7.01188 16.2074C6.75754 17.1978 6.12873 17.7894 5.11841 17.9689C5.09094 17.9768 5.06424 17.9872 5.03863 17.9999L4.65243 18.0008Z" />
<path d="M18.0004 10.8284C17.8995 11.0581 17.7075 11.1706 17.4842 11.2634C16.4096 11.7116 15.2829 11.8916 14.1285 11.9108C13.5855 11.9202 13.0412 11.8808 12.4982 11.8559C12.4652 11.854 12.433 11.8455 12.4033 11.831C12.3737 11.8164 12.3472 11.796 12.3256 11.7711C11.7479 10.9274 11.2566 10.04 10.9924 9.04157C10.7704 8.20157 10.6916 7.35782 10.9492 6.51032C11.2275 5.59579 11.8356 4.94001 12.6282 4.44782C13.0036 4.21345 13.3992 4.00579 13.7929 3.80001C13.8497 3.77048 13.9609 3.79579 14.0233 3.83423C15.1496 4.52657 16.0163 5.47063 16.6691 6.61532C17.3471 7.80407 17.7394 9.09032 17.9652 10.4328C17.9742 10.4718 17.9858 10.5102 17.9999 10.5477L18.0004 10.8284ZM14.0675 7.8411C14.2062 7.84185 14.3396 7.7876 14.4384 7.69023C14.5372 7.59287 14.5933 7.46035 14.5944 7.32173C14.5958 7.21737 14.5661 7.11495 14.5091 7.02748C14.4521 6.94001 14.3704 6.87145 14.2743 6.8305C14.1782 6.78955 14.072 6.77806 13.9694 6.7975C13.8667 6.81693 13.7722 6.86641 13.6977 6.93965C13.6233 7.01289 13.5723 7.10658 13.5513 7.20881C13.5303 7.31105 13.5402 7.41722 13.5797 7.51384C13.6192 7.61045 13.6866 7.69315 13.7733 7.75142C13.86 7.80969 13.962 7.84091 14.0665 7.8411H14.0675Z" />
<path d="M7.35668 0C7.73209 0.0825 8.11548 0.140625 8.48291 0.252656C9.23045 0.487031 9.85457 0.924844 10.3858 1.49719C10.4041 1.51688 10.4196 1.53937 10.4613 1.59094C10.3243 1.58391 10.2225 1.57969 10.1202 1.57266C8.78649 1.48462 7.44728 1.60963 6.15302 1.94297C6.07204 1.96602 5.98541 1.95869 5.90947 1.92234C5.55553 1.70433 5.16899 1.54418 4.76447 1.44797C4.44866 1.36734 4.29005 1.19766 4.2816 0.932344C4.27315 0.67875 4.41815 0.473906 4.72411 0.397031C5.26517 0.25875 5.81468 0.150469 6.36184 0.0304687C6.40126 0.0215625 6.43974 0.0103125 6.47869 0H7.35668Z" />
</g>
</g>
<defs>
<clipPath id="clip0_138_62409">
<rect width="18" height="18" fill="white"/>
</clipPath>
</defs>
</svg>
