<svg width="40" height="40" viewBox="0 0 40 40" fill="none" xmlns="http://www.w3.org/2000/svg">
<path d="M35.09 17.1171C35.2766 18.191 35.3696 19.2791 35.368 20.3691C35.368 25.2371 33.628 29.3531 30.6 32.1391H30.604C27.956 34.5851 24.316 36.0011 20 36.0011C15.7565 36.0011 11.6869 34.3154 8.68629 31.3148C5.68571 28.3142 4 24.2445 4 20.0011C4 15.7576 5.68571 11.6879 8.68629 8.68735C11.6869 5.68677 15.7565 4.00106 20 4.00106C23.9719 3.95454 27.8077 5.44672 30.704 8.16506L26.136 12.7331C24.4848 11.159 22.281 10.297 20 10.3331C15.826 10.3331 12.28 13.1491 11.016 16.9411C10.3458 18.9281 10.3458 21.08 11.016 23.0671H11.022C12.292 26.8531 15.832 29.6691 20.006 29.6691C22.162 29.6691 24.014 29.1171 25.45 28.1411H25.444C26.2778 27.5887 26.9911 26.8731 27.5407 26.0374C28.0903 25.2018 28.465 24.2635 28.642 23.2791H20V17.1191L35.09 17.1171Z" fill="#115BCA"/>
</svg>
