<svg width="40" height="40" viewBox="0 0 40 40" fill="none" xmlns="http://www.w3.org/2000/svg">
<g clip-path="url(#clip0_251_69599)">
<path d="M28.8001 19.8037C28.8001 19.0494 28.7402 18.499 28.6105 17.9282H20.1797V21.3327H25.1284C25.0287 22.1787 24.4899 23.4528 23.2926 24.309L23.2758 24.423L25.9415 26.5327L26.1262 26.5515C27.8223 24.9512 28.8001 22.5966 28.8001 19.8037" fill="#5284ED"/>
<path d="M20.178 28.7737C22.6025 28.7737 24.6378 27.9582 26.1245 26.5516L23.2909 24.3091C22.5327 24.8493 21.515 25.2264 20.178 25.2264C17.8035 25.2264 15.788 23.6262 15.0696 21.4143L14.9643 21.4234L12.1925 23.6149L12.1562 23.7179C13.6329 26.7146 16.666 28.7737 20.178 28.7737Z" fill="#56A75C"/>
<path d="M15.0704 21.4143C14.8808 20.8435 14.7711 20.2318 14.7711 19.5999C14.7711 18.9679 14.8808 18.3563 15.0604 17.7855L15.0554 17.664L12.2488 15.4373L12.157 15.4819C11.5484 16.7254 11.1992 18.1219 11.1992 19.5999C11.1992 21.0779 11.5484 22.4743 12.157 23.7178L15.0704 21.4143" fill="#F2BF41"/>
<path d="M20.178 13.9734C21.8642 13.9734 23.0016 14.7175 23.6501 15.3393L26.1844 12.8114C24.6279 11.3335 22.6025 10.4263 20.178 10.4263C16.666 10.4263 13.6329 12.4852 12.1562 15.482L15.0596 17.7856C15.788 15.5737 17.8035 13.9734 20.178 13.9734" fill="#D94F3D"/>
</g>
<defs>
<clipPath id="clip0_251_69599">
<rect width="17.6" height="18.4" fill="white" transform="translate(11.1992 10.3999)"/>
</clipPath>
</defs>
</svg>
