<svg width="18" height="18" viewBox="0 0 18 18"  xmlns="http://www.w3.org/2000/svg">
<g clip-path="url(#clip0_231_14830)">
<path d="M4.49352 15.1227C4.04793 15.0536 3.62542 15.0194 3.21809 14.9197C1.49202 14.4992 0.270599 13.0622 0.0562459 11.2206C0.0263842 10.9948 0.00966264 10.7673 0.00617401 10.5393C-1.46505e-05 8.5373 -0.00339028 6.53527 0.0050488 4.53324C0.00898704 3.61657 0.230091 2.75418 0.710556 1.98262C1.45488 0.790487 2.54746 0.201203 3.87184 0.0437064C4.18665 0.0110471 4.50294 -0.00332849 4.81926 0.000645603C7.68255 0.000645603 10.5449 0.000645603 13.4063 0.000645603C14.1523 0.000645603 14.8792 0.109772 15.5622 0.438332C16.9468 1.10489 17.7114 2.25868 17.942 3.81536C17.9822 4.10679 18.001 4.40101 17.9983 4.69545C18.0034 6.53527 17.9983 8.37567 18.0022 10.2161C18.0022 10.9829 17.8976 11.7285 17.5887 12.4281C16.9417 13.8945 15.8143 14.6838 14.3144 14.9209C14.0007 14.9642 13.6844 14.9839 13.3681 14.9799C12.285 14.987 11.202 14.9799 10.119 14.9882C9.98211 14.9914 9.84872 15.0343 9.73362 15.112C8.48651 15.9921 7.24297 16.8769 6.00299 17.7665C5.7937 17.9157 5.57372 18.0207 5.31492 17.9918C4.82995 17.9375 4.50477 17.5523 4.49745 17.0108C4.49014 16.4593 4.49745 15.9072 4.49745 15.3551L4.49352 15.1227ZM8.28098 8.22997C8.28098 8.29604 8.28098 8.3627 8.28098 8.42876C8.29392 8.82103 8.50602 9.08116 8.85146 9.13661C9.23515 9.1956 9.5609 9.00743 9.67061 8.64525C9.70554 8.51848 9.72037 8.38656 9.71449 8.25475C9.70897 8.15194 9.72836 8.04934 9.77086 7.95652C9.81336 7.86369 9.87758 7.78365 9.95754 7.72386C10.0858 7.62122 10.2158 7.52036 10.3457 7.42008C10.6889 7.15523 10.9556 6.8302 11.0681 6.39075C11.3027 5.47998 11.0709 4.70253 10.4132 4.07078C10.1081 3.77749 9.72654 3.58608 9.31725 3.52095C8.90796 3.45582 8.48944 3.51991 8.11501 3.70505C7.31386 4.09614 6.80751 4.93789 6.84408 5.81562C6.85983 6.19255 7.05731 6.45269 7.35887 6.49339C7.73019 6.54353 8.04356 6.34651 8.14651 5.98786C8.17116 5.88843 8.18624 5.78666 8.19152 5.68408C8.20085 5.53653 8.24231 5.39318 8.31273 5.26505C8.38314 5.13692 8.48064 5.02742 8.59772 4.94497C8.93529 4.70253 9.39381 4.79691 9.64698 5.15201C9.90015 5.50712 9.84558 5.90469 9.50802 6.19432C9.29085 6.38131 9.07369 6.56948 8.87002 6.77181C8.67721 6.95583 8.52471 7.18146 8.42302 7.43318C8.32134 7.6849 8.27288 7.95674 8.28098 8.22997ZM8.28098 10.7299C8.2773 10.8302 8.2928 10.9303 8.32656 11.0243C8.36033 11.1183 8.41169 11.2043 8.47761 11.2772C8.54353 11.35 8.62269 11.4084 8.71042 11.4487C8.79815 11.489 8.8927 11.5105 8.98848 11.512C9.08427 11.5134 9.17936 11.4948 9.26817 11.4572C9.35699 11.4195 9.43772 11.3636 9.50563 11.2928C9.57354 11.2219 9.62725 11.1376 9.6636 11.0447C9.69995 10.9517 9.71821 10.8521 9.71731 10.7517C9.72293 10.2845 9.44557 9.99016 8.99886 9.99016C8.56003 9.99016 8.28266 10.2757 8.28041 10.7299H8.28098Z" />
</g>
<defs>
<clipPath id="clip0_231_14830">
<rect width="18" height="18" fill="white"/>
</clipPath>
</defs>
</svg>
