<svg width="14" height="12" viewBox="0 0 14 12" fill="none" xmlns="http://www.w3.org/2000/svg">
<g clip-path="url(#clip0_470_35405)">
<path d="M2.98063 4.75125C3.39593 4.52586 3.77973 4.31842 4.16221 4.10889C4.32413 4.0204 4.49437 3.97699 4.68079 4.01414C4.82132 4.03996 4.95001 4.10668 5.04915 4.20512C5.14828 4.30356 5.213 4.42888 5.23439 4.56384C5.2834 4.83724 5.15737 5.09727 4.88429 5.24878C4.4366 5.49922 3.9841 5.74047 3.53335 5.9859C3.18937 6.17414 2.84453 6.36364 2.49443 6.55063C2.07387 6.77685 1.66645 6.66416 1.44632 6.25845C0.994986 5.42117 0.544818 4.58318 0.0958165 3.74451C-0.103302 3.37219 0.0161691 2.98402 0.377646 2.80788C0.739123 2.63174 1.13823 2.76906 1.34042 3.13804C1.47739 3.38847 1.61087 3.63891 1.74609 3.88642C1.75003 3.89393 1.76141 3.89769 1.77979 3.90979C1.85331 3.75244 1.91895 3.59424 1.9986 3.44273C3.03139 1.48099 4.68736 0.323149 6.97131 0.0464188C10.2097 -0.345512 13.256 1.78694 13.8796 4.83682C14.5597 8.15717 12.2657 11.3218 8.75244 11.912C6.19803 12.3411 3.56879 11.1774 2.26599 9.04204C2.05243 8.69184 2.14214 8.29658 2.47999 8.09957C2.82527 7.89838 3.2397 8.00482 3.46683 8.35835C4.27687 9.61762 5.44313 10.3819 6.97525 10.6152C9.47802 10.9971 11.9204 9.40141 12.4766 7.03355C12.6249 6.40676 12.636 5.75753 12.5093 5.12645C12.3825 4.49537 12.1207 3.89601 11.7401 3.36584C11.3594 2.83566 10.8683 2.38607 10.2972 2.04517C9.72613 1.70427 9.08748 1.47938 8.42116 1.38458C6.04837 1.0348 3.70008 2.44517 3.01039 4.63522C3.00295 4.65943 2.9977 4.68405 2.98063 4.75125Z" fill="#D6DCE9"/>
<path d="M8.40235 4.48681C8.40235 4.84577 8.4076 5.20514 8.39973 5.56368C8.3972 5.6171 8.40729 5.67038 8.42926 5.71958C8.45123 5.76878 8.48451 5.81264 8.52664 5.84792C9.11188 6.40083 9.69494 6.95554 10.2758 7.51206C10.6631 7.88771 10.5178 8.48041 10.0058 8.63025C9.75198 8.70455 9.5126 8.66156 9.32224 8.48208C8.60745 7.80897 7.89617 7.13224 7.18839 6.45189C7.05097 6.32083 6.99627 6.15471 6.99671 5.96938C6.99671 5.10038 6.99671 4.23178 6.99671 3.36278C6.99671 2.96375 7.29954 2.66448 7.6969 2.66406C8.08376 2.66406 8.39054 2.95624 8.3971 3.34608C8.40629 3.72716 8.40235 4.10698 8.40235 4.48681Z" fill="#D6DCE9"/>
</g>
<defs>
<clipPath id="clip0_470_35405">
<rect width="14" height="12" fill="white"/>
</clipPath>
</defs>
</svg>
