<svg width="18" height="18" viewBox="0 0 18 18"  xmlns="http://www.w3.org/2000/svg">
<g clip-path="url(#clip0_138_62417)">
<mask id="mask0_138_62417" style="mask-type:luminance" maskUnits="userSpaceOnUse" x="0" y="0" width="18" height="18">
<path d="M18 0H0V18H18V0Z" fill="white"/>
</mask>
<g mask="url(#mask0_138_62417)">
<path d="M0 9.25812V8.7666C0.105469 8.24208 0.44543 7.87415 0.811055 7.51078C3.04113 5.29498 5.26559 3.07368 7.48441 0.846882C7.85215 0.477894 8.22164 0.131376 8.75391 0.0246469C8.91632 -0.00821564 9.08368 -0.00821564 9.24609 0.0246469C9.77168 0.129972 10.1387 0.46982 10.5022 0.834594C12.7288 3.06888 14.961 5.29779 17.1988 7.52131C17.57 7.88995 17.9079 8.26561 18 8.80171V9.22301C17.9876 9.24876 17.9775 9.27555 17.9698 9.30306C17.807 10.1176 17.1612 10.6551 16.3336 10.6649C16.2485 10.6649 16.1638 10.6649 16.0689 10.6649V10.9015C16.0689 12.6383 16.0734 14.3748 16.0646 16.1112C16.0604 16.9345 15.4993 17.6644 14.7132 17.9081C14.6029 17.9432 14.4904 17.9695 14.3789 18.0001H11.1445C10.833 17.8842 10.7227 17.656 10.7248 17.3309C10.7332 15.9926 10.7293 14.6543 10.7279 13.3159C10.7279 12.7191 10.3644 12.3589 9.76359 12.3568C9.26613 12.3568 8.76867 12.3568 8.27121 12.3568C7.62117 12.3568 7.27066 12.7047 7.27031 13.3496C7.27031 14.6764 7.26539 16.0031 7.27348 17.3299C7.27559 17.6543 7.16801 17.8839 6.85547 18.0004H3.62109C3.60786 17.9895 3.59273 17.981 3.57645 17.9755C2.73691 17.8702 1.90828 17.0925 1.9241 15.954C1.9473 14.2639 1.93008 12.5734 1.93008 10.8829V10.6646C1.80738 10.6646 1.70859 10.6691 1.61016 10.6646C0.966094 10.6316 0.486914 10.3303 0.18457 9.76403C0.100898 9.60639 0.0604688 9.42699 0 9.25812Z" />
</g>
</g>
<defs>
<clipPath id="clip0_138_62417">
<rect width="18" height="18" fill="white"/>
</clipPath>
</defs>
</svg>
