<svg width="40" height="40" viewBox="0 0 40 40" fill="none" xmlns="http://www.w3.org/2000/svg">
<path fill-rule="evenodd" clip-rule="evenodd" d="M4.70388 32.6494C5.34088 33.3831 6.10625 33.75 7 33.75H33C33.8927 33.7512 34.6575 33.3844 35.2945 32.6494C35.9315 31.9144 36.25 31.0312 36.25 30V7.5C36.2511 6.47 35.9331 5.5875 35.2961 4.8525C34.6591 4.1175 33.8937 3.75 33 3.75H7C6.10734 3.74875 5.3425 4.11563 4.7055 4.85063C4.0685 5.58563 3.75 6.46875 3.75 7.5V30C3.74892 31.0325 4.06688 31.9156 4.70388 32.6494ZM33 10H7L7 7.5H33L33 10ZM12.5 21.75L17.5 26.75L27.5 16.75L25.75 15L17.5 23.25L14.25 20L12.5 21.75Z" fill="#115BCA"/>
</svg>
