<svg width="18" height="18" viewBox="0 0 18 18"  xmlns="http://www.w3.org/2000/svg">
<path d="M3.21762 8.99788C3.21762 7.12365 3.21762 5.24958 3.21762 3.37567C3.21762 2.40328 3.72215 1.62798 4.55775 1.34313C4.78648 1.26925 5.02466 1.23222 5.26409 1.2333C7.75182 1.22595 10.2392 1.22461 12.7263 1.22929C13.9425 1.22929 14.7814 2.10991 14.7819 3.3857C14.7838 7.12782 14.7838 10.8699 14.7819 14.6121C14.7819 15.6888 14.1698 16.5107 13.2092 16.7223C13.0509 16.7541 12.8899 16.7691 12.7287 16.767C10.2413 16.7693 7.7539 16.7693 5.26649 16.767C4.25743 16.767 3.47805 16.1336 3.27 15.1431C3.23448 14.9525 3.21838 14.7586 3.22195 14.5644C3.21714 12.7092 3.2157 10.8537 3.21762 8.99788ZM11.9268 7.92269C11.9008 7.39712 11.6317 6.93325 11.0873 6.68451C10.5429 6.43577 10.0302 6.53707 9.58287 6.94277C9.44688 7.06514 9.32772 7.20756 9.19846 7.33695C9.0596 7.47486 8.94524 7.47586 8.80781 7.33945C8.68624 7.21859 8.57188 7.08871 8.44984 6.96935C8.18403 6.70552 7.8298 6.56081 7.46302 6.56624C7.09623 6.57166 6.74607 6.72679 6.48754 6.99838C6.229 7.26997 6.08266 7.63644 6.07987 8.01927C6.07707 8.4021 6.21803 8.77085 6.47256 9.04653C7.16785 9.78974 7.87611 10.5199 8.58294 11.2531C8.83088 11.5098 9.16819 11.5134 9.41805 11.2531C10.134 10.5136 10.8458 9.76951 11.5534 9.02095C11.8105 8.74664 11.9282 8.40211 11.9268 7.92269ZM13.9016 14.8157C13.8618 14.7309 13.8147 14.5373 13.7008 14.4085C13.339 13.9992 12.955 13.6111 12.574 13.2209C12.427 13.0705 12.2583 13.0735 12.1113 13.2239C11.7346 13.6101 11.3574 13.9962 10.9927 14.3944C10.8601 14.5387 10.7865 14.7312 10.7875 14.9311C10.7885 15.1311 10.864 15.3227 10.998 15.4656C11.1331 15.6109 11.317 15.6957 11.5109 15.7022C11.7048 15.7086 11.8936 15.6362 12.0373 15.5002C12.3443 15.2204 12.3429 15.2219 12.6538 15.5002C12.894 15.7174 13.1698 15.764 13.4581 15.6306C13.7464 15.4972 13.8882 15.248 13.9016 14.8157ZM5.23286 2.31402C4.95128 2.33358 4.71583 2.4755 4.58706 2.76987C4.45828 3.06425 4.49096 3.36815 4.7067 3.60786C5.07669 4.01708 5.46254 4.41025 5.84742 4.80392C5.98196 4.94183 6.15062 4.94885 6.28276 4.81395C6.67677 4.41275 7.07944 4.01758 7.44654 3.58981C7.83383 3.13847 7.58108 2.4429 7.00976 2.32906C6.70032 2.26738 6.46775 2.4093 6.2621 2.63497C6.07951 2.83557 6.06317 2.83557 5.88106 2.63497C5.70808 2.44591 5.51587 2.31602 5.23286 2.31402Z" />
<path d="M2.74556 9.7534L2.40584 9.13857C2.03489 8.46657 1.66154 7.79558 1.293 7.11957C0.711105 6.0554 1.01622 4.85734 2.02817 4.2365C2.26842 4.08906 2.51204 3.94513 2.77487 3.78516V9.74286L2.74556 9.7534Z" />
<path d="M15.2256 14.2115V8.20312C15.278 8.29039 15.3102 8.33954 15.3385 8.39069C15.7905 9.20913 16.2425 10.0282 16.6945 10.848C17.2918 11.9327 16.9938 13.1268 15.966 13.7662C15.7306 13.9111 15.4913 14.051 15.2256 14.2115Z" />
<path d="M10.2049 17.2383C9.57446 17.6159 9.02284 18.0677 8.27662 17.9905C7.73221 17.9349 7.28293 17.6976 6.9043 17.2383H10.2049Z" />
<path d="M11.0997 0.769363H7.81641C7.85043 0.736789 7.88638 0.706473 7.92404 0.678593C8.18303 0.522629 8.4377 0.357137 8.7039 0.215215C9.07615 0.0206782 9.49832 -0.0443057 9.90854 0.0297871C10.3188 0.10388 10.6954 0.313154 10.9834 0.626939C11.0156 0.662044 11.042 0.70116 11.0997 0.769363Z" />
</svg>
