<svg width="40" height="40" viewBox="0 0 40 40" fill="none" xmlns="http://www.w3.org/2000/svg">
<path d="M11.4286 37.3346C10.4857 37.3346 9.67886 37.0263 9.008 36.4097C8.336 35.792 8 35.0498 8 34.1831V5.81948C8 4.95282 8.336 4.21064 9.008 3.59294C9.67886 2.97629 10.4857 2.66797 11.4286 2.66797H28.5714C29.5143 2.66797 30.3217 2.97629 30.9937 3.59294C31.6646 4.21064 32 4.95282 32 5.81948V34.1831C32 35.0498 31.6646 35.792 30.9937 36.4097C30.3217 37.0263 29.5143 37.3346 28.5714 37.3346H11.4286ZM20 33.3952C20.4857 33.3952 20.8931 33.244 21.2223 32.9414C21.5503 32.6399 21.7143 32.2659 21.7143 31.8195C21.7143 31.373 21.5503 30.999 21.2223 30.6975C20.8931 30.395 20.4857 30.2437 20 30.2437C19.5143 30.2437 19.1074 30.395 18.7794 30.6975C18.4503 30.999 18.2857 31.373 18.2857 31.8195C18.2857 32.2659 18.4503 32.6399 18.7794 32.9414C19.1074 33.244 19.5143 33.3952 20 33.3952ZM11.4286 26.3043H28.5714V10.5468H11.4286V26.3043Z" fill="#115BCA"/>
</svg>
