<svg width="18" height="18" viewBox="0 0 18 18"  xmlns="http://www.w3.org/2000/svg">
<g clip-path="url(#clip0_138_62440)">
<mask id="mask0_138_62440" style="mask-type:luminance" maskUnits="userSpaceOnUse" x="0" y="0" width="18" height="18">
<path d="M17.9965 0H0V18H17.9965V0Z" fill="white"/>
</mask>
<g mask="url(#mask0_138_62440)">
<path d="M3.6 13.4444H8.1V11.6667H3.6V13.4444ZM12.6 13.4444H14.4V11.6667H12.6V13.4444ZM3.6 9.88889H8.1V8.11111H3.6V9.88889ZM12.6 9.88889H14.4V4.55556H12.6V9.88889ZM3.6 6.33333H8.1V4.55556H3.6V6.33333ZM1.8 17C1.305 17 0.8814 16.8261 0.5292 16.4782C0.1764 16.1298 0 15.7111 0 15.2222V2.77778C0 2.28889 0.1764 1.87022 0.5292 1.52178C0.8814 1.17393 1.305 1 1.8 1H16.2C16.695 1 17.1189 1.17393 17.4717 1.52178C17.8239 1.87022 18 2.28889 18 2.77778V15.2222C18 15.7111 17.8239 16.1298 17.4717 16.4782C17.1189 16.8261 16.695 17 16.2 17H1.8Z" />
</g>
</g>
<defs>
<clipPath id="clip0_138_62440">
<rect width="18" height="18" fill="white"/>
</clipPath>
</defs>
</svg>
