<svg width="48" height="54" viewBox="0 0 48 54" fill="none" xmlns="http://www.w3.org/2000/svg">
<path d="M7.7987 53.5706C7.56616 53.5186 7.33362 53.4614 7.09978 53.4133C3.13495 52.6022 0.413341 49.3121 0.404248 45.1446C0.375667 33.0554 0.375667 20.9663 0.404248 8.87714C0.410743 4.70703 3.11806 1.40267 7.0842 0.600622C7.65859 0.489224 8.2425 0.434366 8.82758 0.436834C17.2284 0.430767 25.6292 0.427734 34.03 0.427734C38.0845 0.427734 41.3167 2.97036 42.265 6.90648C42.4131 7.58301 42.4833 8.27431 42.4742 8.96683C42.4923 13.0485 42.4858 17.1303 42.4819 21.212C42.4819 22.4495 41.948 23.2203 40.9321 23.4946C40.6526 23.5709 40.36 23.5866 40.0739 23.5407C39.7878 23.4948 39.5149 23.3882 39.2732 23.2283C39.0316 23.0683 38.8268 22.8586 38.6727 22.6131C38.5186 22.3676 38.4186 22.092 38.3794 21.8047C38.3465 21.5304 38.3317 21.2542 38.3352 20.978C38.3352 17.0003 38.3352 13.0225 38.3352 9.04483C38.3352 7.24445 37.6402 5.83535 35.9969 5.04241C35.3868 4.75632 34.722 4.60598 34.0482 4.60174C25.6353 4.57228 17.2215 4.56751 8.8068 4.58744C6.42685 4.58744 4.73024 6.22143 4.56135 8.59246C4.54836 8.78225 4.54446 8.97203 4.54317 9.16182C4.54143 21.0612 4.54057 32.9601 4.54057 44.8586C4.54057 46.7045 5.19011 48.1513 6.87894 48.9598C7.52404 49.2453 8.22096 49.3948 8.92631 49.3992C11.1348 49.4525 13.351 49.4135 15.5634 49.4226C16.4338 49.4226 17.1015 49.8126 17.4783 50.6055C17.8329 51.3542 17.7835 52.1173 17.2418 52.7438C16.9417 53.0909 16.4806 53.3002 16.0921 53.5706H7.7987Z" fill="#374451"/>
<path d="M24.5513 53.5709C24.5007 53.5304 24.4464 53.495 24.3892 53.4652C23.2701 53.0074 22.7393 52.0095 23.0774 50.8356C23.8567 48.1276 24.6614 45.4271 25.4917 42.7339C25.635 42.3272 25.8682 41.9598 26.1731 41.6604C29.8133 37.9211 33.4649 34.1935 37.128 30.4777C38.8801 28.7063 40.9919 28.1298 43.3514 28.8903C45.6687 29.6403 47.0749 31.3164 47.5138 33.7557C47.8558 35.6471 47.3862 37.3689 46.1689 38.8559C45.9137 39.1742 45.6151 39.4664 45.3267 39.7599C41.8805 43.2791 38.4352 46.7989 34.9907 50.319C34.5384 50.7889 33.9706 51.1255 33.3471 51.2934C30.6789 52.0395 28.0234 52.8117 25.3641 53.5709H24.5513ZM36.6572 36.6436C36.582 36.8101 36.4878 36.9669 36.3764 37.1106C34.8452 38.6863 33.2999 40.2503 31.7648 41.8234C30.9149 42.6948 29.8839 43.4618 29.2893 44.4896C28.6946 45.5175 28.516 46.8376 28.1612 48.0337C28.1312 48.1713 28.1094 48.3107 28.0961 48.4511C29.3454 48.0976 30.5423 47.7741 31.7265 47.4141C32.0134 47.3252 32.2757 47.1683 32.4921 46.9563C34.7737 44.6492 37.0464 42.333 39.3101 40.0077C39.4249 39.8903 39.5296 39.7625 39.6125 39.6699L36.6572 36.6436ZM39.818 33.637L42.6904 36.5628C43.8835 35.6092 43.6921 34.1079 42.9379 33.3526C42.0179 32.4239 40.7457 32.5674 39.818 33.637Z" fill="#374451"/>
<path d="M21.4147 17.0946C17.8804 17.0946 14.3462 17.0946 10.8119 17.0946C9.3903 17.0946 8.45568 16.0617 8.61538 14.7233C8.67628 14.2643 8.89056 13.8392 9.22357 13.5167C9.55659 13.1942 9.98888 12.9932 10.4506 12.946C10.5375 12.936 10.6249 12.9312 10.7124 12.9317C17.8525 12.9317 24.9922 12.9317 32.1314 12.9317C33.4143 12.9317 34.3279 13.8954 34.2677 15.1189C34.2127 16.2524 33.3279 17.0777 32.1249 17.0933C30.541 17.1077 28.9558 17.0933 27.3706 17.0933L21.4147 17.0946Z" fill="#374451"/>
<path d="M21.3976 25.4273C17.8635 25.4273 14.3294 25.4338 10.7952 25.4273C9.3816 25.4273 8.43916 24.3786 8.6198 23.0434C8.68432 22.585 8.90268 22.1618 9.2394 21.8425C9.57611 21.5233 10.0114 21.3267 10.4746 21.2847C10.6644 21.2665 10.8581 21.2704 11.0492 21.2704C17.9787 21.2704 24.9086 21.2704 31.839 21.2704C32.0827 21.2614 32.3267 21.274 32.5681 21.3082C33.0722 21.4016 33.5241 21.6767 33.8372 22.081C34.1502 22.4852 34.3025 22.9901 34.2649 23.4991C34.2273 24.0081 34.0025 24.4854 33.6334 24.8397C33.2643 25.194 32.7769 25.4004 32.2644 25.4195C31.3246 25.4494 30.3835 25.4286 29.4437 25.4286C26.7612 25.4295 24.0792 25.429 21.3976 25.4273Z" fill="#374451"/>
<path d="M17.3222 29.6093C19.5104 29.6093 21.7013 29.5963 23.8843 29.6093C25.2909 29.6197 26.2358 30.7151 26.0261 32.0451C25.8655 33.0596 24.9897 33.7612 23.8379 33.7664C21.704 33.7755 19.5688 33.7664 17.435 33.7664C15.2135 33.7664 12.9908 33.7781 10.768 33.7664C9.36002 33.7559 8.41916 32.6645 8.62618 31.3306C8.78277 30.32 9.66258 29.6145 10.8144 29.6093C12.9801 29.6028 15.1538 29.608 17.3222 29.6093Z" fill="#374451"/>
</svg>
