<svg width="34" height="34" viewBox="0 0 34 34" fill="none" xmlns="http://www.w3.org/2000/svg">
<path d="M26.706 16.0533C26.0277 16.2267 25.3494 16.3333 24.6711 16.3333C22.6933 16.3298 20.7975 15.5561 19.399 14.1816C18.0005 12.8071 17.2132 10.9438 17.2096 9.00001C17.2096 7.04001 17.9965 5.26667 19.2446 3.94667C18.9984 3.65006 18.688 3.41117 18.3359 3.2474C17.9839 3.08363 17.5991 2.99911 17.2096 3.00001C15.7174 3.00001 14.4964 4.20001 14.4964 5.66667V6.05334C10.4672 7.22667 7.71325 10.8667 7.71325 15V23L5 25.6667V27H29.4193V25.6667L26.706 23V16.0533ZM17.2096 31C18.7155 31 19.9229 29.8133 19.9229 28.3333H14.4964C14.4964 29.0406 14.7822 29.7189 15.2911 30.219C15.7999 30.719 16.49 31 17.2096 31Z" fill="#B3BAD1"/>
<path d="M8.18264 16.0533C8.86095 16.2267 9.53926 16.3333 10.2176 16.3333C12.1954 16.3298 14.0911 15.5561 15.4897 14.1816C16.8882 12.8071 16.4964 10.9438 16.5 9C16.5 7.04 16.8922 5.26667 15.6441 3.94667C15.8903 3.65006 16.2007 3.41117 16.5527 3.2474C16.9048 3.08363 17.2896 2.99911 17.679 3.00001C19.1713 3.00001 20.3923 4.20001 20.3923 5.66667V6.05334C24.4215 7.22667 27.1754 10.8667 27.1754 15V23L29.8887 25.6667V27H5.46939V25.6667L8.18264 23V16.0533ZM17.679 31C16.1732 31 14.9658 29.8133 14.9658 28.3333H20.3923C20.3923 29.0406 20.1064 29.7189 19.5976 30.219C19.0888 30.719 18.3986 31 17.679 31Z" fill="#B3BAD1"/>
</svg>
