<svg width="24" height="24" viewBox="0 0 24 24" fill="none" xmlns="http://www.w3.org/2000/svg">
<g clip-path="url(#clip0_549_59516)">
<path fill-rule="evenodd" clip-rule="evenodd" d="M14.6741 20.2347C15.3691 18.9305 16.1973 16.7097 15.0403 15.752C13.9739 15.9023 13.1115 15.9032 12.4098 15.7554C10.643 15.3832 10.0837 14.0697 10.5701 12.3876C8.19294 14.426 8.09258 17.4315 8.97384 20.3257C9.11698 20.7959 8.55614 21.1809 8.12184 20.9093C7.97394 20.8168 4.5 18.6046 4.5 15.1979C4.5 9.6171 11.2432 9.37698 11.2432 3.52789C11.2432 3.08109 11.8011 2.83655 12.1663 3.12394C14.8609 5.24483 19.7641 10.3431 19.4889 15.0322C19.3525 17.3568 18.0065 19.3341 15.4884 20.9093C15.0121 21.2071 14.4173 20.7166 14.6741 20.2347Z" fill="#B3BAD1"/>
</g>
<defs>
<clipPath id="clip0_549_59516">
<rect width="18" height="18" fill="white" transform="translate(3 3)"/>
</clipPath>
</defs>
</svg>
