<svg width="40" height="40" viewBox="0 0 40 40" fill="none" xmlns="http://www.w3.org/2000/svg">
<path d="M20 27.6812C20.7956 27.6812 21.5587 27.3869 22.1213 26.863C22.6839 26.3391 23 25.6285 23 24.8876C23 24.1467 22.6839 23.4361 22.1213 22.9122C21.5587 22.3883 20.7956 22.0939 20 22.0939C19.2044 22.0939 18.4413 22.3883 17.8787 22.9122C17.3161 23.4361 17 24.1467 17 24.8876C17 25.6285 17.3161 26.3391 17.8787 26.863C18.4413 27.3869 19.2044 27.6812 20 27.6812ZM29 15.1098C29.7957 15.1098 30.5587 15.4041 31.1213 15.9281C31.6839 16.452 32 17.1625 32 17.9035V31.8717C32 32.6126 31.6839 33.3232 31.1213 33.8471C30.5587 34.371 29.7957 34.6654 29 34.6654H11C10.2044 34.6654 9.44129 34.371 8.87868 33.8471C8.31607 33.3232 8 32.6126 8 31.8717V17.9035C8 17.1625 8.31607 16.452 8.87868 15.9281C9.44129 15.4041 10.2044 15.1098 11 15.1098C11.8284 15.1098 12.5 14.4382 12.5 13.6098V12.3162C12.5 10.4639 13.2902 8.68741 14.6967 7.37763C16.1032 6.06786 18.0109 5.33203 20 5.33203C20.9849 5.33203 21.9602 5.51268 22.8701 5.86367C23.7801 6.21465 24.6069 6.7291 25.3033 7.37763C25.9997 8.02617 26.5522 8.79609 26.9291 9.64345C27.306 10.4908 27.5 11.399 27.5 12.3162V13.6098C27.5 14.4382 28.1716 15.1098 29 15.1098ZM20 8.12568C18.8065 8.12568 17.6619 8.56718 16.818 9.35304C15.9741 10.1389 15.5 11.2048 15.5 12.3162C15.5 13.859 16.7508 15.1098 18.2937 15.1098H21.7064C23.2492 15.1098 24.5 13.859 24.5 12.3162C24.5 11.2048 24.0259 10.1389 23.182 9.35304C22.3381 8.56718 21.1935 8.12568 20 8.12568Z" fill="#115BCA"/>
</svg>
