<svg width="24" height="24" viewBox="0 0 24 24"  xmlns="http://www.w3.org/2000/svg">
<path d="M4.8 5C4.32261 5 3.86477 5.18437 3.52721 5.51256C3.18964 5.84075 3 6.28587 3 6.75V10.25C3.47739 10.25 3.93523 10.4344 4.27279 10.7626C4.61036 11.0908 4.8 11.5359 4.8 12C4.8 12.4641 4.61036 12.9092 4.27279 13.2374C3.93523 13.5656 3.47739 13.75 3 13.75V17.25C3 17.7141 3.18964 18.1592 3.52721 18.4874C3.86477 18.8156 4.32261 19 4.8 19H19.2C19.6774 19 20.1352 18.8156 20.4728 18.4874C20.8104 18.1592 21 17.7141 21 17.25V13.75C20.5226 13.75 20.0648 13.5656 19.7272 13.2374C19.3896 12.9092 19.2 12.4641 19.2 12C19.2 11.5359 19.3896 11.0908 19.7272 10.7626C20.0648 10.4344 20.5226 10.25 21 10.25V6.75C21 6.28587 20.8104 5.84075 20.4728 5.51256C20.1352 5.18437 19.6774 5 19.2 5H4.8ZM15.15 7.625L16.5 8.9375L8.85 16.375L7.5 15.0625L15.15 7.625ZM9.129 7.66C10.011 7.66 10.722 8.35125 10.722 9.20875C10.722 9.6195 10.5542 10.0134 10.2554 10.3039C9.95668 10.5943 9.55149 10.7575 9.129 10.7575C8.247 10.7575 7.536 10.0663 7.536 9.20875C7.536 8.798 7.70383 8.40407 8.00258 8.11362C8.30132 7.82317 8.70651 7.66 9.129 7.66M14.871 13.2425C15.753 13.2425 16.464 13.9337 16.464 14.7912C16.464 15.202 16.2962 15.5959 15.9974 15.8864C15.6987 16.1768 15.2935 16.34 14.871 16.34C13.989 16.34 13.278 15.6487 13.278 14.7912C13.278 14.3805 13.4458 13.9866 13.7446 13.6961C14.0433 13.4057 14.4485 13.2425 14.871 13.2425V13.2425Z" />
</svg>
