<svg width="18" height="15" viewBox="0 0 18 15"  xmlns="http://www.w3.org/2000/svg">
<g clip-path="url(#clip0_138_62475)">
<path d="M1.8 0.5C1.32261 0.5 0.864773 0.684374 0.527208 1.01256C0.189642 1.34075 0 1.78587 0 2.25V5.75C0.47739 5.75 0.935227 5.93437 1.27279 6.26256C1.61036 6.59075 1.8 7.03587 1.8 7.5C1.8 7.96413 1.61036 8.40925 1.27279 8.73744C0.935227 9.06562 0.47739 9.25 0 9.25V12.75C0 13.2141 0.189642 13.6592 0.527208 13.9874C0.864773 14.3156 1.32261 14.5 1.8 14.5H16.2C16.6774 14.5 17.1352 14.3156 17.4728 13.9874C17.8104 13.6592 18 13.2141 18 12.75V9.25C17.5226 9.25 17.0648 9.06562 16.7272 8.73744C16.3896 8.40925 16.2 7.96413 16.2 7.5C16.2 7.03587 16.3896 6.59075 16.7272 6.26256C17.0648 5.93437 17.5226 5.75 18 5.75V2.25C18 1.78587 17.8104 1.34075 17.4728 1.01256C17.1352 0.684374 16.6774 0.5 16.2 0.5H1.8ZM12.15 3.125L13.5 4.4375L5.85 11.875L4.5 10.5625L12.15 3.125ZM6.129 3.16C7.011 3.16 7.722 3.85125 7.722 4.70875C7.722 5.1195 7.55417 5.51343 7.25542 5.80388C6.95668 6.09433 6.55149 6.2575 6.129 6.2575C5.247 6.2575 4.536 5.56625 4.536 4.70875C4.536 4.298 4.70383 3.90407 5.00258 3.61362C5.30132 3.32317 5.70651 3.16 6.129 3.16ZM11.871 8.7425C12.753 8.7425 13.464 9.43375 13.464 10.2912C13.464 10.702 13.2962 11.0959 12.9974 11.3864C12.6987 11.6768 12.2935 11.84 11.871 11.84C10.989 11.84 10.278 11.1487 10.278 10.2912C10.278 9.8805 10.4458 9.48656 10.7446 9.19612C11.0433 8.90567 11.4485 8.7425 11.871 8.7425Z" />
</g>
<defs>
<clipPath id="clip0_138_62475">
<rect width="18" height="15" fill="white"/>
</clipPath>
</defs>
</svg>
