<svg width="28" height="30" viewBox="0 0 28 30" fill="none" xmlns="http://www.w3.org/2000/svg">
<path d="M27.3459 7.05019L14.6547 0.164776C14.4558 0.0568309 14.2302 0 14.0005 0C13.7709 0 13.5453 0.0568309 13.3464 0.164776L0.654136 7.05019C0.455214 7.15805 0.290029 7.31323 0.175198 7.50012C0.0603678 7.68702 -5.78649e-05 7.89903 4.158e-08 8.11484V21.8857C-1.83531e-05 22.1014 0.0604289 22.3133 0.17526 22.5001C0.290091 22.6869 0.455256 22.842 0.654136 22.9498L13.3459 29.8352C13.5447 29.9432 13.7703 30 14 30C14.2297 30 14.4553 29.9432 14.6541 29.8352L27.3459 22.9498C27.5447 22.842 27.7099 22.6869 27.8247 22.5001C27.9396 22.3133 28 22.1014 28 21.8857V8.11484C28.0001 7.89903 27.9396 7.68702 27.8248 7.50012C27.71 7.31323 27.5448 7.15805 27.3459 7.05019Z" fill="url(#paint0_linear_365_28043)"/>
<path d="M13.9996 29.1829C13.9231 29.1829 13.8479 29.1639 13.7818 29.1278L1.08949 22.2419C1.02318 22.2059 0.968098 22.1542 0.929766 22.0919C0.891434 22.0296 0.8712 21.959 0.871094 21.887V8.11619C0.871215 8.04417 0.891449 7.97345 0.929775 7.91108C0.968101 7.84872 1.02318 7.7969 1.08949 7.7608L13.7812 0.87539C13.8475 0.839311 13.9228 0.820312 13.9994 0.820312C14.076 0.820313 14.1512 0.839311 14.2175 0.87539L26.9097 7.7598C26.9761 7.7959 27.0311 7.84772 27.0695 7.91008C27.1078 7.97245 27.128 8.04317 27.1281 8.11519V21.887C27.128 21.959 27.1078 22.0296 27.0695 22.0919C27.0311 22.1542 26.9761 22.2059 26.9097 22.2419L14.218 29.1273C14.1517 29.1635 14.0763 29.1827 13.9996 29.1829Z" fill="url(#paint1_linear_365_28043)"/>
<path d="M26.8004 7.93635L14.1097 1.05093C14.0765 1.03292 14.0388 1.02344 14.0005 1.02344C13.9622 1.02344 13.9245 1.03292 13.8913 1.05093L1.19904 7.93635C1.16699 7.95412 1.14009 7.97905 1.12074 8.00892C1.10057 8.0409 1.0899 8.07737 1.08984 8.11454V21.8854C1.09003 21.9214 1.10012 21.9567 1.11914 21.988C1.13824 22.0192 1.16582 22.0451 1.19904 22.0631L13.8918 28.949C13.925 28.9668 13.9626 28.9762 14.0008 28.9762C14.039 28.9762 14.0766 28.9668 14.1097 28.949L26.8004 22.0631C26.8336 22.0451 26.8613 22.0192 26.8804 21.988C26.8996 21.9568 26.9097 21.9214 26.9096 21.8854V8.11454C26.9097 8.07834 26.8995 8.04277 26.8803 8.01143C26.861 7.98032 26.8335 7.95445 26.8004 7.93635ZM25.8218 21.4129L14.0005 27.8263L2.17918 21.4129V8.58655L14.0005 2.17364L25.8218 8.58655V21.4129Z" fill="url(#paint2_linear_365_28043)"/>
<path d="M2.17998 21.4133V8.58694C2.17998 8.58694 1.13995 7.97979 1.12076 8.00882C1.10058 8.04079 1.0899 8.07727 1.08984 8.11444V21.8858C1.09003 21.9218 1.10013 21.9571 1.11916 21.9884C1.13782 22.0189 2.17998 21.4133 2.17998 21.4133Z" fill="url(#paint3_linear_365_28043)"/>
<path d="M14.0012 27.8275L2.17946 21.4141C2.17946 21.4141 1.10073 21.9581 1.11938 21.9892C1.13848 22.0204 1.16605 22.0463 1.19929 22.0643L13.8925 28.9502C13.9249 28.9678 13.9616 28.9771 13.9991 28.9772C14.0396 28.9772 14.0012 27.8275 14.0012 27.8275Z" fill="url(#paint4_linear_365_28043)"/>
<path d="M25.8212 21.4141L13.9995 27.8275C13.9995 27.8275 13.9611 28.9787 13.9995 28.9787C14.0378 28.9789 14.0756 28.9694 14.1087 28.9512L26.7998 22.0643C26.8294 22.0483 26.8546 22.026 26.8733 21.9992C26.8978 21.9662 25.8212 21.4141 25.8212 21.4141Z" fill="url(#paint5_linear_365_28043)"/>
<path d="M26.8747 21.9955C26.898 21.962 26.9104 21.9229 26.9104 21.8829V8.11204C26.9105 8.07584 26.9004 8.04027 26.8811 8.00893C26.8625 7.9784 25.8203 8.58405 25.8203 8.58405V21.4104C25.8203 21.4104 26.8561 22.021 26.8747 21.9955Z" fill="url(#paint6_linear_365_28043)"/>
<path d="M13.9992 2.17368L25.821 8.58658C25.821 8.58658 26.9002 8.04249 26.8811 8.01146C26.8618 7.98035 26.8343 7.95448 26.8011 7.93638L14.1084 1.05097C14.0752 1.03299 14.0376 1.0235 13.9992 1.02344C13.9614 1.02344 13.9992 2.17368 13.9992 2.17368Z" fill="url(#paint7_linear_365_28043)"/>
<path d="M2.17789 8.58758L13.9996 2.17468C13.9996 2.17468 14.038 1.02344 13.9996 1.02344C13.9622 1.02393 13.9255 1.0334 13.8931 1.05097L1.19771 7.93738C1.16566 7.95516 1.13876 7.98009 1.11941 8.00996C1.0997 8.04149 2.17789 8.58758 2.17789 8.58758Z" fill="url(#paint8_linear_365_28043)"/>
<path d="M3.48438 20.7057V9.29789L13.9985 3.59375L24.5126 9.29789V20.7057L13.9985 26.4098L3.48438 20.7057Z" fill="url(#paint9_linear_365_28043)"/>
<path d="M3.48633 20.4648V20.7036L14.0004 26.4077L24.5146 20.7036V20.4648L14.0004 26.169L3.48633 20.4648Z" fill="url(#paint10_linear_365_28043)"/>
<path d="M13.9991 2.17188L2.17773 8.58478V21.4111L13.9991 27.8245L25.8204 21.4111V8.58478L13.9991 2.17188ZM24.5132 20.7018L13.9991 26.408L3.48494 20.7018V9.29404L13.9991 3.5879L24.5132 9.29404V20.7018Z" fill="#96003D"/>
<path d="M2.43945 21.2728V8.72879L13.9987 2.45703L25.5579 8.72879V21.2728L13.9987 27.544L2.43945 21.2728ZM3.2241 9.15574V20.8453L13.9998 26.6916L24.7754 20.8453V9.15424L13.9998 3.30795L3.2241 9.15574Z" fill="url(#paint11_linear_365_28043)"/>
<path d="M13.9985 3.59375L3.48438 9.29789V9.5817L13.9985 3.87756L24.5126 9.5817V9.29789L13.9985 3.59375Z" fill="url(#paint12_linear_365_28043)"/>
<path d="M18.1265 20.8273C18.0199 20.8272 17.9145 20.8055 17.8176 20.7637L14.0105 19.1224L10.2034 20.7637C10.0838 20.8152 9.95191 20.8358 9.82109 20.8235C9.69027 20.8113 9.56528 20.7665 9.45896 20.6938C9.35263 20.6212 9.26879 20.5232 9.21603 20.4101C9.16328 20.2969 9.14352 20.1726 9.15878 20.0499L9.64299 16.1407L6.80538 13.2451C6.71629 13.1543 6.65454 13.0428 6.62646 12.9222C6.59839 12.8015 6.605 12.676 6.64562 12.5585C6.68624 12.4411 6.75941 12.3359 6.8576 12.2538C6.95579 12.1717 7.07548 12.1156 7.20436 12.0914L11.3114 11.3155L13.3648 7.88583C13.4293 7.77825 13.5231 7.68871 13.6366 7.6264C13.75 7.56409 13.8791 7.53125 14.0105 7.53125C14.1419 7.53125 14.2709 7.56409 14.3844 7.6264C14.4978 7.68871 14.5916 7.77825 14.6561 7.88583L16.7096 11.3165L20.8166 12.0919C20.9455 12.1161 21.0652 12.1722 21.1634 12.2544C21.2617 12.3366 21.3348 12.4418 21.3754 12.5594C21.416 12.6769 21.4225 12.8025 21.3943 12.9232C21.3661 13.0439 21.3042 13.1553 21.215 13.2461L18.3779 16.1412L18.8621 20.0504C18.8743 20.148 18.8644 20.2469 18.833 20.3406C18.8016 20.4344 18.7494 20.5208 18.6799 20.5942C18.6104 20.6676 18.5252 20.7264 18.4298 20.7666C18.3344 20.8069 18.2311 20.8277 18.1265 20.8278V20.8273Z" fill="#96003D"/>
<path d="M18.125 20.5831C18.0558 20.583 17.9875 20.5688 17.9247 20.5415L14.0089 18.8537L10.0926 20.542C10.0299 20.5689 9.96179 20.5829 9.89286 20.5831C9.82517 20.5831 9.75825 20.5696 9.6965 20.5436C9.63475 20.5176 9.57956 20.4795 9.53458 20.432C9.48959 20.3845 9.45582 20.3286 9.4355 20.2679C9.41517 20.2072 9.40874 20.1432 9.41664 20.08L9.91257 16.0587L6.99399 13.0805C6.93638 13.0217 6.89643 12.9496 6.87826 12.8716C6.86009 12.7935 6.86434 12.7123 6.89058 12.6363C6.91682 12.5603 6.96411 12.4922 7.02758 12.439C7.09106 12.3859 7.16845 12.3495 7.25181 12.3337L11.4787 11.5358L13.5913 8.00705C13.633 7.93736 13.6937 7.87935 13.7671 7.83899C13.8405 7.79862 13.9241 7.77734 14.0092 7.77734C14.0943 7.77734 14.1778 7.79862 14.2512 7.83899C14.3247 7.87935 14.3854 7.93736 14.4271 8.00705L16.5392 11.5358L20.7633 12.3332C20.8467 12.3489 20.9242 12.3852 20.9877 12.4384C21.0513 12.4915 21.0986 12.5596 21.1249 12.6356C21.1512 12.7116 21.1555 12.7929 21.1374 12.871C21.1192 12.9491 21.0793 13.0212 21.0217 13.08L18.1026 16.0582L18.6012 20.0795C18.6091 20.1427 18.6026 20.2067 18.5823 20.2674C18.562 20.3281 18.5282 20.384 18.4832 20.4315C18.4382 20.479 18.3831 20.5171 18.3213 20.5431C18.2596 20.5691 18.1926 20.5826 18.125 20.5826V20.5831Z" fill="url(#paint13_linear_365_28043)"/>
<path d="M10.4881 15.8768C10.4557 15.7764 10.3994 15.6841 10.3235 15.6071L7.60352 12.8311L11.5418 12.0878C11.6457 12.068 11.7439 12.0277 11.83 11.9696C11.9157 11.9111 14.0109 14.7616 14.0109 14.7616C14.0109 14.7616 10.5174 15.9679 10.4881 15.8768Z" fill="url(#paint14_linear_365_28043)"/>
<path d="M7.60352 12.8311L11.5418 12.0878C11.6457 12.068 11.7439 12.0277 11.83 11.9696C11.9157 11.9111 14.0109 14.7616 14.0109 14.7616L7.60352 12.8311Z" fill="url(#paint15_linear_365_28043)"/>
<path d="M14.0109 18.2681C13.9044 18.2679 13.7992 18.2894 13.7025 18.3312L10.0508 19.9044L10.5153 16.1558C10.5269 16.0608 10.5176 15.9646 10.4881 15.873C10.4562 15.7729 14.0109 14.7578 14.0109 14.7578C14.0109 14.7578 14.118 18.2681 14.0109 18.2681Z" fill="url(#paint16_linear_365_28043)"/>
<path d="M10.0508 19.9083L10.5153 16.1597C10.5269 16.0647 10.5176 15.9685 10.4881 15.8769C10.4562 15.7768 14.0109 14.7617 14.0109 14.7617L10.0508 19.9083Z" fill="url(#paint17_linear_365_28043)"/>
<path d="M14.3192 18.3351C14.2223 18.2933 14.1169 18.2718 14.0102 18.272C13.9037 18.272 14.0102 14.7617 14.0102 14.7617C14.0102 14.7617 17.5698 15.7693 17.5373 15.8629C17.5041 15.9584 17.4934 16.0595 17.5058 16.1592L17.9698 19.9078L14.3192 18.3351Z" fill="url(#paint18_linear_365_28043)"/>
<path d="M14.0098 14.7617C14.0098 14.7617 17.5693 15.7693 17.5368 15.8629C17.5036 15.9584 17.4929 16.0595 17.5054 16.1592L17.9693 19.9078L14.0098 14.7617Z" fill="url(#paint19_linear_365_28043)"/>
<path d="M14.0098 14.7627C14.0098 14.7627 16.1038 11.9096 16.1891 11.9697C16.2757 12.0284 16.3747 12.069 16.4794 12.0888L20.4166 12.8321L17.6966 15.6091C17.6243 15.6823 17.5697 15.7694 17.5368 15.8644C17.5043 15.9585 14.0098 14.7627 14.0098 14.7627Z" fill="url(#paint20_linear_365_28043)"/>
<path d="M14.0098 14.7627C14.0098 14.7627 16.1038 11.9096 16.1891 11.9697C16.2757 12.0284 16.3747 12.069 16.4794 12.0888L20.4166 12.8321L14.0098 14.7627Z" fill="url(#paint21_linear_365_28043)"/>
<path d="M14.0093 14.7613C14.0093 14.7613 11.7432 12.0269 11.8306 11.9693C11.918 11.9101 11.9907 11.8337 12.0437 11.7456L14.0147 8.45703L15.9857 11.7461C16.0374 11.8336 16.1089 11.9094 16.195 11.9683C16.2744 12.0264 14.0093 14.7613 14.0093 14.7613Z" fill="url(#paint22_linear_365_28043)"/>
<path d="M14.0093 14.7613C14.0093 14.7613 11.7432 12.0269 11.8306 11.9693C11.918 11.9101 11.9907 11.8337 12.0437 11.7456L14.0147 8.45703L14.0093 14.7613Z" fill="url(#paint23_linear_365_28043)"/>
<path d="M14.0089 8.45703L13.9785 14.7248L7.60156 12.8307L13.961 14.7753L10.0488 19.9079L14.0073 14.8124L17.969 19.9079L14.0563 14.7778L20.4157 12.8307L14.0387 14.7258L14.0089 8.45703Z" fill="url(#paint24_linear_365_28043)"/>
<path style="mix-blend-mode:screen" d="M27.3459 7.05019L14.6547 0.164776C14.4558 0.0568309 14.2302 0 14.0005 0C13.7709 0 13.5453 0.0568309 13.3464 0.164776L0.654136 7.05019C0.455214 7.15805 0.290029 7.31323 0.175198 7.50012C0.0603678 7.68702 -5.78649e-05 7.89903 4.158e-08 8.11484V21.8857C-1.83531e-05 22.1014 0.0604289 22.3133 0.17526 22.5001C0.290091 22.6869 0.455256 22.842 0.654136 22.9498L13.3459 29.8352C13.5447 29.9432 13.7703 30 14 30C14.2297 30 14.4553 29.9432 14.6541 29.8352L27.3459 22.9498C27.5447 22.842 27.7099 22.6869 27.8247 22.5001C27.9396 22.3133 28 22.1014 28 21.8857V8.11484C28.0001 7.89903 27.9396 7.68702 27.8248 7.50012C27.71 7.31323 27.5448 7.15805 27.3459 7.05019Z" fill="url(#paint25_linear_365_28043)"/>
<defs>
<linearGradient id="paint0_linear_365_28043" x1="11.8144" y1="1.41813" x2="15.8001" y2="29.4686" gradientUnits="userSpaceOnUse">
<stop stop-color="#FFA06C"/>
<stop offset="0.71" stop-color="#FF693D"/>
<stop offset="1" stop-color="#FF923D"/>
</linearGradient>
<linearGradient id="paint1_linear_365_28043" x1="11.9344" y1="2.16828" x2="15.7003" y2="28.6716" gradientUnits="userSpaceOnUse">
<stop stop-color="#FFA23D"/>
<stop offset="1" stop-color="#FFBC3D"/>
</linearGradient>
<linearGradient id="paint2_linear_365_28043" x1="11.9657" y1="2.35434" x2="15.6764" y2="28.4707" gradientUnits="userSpaceOnUse">
<stop stop-color="#FF7D3D"/>
<stop offset="0.7" stop-color="#FF543D"/>
<stop offset="1" stop-color="#FF703D"/>
</linearGradient>
<linearGradient id="paint3_linear_365_28043" x1="1.41075" y1="8.32616" x2="1.79525" y2="21.7706" gradientUnits="userSpaceOnUse">
<stop stop-color="#FF343D"/>
<stop offset="0.7" stop-color="#FF523F"/>
<stop offset="1" stop-color="#FF913F"/>
</linearGradient>
<linearGradient id="paint4_linear_365_28043" x1="6.94449" y1="21.0822" x2="8.17146" y2="29.7166" gradientUnits="userSpaceOnUse">
<stop stop-color="#FFB33D"/>
<stop offset="1" stop-color="#FF703D"/>
</linearGradient>
<linearGradient id="paint5_linear_365_28043" x1="13.8503" y1="28.4221" x2="25.9543" y2="21.1575" gradientUnits="userSpaceOnUse">
<stop stop-color="#FFE0D1"/>
<stop offset="0.24" stop-color="#FFB33D"/>
<stop offset="1" stop-color="#FF813D"/>
</linearGradient>
<linearGradient id="paint6_linear_365_28043" x1="25.3971" y1="8.74022" x2="27.2523" y2="21.8073" gradientUnits="userSpaceOnUse">
<stop stop-color="#FF5A3D"/>
<stop offset="0.77" stop-color="#FF5E3D"/>
<stop offset="1" stop-color="#FFA73D"/>
</linearGradient>
<linearGradient id="paint7_linear_365_28043" x1="19.7103" y1="0.556935" x2="20.9373" y2="9.19132" gradientUnits="userSpaceOnUse">
<stop stop-color="#FF4A3D"/>
<stop offset="0.22" stop-color="#FF233D"/>
<stop offset="1" stop-color="#FF523F"/>
</linearGradient>
<linearGradient id="paint8_linear_365_28043" x1="1.11941" y1="4.80601" x2="14.0167" y2="4.80601" gradientUnits="userSpaceOnUse">
<stop stop-color="#FF523F"/>
<stop offset="1" stop-color="#FF1D3D"/>
</linearGradient>
<linearGradient id="paint9_linear_365_28043" x1="12.491" y1="4.20741" x2="15.189" y2="26.0863" gradientUnits="userSpaceOnUse">
<stop stop-color="#FFCC94"/>
<stop offset="0.73" stop-color="#FF693D"/>
<stop offset="0.83" stop-color="#FF743D"/>
<stop offset="1" stop-color="#FF923D"/>
</linearGradient>
<linearGradient id="paint10_linear_365_28043" x1="13.8247" y1="19.3256" x2="14.681" y2="26.2678" gradientUnits="userSpaceOnUse">
<stop offset="0.26" stop-color="#FF5E3D"/>
<stop offset="1" stop-color="#FF1D3D"/>
</linearGradient>
<linearGradient id="paint11_linear_365_28043" x1="11.6959" y1="2.88699" x2="15.7503" y2="27.0279" gradientUnits="userSpaceOnUse">
<stop stop-color="#AE1543"/>
<stop offset="0.67" stop-color="#B71C3D"/>
<stop offset="1" stop-color="#AE103F"/>
</linearGradient>
<linearGradient id="paint12_linear_365_28043" x1="13.2144" y1="3.827" x2="14.0759" y2="10.8124" gradientUnits="userSpaceOnUse">
<stop stop-color="#FFE7D4"/>
<stop offset="1" stop-color="#FFB554"/>
</linearGradient>
<linearGradient id="paint13_linear_365_28043" x1="6.86934" y1="14.1807" x2="21.1485" y2="14.1807" gradientUnits="userSpaceOnUse">
<stop stop-color="#AE1543"/>
<stop offset="0.67" stop-color="#B71C3D"/>
<stop offset="1" stop-color="#AE103F"/>
</linearGradient>
<linearGradient id="paint14_linear_365_28043" x1="7.60352" y1="13.9252" x2="14.0109" y2="13.9252" gradientUnits="userSpaceOnUse">
<stop stop-color="#FF693D"/>
<stop offset="1" stop-color="#FFCC94"/>
</linearGradient>
<linearGradient id="paint15_linear_365_28043" x1="7.66531" y1="12.8306" x2="14.0256" y2="13.5631" gradientUnits="userSpaceOnUse">
<stop stop-color="#FFB554"/>
<stop offset="1" stop-color="#FFE7D4"/>
</linearGradient>
<linearGradient id="paint16_linear_365_28043" x1="9.7775" y1="19.601" x2="13.5711" y2="15.203" gradientUnits="userSpaceOnUse">
<stop stop-color="#FF5D3F"/>
<stop offset="1" stop-color="#FF233D"/>
</linearGradient>
<linearGradient id="paint17_linear_365_28043" x1="12.2221" y1="15.3874" x2="10.5966" y2="20.0935" gradientUnits="userSpaceOnUse">
<stop stop-color="#FF693D"/>
<stop offset="1" stop-color="#FFE194"/>
</linearGradient>
<linearGradient id="paint18_linear_365_28043" x1="14.1578" y1="15.6076" x2="17.9145" y2="19.4479" gradientUnits="userSpaceOnUse">
<stop stop-color="#FF523F"/>
<stop offset="1" stop-color="#FF233D"/>
</linearGradient>
<linearGradient id="paint19_linear_365_28043" x1="15.398" y1="14.7282" x2="18.2444" y2="19.7301" gradientUnits="userSpaceOnUse">
<stop stop-color="#FF623D"/>
<stop offset="0.66" stop-color="#FF8443"/>
<stop offset="1" stop-color="#FFB943"/>
</linearGradient>
<linearGradient id="paint20_linear_365_28043" x1="13.8196" y1="14.6541" x2="20.8063" y2="12.7378" gradientUnits="userSpaceOnUse">
<stop stop-color="#FF233D"/>
<stop offset="1" stop-color="#FF3F3F"/>
</linearGradient>
<linearGradient id="paint21_linear_365_28043" x1="14.5441" y1="13.4788" x2="19.84" y2="12.2542" gradientUnits="userSpaceOnUse">
<stop stop-color="#FFE194"/>
<stop offset="1" stop-color="#FF693D"/>
</linearGradient>
<linearGradient id="paint22_linear_365_28043" x1="13.5731" y1="8.65975" x2="14.2152" y2="14.1969" gradientUnits="userSpaceOnUse">
<stop stop-color="#FF693D"/>
<stop offset="1" stop-color="#FFA06C"/>
</linearGradient>
<linearGradient id="paint23_linear_365_28043" x1="13.3957" y1="8.09014" x2="12.8821" y2="14.5095" gradientUnits="userSpaceOnUse">
<stop offset="0.21" stop-color="#FFE5D4"/>
<stop offset="1" stop-color="#FF693D"/>
</linearGradient>
<linearGradient id="paint24_linear_365_28043" x1="13.3207" y1="10.6769" x2="15.6026" y2="18.7674" gradientUnits="userSpaceOnUse">
<stop stop-color="#FFF0C7"/>
<stop offset="0.69" stop-color="#FFC23D"/>
<stop offset="1" stop-color="#FF963D"/>
</linearGradient>
<linearGradient id="paint25_linear_365_28043" x1="11.7121" y1="0.783442" x2="13.4164" y2="12.7767" gradientUnits="userSpaceOnUse">
<stop stop-color="#FF9999"/>
<stop offset="0.17" stop-color="#C67777"/>
<stop offset="0.4" stop-color="#814D4D"/>
<stop offset="0.6" stop-color="#492C2C"/>
<stop offset="0.78" stop-color="#211414"/>
<stop offset="0.92" stop-color="#090505"/>
<stop offset="1"/>
</linearGradient>
</defs>
</svg>
