<svg width="28" height="30" viewBox="0 0 28 30" fill="none" xmlns="http://www.w3.org/2000/svg">
<path d="M27.3462 7.05019L14.6543 0.164776C14.4555 0.0568309 14.2298 0 14.0002 0C13.7705 0 13.5449 0.0568309 13.346 0.164776L0.654144 7.05019C0.45522 7.15805 0.290032 7.31323 0.1752 7.50012C0.0603686 7.68702 -5.78656e-05 7.89903 4.15805e-08 8.11484V21.8857C-1.83533e-05 22.1014 0.0604297 22.3133 0.175262 22.5001C0.290095 22.6869 0.455261 22.842 0.654144 22.9498L13.346 29.8352C13.5449 29.9432 13.7705 30 14.0002 30C14.2298 30 14.4555 29.9432 14.6543 29.8352L27.3462 22.9498C27.545 22.8419 27.71 22.6868 27.8247 22.5C27.9394 22.3132 27.9998 22.1013 27.9998 21.8857V8.11484C27.9998 7.8991 27.9394 7.68716 27.8247 7.50029C27.71 7.31342 27.545 7.15819 27.3462 7.05019Z" fill="url(#paint0_linear_365_28041)"/>
<path d="M13.9998 29.1829C13.9233 29.1829 13.8481 29.1639 13.7819 29.1278L1.08896 22.2419C1.02279 22.2058 0.967838 22.1541 0.929607 22.0918C0.891376 22.0295 0.8712 21.9589 0.871094 21.887V8.11619C0.871214 8.04423 0.891391 7.97356 0.929616 7.91121C0.96784 7.84886 1.02278 7.797 1.08896 7.7608L13.7814 0.87539C13.8477 0.839311 13.9229 0.820313 13.9995 0.820312C14.0761 0.820312 14.1514 0.839311 14.2177 0.87539L26.9101 7.7598C26.9763 7.79598 27.0313 7.84781 27.0697 7.91016C27.108 7.97251 27.1283 8.04319 27.1285 8.11519V21.887C27.1283 21.9589 27.108 22.0296 27.0697 22.0918C27.0313 22.1541 26.9763 22.2058 26.9101 22.2419L14.2182 29.1273C14.1518 29.1635 14.0765 29.1827 13.9998 29.1829Z" fill="url(#paint1_linear_365_28041)"/>
<path d="M26.8019 7.93638L14.109 1.05097C14.0766 1.03326 14.0399 1.02377 14.0024 1.02344C13.9639 1.02355 13.9261 1.03303 13.8927 1.05097L1.19869 7.93638C1.16589 7.95354 1.13837 7.97837 1.11879 8.00846C1.09862 8.04043 1.08795 8.0769 1.08789 8.11407V21.8854C1.0878 21.9214 1.09791 21.9569 1.11719 21.988C1.13615 22.0193 1.16375 22.0453 1.19709 22.0631L13.8911 28.949C13.9244 28.9668 13.962 28.9762 14.0003 28.976C14.0387 28.9763 14.0764 28.9668 14.1095 28.9485L26.8019 22.0631C26.8314 22.0472 26.8565 22.0249 26.8749 21.998C26.8986 21.9647 26.9112 21.9255 26.9111 21.8854V8.11457C26.9112 8.07847 26.9012 8.04298 26.882 8.0117C26.8628 7.98041 26.8352 7.95443 26.8019 7.93638ZM25.8218 21.4129L14.0003 27.8263L2.17884 21.4129V8.58658L14.0003 2.17368L25.8218 8.58658V21.4129Z" fill="url(#paint2_linear_365_28041)"/>
<path d="M2.18159 21.4133V8.58694C2.18159 8.58694 1.14102 7.97979 1.12076 8.00882C1.10058 8.04079 1.0899 8.07727 1.08984 8.11444V21.8858C1.08975 21.9218 1.09987 21.9572 1.11916 21.9884C1.13942 22.0189 2.18159 21.4133 2.18159 21.4133Z" fill="url(#paint3_linear_365_28041)"/>
<path d="M14.0014 27.8275L2.17949 21.4141C2.17949 21.4141 1.10022 21.9581 1.11939 21.9892C1.13835 22.0205 1.16596 22.0465 1.1993 22.0643L13.8922 28.9502C13.9254 28.968 13.9631 28.9773 14.0014 28.9772C14.0397 28.9772 14.0014 27.8275 14.0014 27.8275Z" fill="url(#paint4_linear_365_28041)"/>
<path d="M25.8233 21.4141L14.0014 27.8275C14.0014 27.8275 13.9631 28.9787 14.0014 28.9787C14.0398 28.9789 14.0775 28.9694 14.1106 28.9512L26.8035 22.0643C26.833 22.0484 26.858 22.026 26.8765 21.9992C26.9026 21.9662 25.8233 21.4141 25.8233 21.4141Z" fill="url(#paint5_linear_365_28041)"/>
<path d="M26.8742 21.9994C26.8979 21.966 26.9105 21.9269 26.9105 21.8868V8.11595C26.9103 8.07978 26.9002 8.04427 26.8811 8.01284C26.862 7.9823 25.8203 8.58796 25.8203 8.58796V21.4143C25.8203 21.4143 26.8561 22.0249 26.8742 21.9994Z" fill="url(#paint6_linear_365_28041)"/>
<path d="M14.0008 2.17368L25.8227 8.58658C25.8227 8.58658 26.9014 8.0425 26.8828 8.01146C26.8634 7.98047 26.8359 7.95463 26.8029 7.93638L14.1095 1.05097C14.0771 1.03326 14.0404 1.02377 14.0029 1.02344C13.9625 1.02344 14.0008 2.17368 14.0008 2.17368Z" fill="url(#paint7_linear_365_28041)"/>
<path d="M2.17946 8.58758L14.0014 2.17468C14.0014 2.17468 14.0397 1.02344 14.0014 1.02344C13.9629 1.02355 13.925 1.03303 13.8916 1.05097L1.19927 7.93738C1.16647 7.95454 1.13895 7.97937 1.11937 8.00946C1.10125 8.0415 2.17946 8.58758 2.17946 8.58758Z" fill="url(#paint8_linear_365_28041)"/>
<path d="M3.48438 20.7057V9.29789L13.9986 3.59375L24.5129 9.29789V20.7057L13.9986 26.4098L3.48438 20.7057Z" fill="url(#paint9_linear_365_28041)"/>
<path d="M3.48438 20.4648V20.7036L13.9986 26.4077L24.5129 20.7036V20.4648L13.9986 26.169L3.48438 20.4648Z" fill="url(#paint10_linear_365_28041)"/>
<path d="M14.0012 2.17188L2.17969 8.58478V21.4111L14.0012 27.8245L25.8226 21.4111V8.58478L14.0012 2.17188ZM24.5154 20.7018L14.0012 26.408L3.48691 20.7018V9.29405L14.0012 3.5879L24.5154 9.29405V20.7018Z" fill="#912600"/>
<path d="M2.43945 21.2728V8.72879L13.9988 2.45703L25.5582 8.72879V21.2728L13.9988 27.544L2.43945 21.2728ZM3.22411 9.15424V20.8453L13.9999 26.6916L24.7752 20.8453V9.15424L13.9999 3.30795L3.22411 9.15424Z" fill="url(#paint11_linear_365_28041)"/>
<path d="M13.9986 3.59375L3.48438 9.29789V9.5817L13.9986 3.87756L24.5129 9.5817V9.29789L13.9986 3.59375Z" fill="url(#paint12_linear_365_28041)"/>
<path d="M18.1273 20.8312C18.0206 20.8312 17.9152 20.8095 17.8183 20.7676L14.0106 19.1263L10.203 20.7676C10.0834 20.8191 9.9515 20.8397 9.82068 20.8274C9.68986 20.8152 9.56487 20.7704 9.45854 20.6977C9.35221 20.6251 9.26837 20.5272 9.21562 20.414C9.16286 20.3008 9.1431 20.1765 9.15836 20.0538L9.64257 16.1446L6.80546 13.249C6.71638 13.1582 6.65461 13.0468 6.62651 12.9262C6.5984 12.8056 6.60497 12.6801 6.64553 12.5626C6.68609 12.4452 6.75919 12.34 6.85732 12.2578C6.95545 12.1757 7.07508 12.1196 7.20392 12.0953L11.311 11.3194L13.365 7.88974C13.4295 7.78215 13.5233 7.69261 13.6367 7.6303C13.7502 7.56799 13.8792 7.53516 14.0106 7.53516C14.142 7.53516 14.2711 7.56799 14.3845 7.6303C14.498 7.69261 14.5918 7.78215 14.6563 7.88974L16.7098 11.3204L20.8168 12.0958C20.9457 12.1202 21.0653 12.1764 21.1634 12.2586C21.2615 12.3407 21.3346 12.446 21.3751 12.5634C21.4157 12.6809 21.4222 12.8064 21.3942 12.9271C21.3661 13.0477 21.3043 13.1592 21.2153 13.25L18.3787 16.1446L18.8629 20.0538C18.875 20.1514 18.865 20.2503 18.8336 20.344C18.8021 20.4376 18.75 20.524 18.6805 20.5974C18.611 20.6708 18.5258 20.7296 18.4305 20.7699C18.3351 20.8102 18.2318 20.8311 18.1273 20.8312Z" fill="#912600"/>
<path d="M18.1254 20.587C18.0561 20.5869 17.9876 20.5727 17.9246 20.5454L14.0088 18.8576L10.0925 20.5459C9.99891 20.5863 9.89399 20.5973 9.79326 20.5773C9.69252 20.5573 9.60132 20.5073 9.53315 20.4348C9.48862 20.3874 9.45521 20.3317 9.43511 20.2713C9.41501 20.2109 9.40867 20.1473 9.41649 20.0845L9.91456 16.0631L6.99595 13.0849C6.93833 13.0261 6.89839 12.954 6.88021 12.876C6.86204 12.7979 6.86629 12.7167 6.89254 12.6407C6.91878 12.5647 6.96606 12.4966 7.02954 12.4434C7.09302 12.3903 7.17041 12.3539 7.25377 12.3381L11.478 11.5403L13.5912 8.01095C13.6329 7.94127 13.6936 7.88326 13.767 7.84289C13.8405 7.80253 13.924 7.78125 14.0091 7.78125C14.0942 7.78125 14.1777 7.80253 14.2512 7.84289C14.3246 7.88326 14.3853 7.94127 14.427 8.01095L16.5396 11.5398L20.7639 12.3371C20.8473 12.3528 20.9247 12.3891 20.9883 12.4423C21.0518 12.4954 21.0992 12.5635 21.1255 12.6395C21.1518 12.7155 21.1561 12.7968 21.1379 12.8749C21.1198 12.953 21.0798 13.0251 21.0222 13.0839L18.1031 16.0621L18.6017 20.0835C18.6096 20.1466 18.6031 20.2106 18.5828 20.2713C18.5625 20.332 18.5287 20.3879 18.4837 20.4354C18.4387 20.4829 18.3836 20.521 18.3218 20.547C18.2601 20.573 18.1931 20.5865 18.1254 20.5865V20.587Z" fill="url(#paint13_linear_365_28041)"/>
<path d="M10.4881 15.8768C10.4555 15.7764 10.3992 15.6842 10.3235 15.607L7.60352 12.831L11.5413 12.0877C11.6454 12.0681 11.7438 12.0278 11.83 11.9696C11.9158 11.9135 14.0104 14.7616 14.0104 14.7616C14.0104 14.7616 10.5174 15.9679 10.4881 15.8768Z" fill="url(#paint14_linear_365_28041)"/>
<path d="M7.60352 12.831L11.5413 12.0877C11.6454 12.0681 11.7438 12.0278 11.83 11.9696C11.9158 11.9135 14.0104 14.7616 14.0104 14.7616L7.60352 12.831Z" fill="url(#paint15_linear_365_28041)"/>
<path d="M14.0109 18.2681C13.9043 18.2678 13.7989 18.2893 13.702 18.3312L10.0508 19.9044L10.5148 16.1558C10.5269 16.0608 10.5178 15.9645 10.4881 15.873C10.4556 15.7729 14.0109 14.7578 14.0109 14.7578C14.0109 14.7578 14.1175 18.2681 14.0109 18.2681Z" fill="url(#paint16_linear_365_28041)"/>
<path d="M10.0508 19.9083L10.5148 16.1597C10.5269 16.0647 10.5178 15.9684 10.4881 15.8769C10.4556 15.7768 14.0109 14.7617 14.0109 14.7617L10.0508 19.9083Z" fill="url(#paint17_linear_365_28041)"/>
<path d="M14.3192 18.3327C14.2224 18.2903 14.117 18.2683 14.0102 18.2681C13.9037 18.2681 14.0102 14.7578 14.0102 14.7578C14.0102 14.7578 17.5698 15.7654 17.5373 15.859C17.5039 15.9544 17.4932 16.0556 17.5059 16.1553L17.9699 19.9039L14.3192 18.3327Z" fill="url(#paint18_linear_365_28041)"/>
<path d="M14.0098 14.7617C14.0098 14.7617 17.5693 15.7693 17.5368 15.8629C17.5034 15.9583 17.4927 16.0595 17.5054 16.1592L17.9694 19.9078L14.0098 14.7617Z" fill="url(#paint19_linear_365_28041)"/>
<path d="M14.0098 14.7627C14.0098 14.7627 16.1038 11.9096 16.1891 11.9697C16.2756 12.0286 16.3746 12.0692 16.4794 12.0888L20.4167 12.8321L17.6961 15.6091C17.6237 15.6823 17.5692 15.7694 17.5363 15.8644C17.5043 15.9585 14.0098 14.7627 14.0098 14.7627Z" fill="url(#paint20_linear_365_28041)"/>
<path d="M14.0098 14.7627C14.0098 14.7627 16.1038 11.9096 16.1891 11.9697C16.2756 12.0286 16.3746 12.0692 16.4794 12.0888L20.4167 12.8321L14.0098 14.7627Z" fill="url(#paint21_linear_365_28041)"/>
<path d="M14.0114 14.7627C14.0114 14.7627 11.7452 12.0283 11.8305 11.9707C11.9179 11.9115 11.9906 11.8351 12.0436 11.747L14.0114 8.46094L15.9824 11.75C16.0345 11.8374 16.1061 11.9132 16.1923 11.9722C16.2765 12.0278 14.0114 14.7627 14.0114 14.7627Z" fill="url(#paint22_linear_365_28041)"/>
<path d="M14.0114 14.7627C14.0114 14.7627 11.7452 12.0283 11.8305 11.9707C11.9179 11.9115 11.9906 11.8351 12.0436 11.747L14.0114 8.46094V14.7627Z" fill="url(#paint23_linear_365_28041)"/>
<path d="M14.0109 8.45703L13.98 14.7248L7.60352 12.8307L13.963 14.7753L10.0508 19.9079L14.0093 14.8124L17.9706 19.9079L14.0584 14.7778L20.4178 12.8307L14.0402 14.7258L14.0109 8.45703Z" fill="url(#paint24_linear_365_28041)"/>
<path style="mix-blend-mode:screen" d="M27.3462 7.05019L14.6543 0.164776C14.4555 0.0568309 14.2298 0 14.0002 0C13.7705 0 13.5449 0.0568309 13.346 0.164776L0.654144 7.05019C0.45522 7.15805 0.290032 7.31323 0.1752 7.50012C0.0603686 7.68702 -5.78656e-05 7.89903 4.15805e-08 8.11484V21.8857C-1.83533e-05 22.1014 0.0604297 22.3133 0.175262 22.5001C0.290095 22.6869 0.455261 22.842 0.654144 22.9498L13.346 29.8352C13.5449 29.9432 13.7705 30 14.0002 30C14.2298 30 14.4555 29.9432 14.6543 29.8352L27.3462 22.9498C27.545 22.8419 27.71 22.6868 27.8247 22.5C27.9394 22.3132 27.9998 22.1013 27.9998 21.8857V8.11484C27.9998 7.8991 27.9394 7.68716 27.8247 7.50029C27.71 7.31342 27.545 7.15819 27.3462 7.05019Z" fill="url(#paint25_linear_365_28041)"/>
<defs>
<linearGradient id="paint0_linear_365_28041" x1="11.814" y1="1.41813" x2="15.8001" y2="29.4687" gradientUnits="userSpaceOnUse">
<stop stop-color="#FFCA46"/>
<stop offset="0.71" stop-color="#FFA300"/>
<stop offset="1" stop-color="#FFC800"/>
</linearGradient>
<linearGradient id="paint1_linear_365_28041" x1="11.9345" y1="2.16828" x2="15.7004" y2="28.6716" gradientUnits="userSpaceOnUse">
<stop stop-color="#FFD500"/>
<stop offset="1" stop-color="#FFEA00"/>
</linearGradient>
<linearGradient id="paint2_linear_365_28041" x1="11.9649" y1="2.35437" x2="15.6761" y2="28.4708" gradientUnits="userSpaceOnUse">
<stop stop-color="#FFB600"/>
<stop offset="0.7" stop-color="#FF8C00"/>
<stop offset="1" stop-color="#FFAA00"/>
</linearGradient>
<linearGradient id="paint3_linear_365_28041" x1="1.41236" y1="8.32616" x2="1.79685" y2="21.7706" gradientUnits="userSpaceOnUse">
<stop stop-color="#FF6A00"/>
<stop offset="0.7" stop-color="#FF8512"/>
<stop offset="1" stop-color="#FFC412"/>
</linearGradient>
<linearGradient id="paint4_linear_365_28041" x1="6.94457" y1="21.0822" x2="8.17106" y2="29.7166" gradientUnits="userSpaceOnUse">
<stop stop-color="#FFE100"/>
<stop offset="1" stop-color="#FFAA00"/>
</linearGradient>
<linearGradient id="paint5_linear_365_28041" x1="13.8523" y1="28.4221" x2="25.9557" y2="21.1574" gradientUnits="userSpaceOnUse">
<stop stop-color="#FFF896"/>
<stop offset="0.24" stop-color="#FFE100"/>
<stop offset="1" stop-color="#FFBB00"/>
</linearGradient>
<linearGradient id="paint6_linear_365_28041" x1="25.397" y1="8.74412" x2="27.2523" y2="21.8112" gradientUnits="userSpaceOnUse">
<stop stop-color="#FF9100"/>
<stop offset="0.77" stop-color="#FF9500"/>
<stop offset="1" stop-color="#FFD900"/>
</linearGradient>
<linearGradient id="paint7_linear_365_28041" x1="19.712" y1="0.556935" x2="20.9385" y2="9.19131" gradientUnits="userSpaceOnUse">
<stop stop-color="#FF8000"/>
<stop offset="0.22" stop-color="#FF5700"/>
<stop offset="1" stop-color="#FF8512"/>
</linearGradient>
<linearGradient id="paint8_linear_365_28041" x1="1.12096" y1="4.80601" x2="14.0184" y2="4.80601" gradientUnits="userSpaceOnUse">
<stop stop-color="#FF8512"/>
<stop offset="1" stop-color="#F55400"/>
</linearGradient>
<linearGradient id="paint9_linear_365_28041" x1="12.4906" y1="4.20741" x2="15.189" y2="26.0863" gradientUnits="userSpaceOnUse">
<stop stop-color="#FFE96A"/>
<stop offset="0.73" stop-color="#FFA300"/>
<stop offset="0.83" stop-color="#FFAE00"/>
<stop offset="1" stop-color="#FFC800"/>
</linearGradient>
<linearGradient id="paint10_linear_365_28041" x1="13.8228" y1="19.3256" x2="14.6786" y2="26.2678" gradientUnits="userSpaceOnUse">
<stop offset="0.26" stop-color="#FF9500"/>
<stop offset="1" stop-color="#FF5500"/>
</linearGradient>
<linearGradient id="paint11_linear_365_28041" x1="11.696" y1="2.88699" x2="15.7499" y2="27.0279" gradientUnits="userSpaceOnUse">
<stop stop-color="#A13C1A"/>
<stop offset="0.67" stop-color="#A94A00"/>
<stop offset="1" stop-color="#A13915"/>
</linearGradient>
<linearGradient id="paint12_linear_365_28041" x1="13.2145" y1="3.827" x2="14.076" y2="10.8124" gradientUnits="userSpaceOnUse">
<stop stop-color="#FFFFAE"/>
<stop offset="1" stop-color="#FFDD37"/>
</linearGradient>
<linearGradient id="paint13_linear_365_28041" x1="6.86917" y1="14.1846" x2="21.149" y2="14.1846" gradientUnits="userSpaceOnUse">
<stop stop-color="#A13C1A"/>
<stop offset="0.67" stop-color="#A94A00"/>
<stop offset="1" stop-color="#A13915"/>
</linearGradient>
<linearGradient id="paint14_linear_365_28041" x1="7.60352" y1="13.9252" x2="14.0109" y2="13.9252" gradientUnits="userSpaceOnUse">
<stop stop-color="#FFA300"/>
<stop offset="1" stop-color="#FFE96A"/>
</linearGradient>
<linearGradient id="paint15_linear_365_28041" x1="7.66531" y1="12.8305" x2="14.0252" y2="13.563" gradientUnits="userSpaceOnUse">
<stop stop-color="#FFDD37"/>
<stop offset="1" stop-color="#FFFFAE"/>
</linearGradient>
<linearGradient id="paint16_linear_365_28041" x1="9.7775" y1="19.601" x2="13.5716" y2="15.2029" gradientUnits="userSpaceOnUse">
<stop stop-color="#FF9212"/>
<stop offset="1" stop-color="#FF5700"/>
</linearGradient>
<linearGradient id="paint17_linear_365_28041" x1="12.2221" y1="15.3874" x2="10.5966" y2="20.0935" gradientUnits="userSpaceOnUse">
<stop stop-color="#FFA300"/>
<stop offset="1" stop-color="#FFFF6A"/>
</linearGradient>
<linearGradient id="paint18_linear_365_28041" x1="14.1583" y1="15.6052" x2="17.915" y2="19.4456" gradientUnits="userSpaceOnUse">
<stop stop-color="#FF8512"/>
<stop offset="1" stop-color="#FF5700"/>
</linearGradient>
<linearGradient id="paint19_linear_365_28041" x1="15.398" y1="14.7282" x2="18.2444" y2="19.7301" gradientUnits="userSpaceOnUse">
<stop stop-color="#FF9B00"/>
<stop offset="0.66" stop-color="#FFB91B"/>
<stop offset="1" stop-color="#FFE31B"/>
</linearGradient>
<linearGradient id="paint20_linear_365_28041" x1="13.8201" y1="14.6541" x2="20.8064" y2="12.7378" gradientUnits="userSpaceOnUse">
<stop stop-color="#FF5700"/>
<stop offset="1" stop-color="#FF7312"/>
</linearGradient>
<linearGradient id="paint21_linear_365_28041" x1="14.5446" y1="13.4788" x2="19.84" y2="12.2542" gradientUnits="userSpaceOnUse">
<stop stop-color="#FFFF6A"/>
<stop offset="1" stop-color="#FFA300"/>
</linearGradient>
<linearGradient id="paint22_linear_365_28041" x1="13.5756" y1="8.66115" x2="14.2178" y2="14.1983" gradientUnits="userSpaceOnUse">
<stop stop-color="#FFA300"/>
<stop offset="1" stop-color="#FFCA46"/>
</linearGradient>
<linearGradient id="paint23_linear_365_28041" x1="13.3982" y1="8.09154" x2="12.8847" y2="14.5109" gradientUnits="userSpaceOnUse">
<stop offset="0.21" stop-color="#FFFF98"/>
<stop offset="1" stop-color="#FFA300"/>
</linearGradient>
<linearGradient id="paint24_linear_365_28041" x1="13.3227" y1="10.6769" x2="15.6041" y2="18.7674" gradientUnits="userSpaceOnUse">
<stop stop-color="white"/>
<stop offset="0.69" stop-color="#FFED00"/>
<stop offset="1" stop-color="#FFCD00"/>
</linearGradient>
<linearGradient id="paint25_linear_365_28041" x1="11.7123" y1="0.783442" x2="13.4165" y2="12.7767" gradientUnits="userSpaceOnUse">
<stop stop-color="#FFF48F"/>
<stop offset="0.17" stop-color="#C6BE6F"/>
<stop offset="0.4" stop-color="#817B48"/>
<stop offset="0.6" stop-color="#494629"/>
<stop offset="0.78" stop-color="#212013"/>
<stop offset="0.92" stop-color="#090905"/>
<stop offset="1"/>
</linearGradient>
</defs>
</svg>
