<svg width="28" height="30" viewBox="0 0 28 30" fill="none" xmlns="http://www.w3.org/2000/svg">
<path d="M27.3459 7.05019L14.6541 0.164776C14.4553 0.0568309 14.2297 0 14 0C13.7703 0 13.5447 0.0568309 13.3459 0.164776L0.654136 7.05019C0.455214 7.15805 0.290029 7.31323 0.175198 7.50012C0.0603678 7.68702 -5.78649e-05 7.89903 4.158e-08 8.11484V21.8857C-1.83531e-05 22.1014 0.0604289 22.3133 0.17526 22.5001C0.290091 22.6869 0.455256 22.842 0.654136 22.9498L13.3459 29.8352C13.5447 29.9432 13.7703 30 14 30C14.2297 30 14.4553 29.9432 14.6541 29.8352L27.3459 22.9498C27.5447 22.842 27.7099 22.6869 27.8247 22.5001C27.9396 22.3133 28 22.1014 28 21.8857V8.11484C28.0001 7.89903 27.9396 7.68702 27.8248 7.50012C27.71 7.31323 27.5448 7.15805 27.3459 7.05019Z" fill="url(#paint0_linear_365_28042)"/>
<path d="M13.9996 29.1829C13.9231 29.1829 13.8479 29.1639 13.7818 29.1278L1.08949 22.2419C1.02318 22.2059 0.968098 22.1542 0.929766 22.0919C0.891434 22.0296 0.8712 21.959 0.871094 21.887V8.11619C0.871215 8.04417 0.891449 7.97345 0.929775 7.91108C0.968101 7.84872 1.02318 7.7969 1.08949 7.7608L13.7812 0.87539C13.8475 0.839311 13.9228 0.820313 13.9994 0.820312C14.076 0.820312 14.1512 0.839311 14.2175 0.87539L26.9097 7.7598C26.9761 7.7959 27.0311 7.84772 27.0695 7.91008C27.1078 7.97245 27.128 8.04317 27.1281 8.11519V21.887C27.128 21.959 27.1078 22.0296 27.0695 22.0919C27.0311 22.1542 26.9761 22.2059 26.9097 22.2419L14.217 29.1273C14.1509 29.1633 14.076 29.1825 13.9996 29.1829Z" fill="url(#paint1_linear_365_28042)"/>
<path d="M26.802 7.93635L14.1113 1.05093C14.0781 1.03292 14.0404 1.02344 14.0021 1.02344C13.9638 1.02344 13.9261 1.03292 13.8929 1.05093L1.19905 7.93635C1.16704 7.954 1.14029 7.97897 1.12128 8.00893C1.10072 8.04077 1.08985 8.0773 1.08985 8.11454V21.8854C1.08958 21.9211 1.09928 21.9564 1.11796 21.9875C1.13665 22.0187 1.16369 22.0447 1.19639 22.0631L13.8918 28.949C13.925 28.9668 13.9626 28.9763 14.0008 28.9763C14.039 28.9763 14.0766 28.9668 14.1097 28.949L26.802 22.0631C26.8347 22.0448 26.8618 22.0188 26.8805 21.9876C26.8992 21.9564 26.9089 21.9212 26.9085 21.8854V8.11454C26.9086 8.07834 26.8985 8.04277 26.8792 8.01143C26.8607 7.98063 26.8341 7.95479 26.802 7.93635ZM25.8218 21.4129L14.0005 27.8263L2.17919 21.4129V8.58655L14.0005 2.17364L25.8218 8.58655V21.4129Z" fill="url(#paint2_linear_365_28042)"/>
<path d="M2.17998 21.4133V8.58694C2.17998 8.58694 1.13995 7.97979 1.12076 8.00882C1.10058 8.04079 1.0899 8.07727 1.08984 8.11444V21.8858C1.09003 21.9218 1.10013 21.9571 1.11916 21.9884C1.13835 22.0189 2.17998 21.4133 2.17998 21.4133Z" fill="url(#paint3_linear_365_28042)"/>
<path d="M14.0012 27.8275L2.17946 21.4141C2.17946 21.4141 1.10073 21.9581 1.11938 21.9892C1.13864 22.0203 1.16618 22.0462 1.19928 22.0643L13.8925 28.9502C13.9249 28.9678 13.9616 28.9771 13.9991 28.9772C14.0396 28.9772 14.0012 27.8275 14.0012 27.8275Z" fill="url(#paint4_linear_365_28042)"/>
<path d="M25.8212 21.4141L13.9995 27.8275C13.9995 27.8275 13.9611 28.9787 13.9995 28.9787C14.0378 28.9789 14.0756 28.9694 14.1087 28.9512L26.8014 22.0643C26.831 22.0483 26.8562 22.026 26.8749 21.9992C26.8978 21.9662 25.8212 21.4141 25.8212 21.4141Z" fill="url(#paint5_linear_365_28042)"/>
<path d="M26.8767 21.9994C26.9 21.9659 26.9124 21.9268 26.9124 21.8868V8.11595C26.9125 8.07975 26.9024 8.04418 26.8831 8.01284C26.8644 7.9823 25.8223 8.58796 25.8223 8.58796V21.4143C25.8223 21.4143 26.858 22.0249 26.8767 21.9994Z" fill="url(#paint6_linear_365_28042)"/>
<path d="M13.999 2.17368L25.8207 8.58658C25.8207 8.58658 26.9 8.0425 26.8808 8.01146C26.8616 7.98035 26.834 7.95448 26.8009 7.93638L14.1098 1.05097C14.0766 1.03299 14.0389 1.0235 14.0006 1.02344C13.9606 1.02344 13.999 2.17368 13.999 2.17368Z" fill="url(#paint7_linear_365_28042)"/>
<path d="M2.17789 8.58758L13.9996 2.17468C13.9996 2.17468 14.038 1.02344 13.9996 1.02344C13.9613 1.0235 13.9236 1.03299 13.8904 1.05097L1.19771 7.93738C1.16566 7.95516 1.13876 7.98009 1.11941 8.00996C1.0997 8.04149 2.17789 8.58758 2.17789 8.58758Z" fill="url(#paint8_linear_365_28042)"/>
<path d="M3.48633 20.7057V9.29789L14.0004 3.59375L24.5146 9.29789V20.7057L14.0004 26.4098L3.48633 20.7057Z" fill="url(#paint9_linear_365_28042)"/>
<path d="M3.48633 20.4648V20.7036L14.0004 26.4077L24.5146 20.7036V20.4648L14.0004 26.169L3.48633 20.4648Z" fill="url(#paint10_linear_365_28042)"/>
<path d="M14.001 2.17188L2.17969 8.58478V21.4111L14.001 27.8245L25.8223 21.4111V8.58478L14.001 2.17188ZM24.5151 20.7018L14.001 26.408L3.48689 20.7018V9.29404L14.001 3.5879L24.5151 9.29404V20.7018Z" fill="#1F3F61"/>
<path d="M2.43945 21.2728V8.72878L13.9987 2.45703L25.5579 8.72878V21.2728L13.9987 27.544L2.43945 21.2728ZM3.2241 9.15574V20.8453L13.9998 26.6916L24.7754 20.8453V9.15424L13.9998 3.30795L3.2241 9.15574Z" fill="url(#paint11_linear_365_28042)"/>
<path d="M14.0004 3.59375L3.48633 9.29789V9.5817L14.0004 3.87756L24.5146 9.5817V9.29789L14.0004 3.59375Z" fill="url(#paint12_linear_365_28042)"/>
<path d="M18.1262 20.8313C18.0195 20.8312 17.9141 20.8095 17.8172 20.7677L14.0101 19.1264L10.203 20.7677C10.0834 20.8195 9.9513 20.8404 9.82024 20.8283C9.68918 20.8162 9.56391 20.7715 9.45735 20.6988C9.35078 20.6261 9.26676 20.5281 9.21394 20.4147C9.16112 20.3013 9.1414 20.1768 9.15682 20.0539L9.64103 16.1447L6.80342 13.2491C6.71434 13.1583 6.65259 13.0468 6.62451 12.9262C6.59643 12.8055 6.60305 12.68 6.64367 12.5625C6.68429 12.4451 6.75745 12.3399 6.85565 12.2578C6.95384 12.1757 7.07352 12.1196 7.2024 12.0953L11.3094 11.3195L13.365 7.88982C13.4294 7.78221 13.5232 7.69266 13.6366 7.63033C13.75 7.568 13.879 7.53516 14.0104 7.53516C14.1418 7.53516 14.2708 7.568 14.3842 7.63033C14.4976 7.69266 14.5913 7.78221 14.6557 7.88982L16.7092 11.3205L20.8162 12.0958C20.9451 12.1202 21.0648 12.1763 21.1629 12.2585C21.2611 12.3406 21.3342 12.4459 21.3749 12.5633C21.4155 12.6808 21.4221 12.8064 21.394 12.927C21.366 13.0477 21.3042 13.1592 21.2152 13.2501L18.3776 16.1447L18.8618 20.0539C18.874 20.1515 18.864 20.2504 18.8326 20.3441C18.8012 20.4378 18.7491 20.5242 18.6796 20.5977C18.6101 20.6711 18.5249 20.7299 18.4295 20.7701C18.3341 20.8104 18.2307 20.8312 18.1262 20.8313Z" fill="#1F3F61"/>
<path d="M18.1267 20.5849C18.0576 20.5848 17.9892 20.5706 17.9264 20.5433L14.0107 18.8555L10.0944 20.5438C10.0317 20.5707 9.96356 20.5847 9.89463 20.5849C9.82695 20.5849 9.76003 20.5714 9.69827 20.5454C9.63652 20.5194 9.58134 20.4813 9.53635 20.4338C9.49137 20.3863 9.4576 20.3304 9.43727 20.2697C9.41694 20.209 9.41052 20.145 9.41841 20.0818L9.91647 16.0605L6.9979 13.0823C6.94028 13.0235 6.90034 12.9514 6.88217 12.8734C6.864 12.7953 6.86825 12.7141 6.89449 12.6381C6.92073 12.5621 6.96801 12.494 7.03149 12.4408C7.09497 12.3876 7.17236 12.3513 7.25572 12.3355L11.4804 11.5376L13.5931 8.00884C13.6346 7.93867 13.6953 7.88021 13.769 7.83951C13.8427 7.7988 13.9266 7.77734 14.012 7.77734C14.0975 7.77734 14.1814 7.7988 14.255 7.83951C14.3287 7.88021 14.3894 7.93867 14.431 8.00884L16.5431 11.5376L20.7672 12.335C20.8506 12.3507 20.9281 12.387 20.9916 12.4402C21.0552 12.4933 21.1025 12.5614 21.1288 12.6374C21.1551 12.7134 21.1594 12.7947 21.1413 12.8727C21.1231 12.9508 21.0832 13.023 21.0256 13.0818L18.1065 16.0605L18.6045 20.0818C18.6124 20.145 18.606 20.209 18.5857 20.2697C18.5654 20.3304 18.5316 20.3863 18.4866 20.4338C18.4416 20.4813 18.3864 20.5194 18.3247 20.5454C18.2629 20.5714 18.196 20.5849 18.1283 20.5849H18.1267Z" fill="url(#paint13_linear_365_28042)"/>
<path d="M10.4888 15.8768C10.4564 15.7764 10.4001 15.6841 10.3242 15.6071L7.60742 12.8311L11.5452 12.0878C11.649 12.068 11.7473 12.0277 11.8334 11.9696C11.9191 11.9111 14.0142 14.7616 14.0142 14.7616C14.0142 14.7616 10.517 15.9679 10.4888 15.8768Z" fill="url(#paint14_linear_365_28042)"/>
<path d="M7.60352 12.8311L11.5413 12.0878C11.6451 12.068 11.7434 12.0277 11.8294 11.9696C11.9152 11.9111 14.0103 14.7616 14.0103 14.7616L7.60352 12.8311Z" fill="url(#paint15_linear_365_28042)"/>
<path d="M14.0109 18.2681C13.9044 18.2679 13.7992 18.2894 13.7025 18.3312L10.0508 19.9044L10.5153 16.1558C10.5269 16.0608 10.5176 15.9646 10.4881 15.873C10.4562 15.7729 14.0109 14.7578 14.0109 14.7578C14.0109 14.7578 14.118 18.2681 14.0109 18.2681Z" fill="url(#paint16_linear_365_28042)"/>
<path d="M10.0508 19.9083L10.5153 16.1597C10.5269 16.0647 10.5176 15.9685 10.4881 15.8769C10.4562 15.7768 14.0109 14.7617 14.0109 14.7617L10.0508 19.9083Z" fill="url(#paint17_linear_365_28042)"/>
<path d="M14.3192 18.3351C14.2223 18.2933 14.1169 18.2718 14.0102 18.272C13.9037 18.272 14.0102 14.7617 14.0102 14.7617C14.0102 14.7617 17.5703 15.7693 17.5373 15.8629C17.5041 15.9584 17.4934 16.0595 17.5058 16.1592L17.9704 19.9078L14.3192 18.3351Z" fill="url(#paint18_linear_365_28042)"/>
<path d="M14.0098 14.7617C14.0098 14.7617 17.5698 15.7693 17.5368 15.8629C17.5036 15.9584 17.4929 16.0595 17.5054 16.1592L17.9699 19.9078L14.0098 14.7617Z" fill="url(#paint19_linear_365_28042)"/>
<path d="M14.0117 14.7627C14.0117 14.7627 16.1058 11.9096 16.191 11.9697C16.2776 12.0284 16.3766 12.069 16.4813 12.0888L20.4185 12.8321L17.6986 15.6091C17.6264 15.6824 17.5719 15.7695 17.5387 15.8644C17.5063 15.9585 14.0117 14.7627 14.0117 14.7627Z" fill="url(#paint20_linear_365_28042)"/>
<path d="M14.0117 14.7627C14.0117 14.7627 16.1058 11.9096 16.191 11.9697C16.2776 12.0284 16.3766 12.069 16.4813 12.0888L20.4185 12.8321L14.0117 14.7627Z" fill="url(#paint21_linear_365_28042)"/>
<path d="M14.0114 14.7613C14.0114 14.7613 11.7452 12.0269 11.8305 11.9693C11.918 11.9102 11.9907 11.8339 12.0436 11.7456L14.0146 8.45703L15.9856 11.7461C16.0358 11.8331 16.1054 11.9089 16.1896 11.9683C16.2764 12.0264 14.0114 14.7613 14.0114 14.7613Z" fill="url(#paint22_linear_365_28042)"/>
<path d="M14.0114 14.7613C14.0114 14.7613 11.7452 12.0269 11.8305 11.9693C11.918 11.9102 11.9907 11.8339 12.0436 11.7456L14.0146 8.45703L14.0114 14.7613Z" fill="url(#paint23_linear_365_28042)"/>
<path d="M14.0103 8.45703L13.98 14.7248L7.60352 12.8307L13.9629 14.7753L10.0502 19.9079L14.0087 14.8124L17.9704 19.9079L14.0577 14.7778L20.4171 12.8307L14.0402 14.7258L14.0103 8.45703Z" fill="url(#paint24_linear_365_28042)"/>
<path style="mix-blend-mode:screen" d="M27.3459 7.05019L14.6541 0.164776C14.4553 0.0568309 14.2297 0 14 0C13.7703 0 13.5447 0.0568309 13.3459 0.164776L0.654136 7.05019C0.455214 7.15805 0.290029 7.31323 0.175198 7.50012C0.0603678 7.68702 -5.78649e-05 7.89903 4.158e-08 8.11484V21.8857C-1.83531e-05 22.1014 0.0604289 22.3133 0.17526 22.5001C0.290091 22.6869 0.455256 22.842 0.654136 22.9498L13.3459 29.8352C13.5447 29.9432 13.7703 30 14 30C14.2297 30 14.4553 29.9432 14.6541 29.8352L27.3459 22.9498C27.5447 22.842 27.7099 22.6869 27.8247 22.5001C27.9396 22.3133 28 22.1014 28 21.8857V8.11484C28.0001 7.89903 27.9396 7.68702 27.8248 7.50012C27.71 7.31323 27.5448 7.15805 27.3459 7.05019Z" fill="url(#paint25_linear_365_28042)"/>
<defs>
<linearGradient id="paint0_linear_365_28042" x1="11.8144" y1="1.41813" x2="15.8001" y2="29.4686" gradientUnits="userSpaceOnUse">
<stop stop-color="#A2CED8"/>
<stop offset="0.71" stop-color="#4772AE"/>
<stop offset="1" stop-color="#5972AF"/>
</linearGradient>
<linearGradient id="paint1_linear_365_28042" x1="11.9344" y1="2.16828" x2="15.7003" y2="28.6716" gradientUnits="userSpaceOnUse">
<stop stop-color="#A8D6E0"/>
<stop offset="1" stop-color="#71B1E3"/>
</linearGradient>
<linearGradient id="paint2_linear_365_28042" x1="11.9657" y1="2.35434" x2="15.6764" y2="28.4707" gradientUnits="userSpaceOnUse">
<stop stop-color="#5472AF"/>
<stop offset="0.7" stop-color="#3F72AE"/>
<stop offset="1" stop-color="#4F72AF"/>
</linearGradient>
<linearGradient id="paint3_linear_365_28042" x1="1.41075" y1="8.32616" x2="1.79525" y2="21.7706" gradientUnits="userSpaceOnUse">
<stop stop-color="#1A62AD"/>
<stop offset="0.7" stop-color="#478AB4"/>
<stop offset="1" stop-color="#5A91D1"/>
</linearGradient>
<linearGradient id="paint4_linear_365_28042" x1="6.94448" y1="21.0822" x2="8.17146" y2="29.7166" gradientUnits="userSpaceOnUse">
<stop stop-color="#5768CF"/>
<stop offset="1" stop-color="#67A0D4"/>
</linearGradient>
<linearGradient id="paint5_linear_365_28042" x1="13.8508" y1="28.4221" x2="25.9542" y2="21.1575" gradientUnits="userSpaceOnUse">
<stop stop-color="#9CC8D5"/>
<stop offset="0.36" stop-color="#5E92D6"/>
<stop offset="1" stop-color="#567AC7"/>
</linearGradient>
<linearGradient id="paint6_linear_365_28042" x1="25.399" y1="8.74412" x2="27.2543" y2="21.8112" gradientUnits="userSpaceOnUse">
<stop stop-color="#2863AE"/>
<stop offset="0.77" stop-color="#4272AE"/>
<stop offset="1" stop-color="#768CE8"/>
</linearGradient>
<linearGradient id="paint7_linear_365_28042" x1="19.7101" y1="0.556935" x2="20.9371" y2="9.19132" gradientUnits="userSpaceOnUse">
<stop stop-color="#0B4E9C"/>
<stop offset="1" stop-color="#478AB4"/>
</linearGradient>
<linearGradient id="paint8_linear_365_28042" x1="1.11941" y1="4.80601" x2="14.0167" y2="4.80601" gradientUnits="userSpaceOnUse">
<stop stop-color="#4A96C7"/>
<stop offset="1" stop-color="#115EA6"/>
</linearGradient>
<linearGradient id="paint9_linear_365_28042" x1="12.4929" y1="4.20741" x2="15.191" y2="26.0863" gradientUnits="userSpaceOnUse">
<stop stop-color="#C6F8FF"/>
<stop offset="0.73" stop-color="#4772AE"/>
<stop offset="0.9" stop-color="#5075B9"/>
<stop offset="1" stop-color="#5877C2"/>
</linearGradient>
<linearGradient id="paint10_linear_365_28042" x1="13.8247" y1="19.3256" x2="14.681" y2="26.2678" gradientUnits="userSpaceOnUse">
<stop stop-color="#2666C7"/>
<stop offset="1" stop-color="#115EA6"/>
</linearGradient>
<linearGradient id="paint11_linear_365_28042" x1="11.6959" y1="2.88699" x2="15.7503" y2="27.0279" gradientUnits="userSpaceOnUse">
<stop stop-color="#1C4F81"/>
<stop offset="0.67" stop-color="#1F448F"/>
<stop offset="1" stop-color="#1F578C"/>
</linearGradient>
<linearGradient id="paint12_linear_365_28042" x1="13.2163" y1="3.827" x2="14.0778" y2="10.8124" gradientUnits="userSpaceOnUse">
<stop stop-color="white"/>
<stop offset="1" stop-color="#9FC1CF"/>
</linearGradient>
<linearGradient id="paint13_linear_365_28042" x1="6.87112" y1="14.1825" x2="21.1502" y2="14.1825" gradientUnits="userSpaceOnUse">
<stop stop-color="#1F578C"/>
<stop offset="0.33" stop-color="#1F448F"/>
<stop offset="1" stop-color="#1C4F81"/>
</linearGradient>
<linearGradient id="paint14_linear_365_28042" x1="7.60369" y1="13.9252" x2="14.0105" y2="13.9252" gradientUnits="userSpaceOnUse">
<stop stop-color="#4772AE"/>
<stop offset="1" stop-color="#A3EDFF"/>
</linearGradient>
<linearGradient id="paint15_linear_365_28042" x1="8.08242" y1="12.0487" x2="14.5444" y2="14.0398" gradientUnits="userSpaceOnUse">
<stop stop-color="#90CDE6"/>
<stop offset="0.16" stop-color="#9AD1E8"/>
<stop offset="0.42" stop-color="#B3DDEE"/>
<stop offset="0.76" stop-color="#DDF0F7"/>
<stop offset="1" stop-color="white"/>
</linearGradient>
<linearGradient id="paint16_linear_365_28042" x1="9.7775" y1="19.601" x2="13.5711" y2="15.203" gradientUnits="userSpaceOnUse">
<stop stop-color="#2B91CF"/>
<stop offset="1" stop-color="#1061AD"/>
</linearGradient>
<linearGradient id="paint17_linear_365_28042" x1="12.2221" y1="15.3874" x2="10.5966" y2="20.0935" gradientUnits="userSpaceOnUse">
<stop stop-color="#4182C7"/>
<stop offset="1" stop-color="#96E2FF"/>
</linearGradient>
<linearGradient id="paint18_linear_365_28042" x1="14.1578" y1="15.6076" x2="17.9145" y2="19.4479" gradientUnits="userSpaceOnUse">
<stop stop-color="#388ED9"/>
<stop offset="1" stop-color="#216AAD"/>
</linearGradient>
<linearGradient id="paint19_linear_365_28042" x1="15.398" y1="14.7282" x2="18.2444" y2="19.7301" gradientUnits="userSpaceOnUse">
<stop stop-color="#2E85C7"/>
<stop offset="0.29" stop-color="#3187C9"/>
<stop offset="0.51" stop-color="#3A8DD1"/>
<stop offset="0.7" stop-color="#4A96DD"/>
<stop offset="0.88" stop-color="#61A4EF"/>
<stop offset="1" stop-color="#75B0FF"/>
</linearGradient>
<linearGradient id="paint20_linear_365_28042" x1="13.8215" y1="14.6541" x2="20.8083" y2="12.7378" gradientUnits="userSpaceOnUse">
<stop stop-color="#0059AD"/>
<stop offset="1" stop-color="#2B91CF"/>
</linearGradient>
<linearGradient id="paint21_linear_365_28042" x1="14.546" y1="13.4788" x2="19.8419" y2="12.2542" gradientUnits="userSpaceOnUse">
<stop stop-color="#B0F4FF"/>
<stop offset="1" stop-color="#4074BD"/>
</linearGradient>
<linearGradient id="paint22_linear_365_28042" x1="13.5751" y1="8.65975" x2="14.2172" y2="14.1969" gradientUnits="userSpaceOnUse">
<stop stop-color="#4772AE"/>
<stop offset="1" stop-color="#78BEE3"/>
</linearGradient>
<linearGradient id="paint23_linear_365_28042" x1="13.3977" y1="8.09014" x2="12.8846" y2="14.5094" gradientUnits="userSpaceOnUse">
<stop offset="0.21" stop-color="#F9FFFF"/>
<stop offset="1" stop-color="#4C9BD9"/>
</linearGradient>
<linearGradient id="paint24_linear_365_28042" x1="13.3226" y1="10.6769" x2="15.6041" y2="18.7673" gradientUnits="userSpaceOnUse">
<stop stop-color="#A8D6E0"/>
<stop offset="1" stop-color="#71B1E3"/>
</linearGradient>
<linearGradient id="paint25_linear_365_28042" x1="11.7121" y1="0.783442" x2="13.4164" y2="12.7767" gradientUnits="userSpaceOnUse">
<stop stop-color="#8FDCFF"/>
<stop offset="0.17" stop-color="#6FABC6"/>
<stop offset="0.4" stop-color="#486F81"/>
<stop offset="0.6" stop-color="#293F49"/>
<stop offset="0.78" stop-color="#131D21"/>
<stop offset="0.92" stop-color="#050809"/>
<stop offset="1"/>
</linearGradient>
</defs>
</svg>
