<svg width="18" height="19" viewBox="0 0 18 19"  xmlns="http://www.w3.org/2000/svg">
<path d="M3.34375 4.34375L2.28125 3.28125C1.80937 2.80937 1 3.14375 1 3.80938V7.25C1 7.66563 1.33437 8 1.75 8H5.19063C5.85938 8 6.19375 7.19063 5.72188 6.71875L4.75938 5.75625C5.84375 4.67188 7.34375 4 9 4C12.3125 4 15 6.6875 15 10C15 13.3125 12.3125 16 9 16C7.725 16 6.54375 15.6031 5.57188 14.925C5.11875 14.6094 4.49687 14.7188 4.17812 15.1719C3.85938 15.625 3.97187 16.2469 4.425 16.5656C5.725 17.4688 7.30312 18 9 18C13.4187 18 17 14.4187 17 10C17 5.58125 13.4187 2 9 2C6.79063 2 4.79063 2.89688 3.34375 4.34375ZM9 6C8.58437 6 8.25 6.33437 8.25 6.75V10C8.25 10.2 8.32812 10.3906 8.46875 10.5312L10.7188 12.7812C11.0125 13.075 11.4875 13.075 11.7781 12.7812C12.0687 12.4875 12.0719 12.0125 11.7781 11.7219L9.74687 9.69063V6.75C9.74687 6.33437 9.4125 6 8.99687 6H9Z" />
</svg>
