<svg width="54" height="54" viewBox="0 0 54 54" fill="none" xmlns="http://www.w3.org/2000/svg">
<g filter="url(#filter0_d_1423_43601)">
<circle cx="27" cy="27" r="12" fill="url(#paint0_linear_1423_43601)"/>
<circle cx="27" cy="27" r="11.5" stroke="url(#paint1_linear_1423_43601)"/>
</g>
<path d="M27.1992 23.491L22.4683 28.3018C22.178 28.597 21.7073 28.597 21.4169 28.3018C21.1266 28.0065 21.1266 27.5279 21.4169 27.2327L26.6736 21.8874C26.9639 21.5922 27.4346 21.5922 27.7249 21.8874L32.9815 27.2327C33.2718 27.5279 33.2718 28.0065 32.9815 28.3018C32.6912 28.597 32.2205 28.597 31.9302 28.3018L27.1992 23.491Z" fill="white"/>
<path d="M27.1992 27.491L22.4683 32.3018C22.178 32.597 21.7073 32.597 21.4169 32.3018C21.1266 32.0065 21.1266 31.5279 21.4169 31.2327L26.6736 25.8874C26.9639 25.5922 27.4346 25.5922 27.7249 25.8874L32.9815 31.2327C33.2718 31.5279 33.2718 32.0065 32.9815 32.3018C32.6912 32.597 32.2205 32.597 31.9302 32.3018L27.1992 27.491Z" fill="white"/>
<defs>
<filter id="filter0_d_1423_43601" x="0" y="0" width="54" height="54" filterUnits="userSpaceOnUse" color-interpolation-filters="sRGB">
<feFlood flood-opacity="0" result="BackgroundImageFix"/>
<feColorMatrix in="SourceAlpha" type="matrix" values="0 0 0 0 0 0 0 0 0 0 0 0 0 0 0 0 0 0 127 0" result="hardAlpha"/>
<feOffset/>
<feGaussianBlur stdDeviation="7.5"/>
<feComposite in2="hardAlpha" operator="out"/>
<feColorMatrix type="matrix" values="0 0 0 0 0.0708333 0 0 0 0 0.254475 0 0 0 0 0.566667 0 0 0 1 0"/>
<feBlend mode="normal" in2="BackgroundImageFix" result="effect1_dropShadow_1423_43601"/>
<feBlend mode="normal" in="SourceGraphic" in2="effect1_dropShadow_1423_43601" result="shape"/>
</filter>
<linearGradient id="paint0_linear_1423_43601" x1="27" y1="12.6522" x2="27" y2="41.8696" gradientUnits="userSpaceOnUse">
<stop stop-color="#1999EE"/>
<stop offset="0.294125" stop-color="#115BCA"/>
<stop offset="1" stop-color="#0B3AA8"/>
</linearGradient>
<linearGradient id="paint1_linear_1423_43601" x1="27" y1="15" x2="27" y2="39" gradientUnits="userSpaceOnUse">
<stop stop-color="#679FFF"/>
<stop offset="1" stop-color="#3874DA" stop-opacity="0"/>
</linearGradient>
</defs>
</svg>
