<svg width="18" height="18" viewBox="0 0 18 18"  xmlns="http://www.w3.org/2000/svg">
<g clip-path="url(#clip0_138_62431)">
<mask id="mask0_138_62431" style="mask-type:luminance" maskUnits="userSpaceOnUse" x="0" y="0" width="18" height="18">
<path d="M18 0H0V18H18V0Z" fill="white"/>
</mask>
<g mask="url(#mask0_138_62431)">
<path d="M13.7151 7.9272C14.0449 7.84617 14.344 7.77471 14.6425 7.69943C14.9283 7.62733 15.2147 7.55843 15.4968 7.4723C15.5572 7.45444 15.6424 7.37086 15.643 7.31727C15.6515 6.33665 15.6491 5.35668 15.6491 4.36139C15.5476 4.34927 15.46 4.34162 15.3736 4.32758C15.1916 4.30433 15.025 4.20813 14.9083 4.05887C14.7916 3.90961 14.7336 3.71871 14.7464 3.52561C14.7522 3.33596 14.8272 3.15603 14.9559 3.02353C15.0845 2.89104 15.2567 2.81626 15.4364 2.81487C16.0547 2.80211 16.6728 2.80211 17.2906 2.81487C17.4779 2.81669 17.657 2.89582 17.7897 3.03533C17.9224 3.17483 17.9981 3.36364 18.0006 3.56134C18.0004 3.75426 17.9322 3.94021 17.8094 4.08302C17.6866 4.22582 17.5178 4.31527 17.336 4.33396C17.2689 4.34289 17.2012 4.34417 17.0985 4.35182V4.60702C17.0985 5.70779 17.0985 6.80856 17.0985 7.90933C17.0985 8.44908 16.9173 8.6928 16.4188 8.82168C15.5856 9.03732 14.7518 9.25169 13.9163 9.45649C13.7646 9.49413 13.7096 9.55283 13.7126 9.72509C13.7235 10.3631 13.7169 11.0011 13.7169 11.6544H1.31348V11.396C1.31348 8.31702 1.31348 5.2378 1.31348 2.15837C1.31408 0.854287 2.1249 0 3.35503 0H11.6771C12.9073 0 13.7151 0.853649 13.7151 2.159C13.7151 3.96966 13.7151 5.78031 13.7151 7.59097V7.9272ZM6.39531 9.64662H8.63081V4.79779H6.39531V9.64662ZM10.1044 9.653C10.6941 9.653 11.2723 9.66703 11.8493 9.64725C12.114 9.63768 12.2632 9.42076 12.2656 9.11835C12.2692 8.51288 12.2656 7.90614 12.2656 7.30131C12.2656 6.6397 12.2656 5.97746 12.2656 5.31648C12.2656 5.02747 12.1097 4.80608 11.8656 4.79779C11.2814 4.78056 10.6959 4.79205 10.105 4.79205L10.1044 9.653ZM4.91928 9.653V4.78503C4.3453 4.78503 3.78823 4.77992 3.23117 4.78503C3.17016 4.78309 3.10942 4.79433 3.05266 4.81806C2.99591 4.84179 2.94434 4.87751 2.90113 4.92303C2.85791 4.96855 2.82395 5.02291 2.80133 5.08277C2.7787 5.14264 2.7679 5.20675 2.76957 5.27119C2.76272 6.57144 2.76272 7.87169 2.76957 9.17194C2.76756 9.23241 2.77694 9.2927 2.79717 9.34931C2.81741 9.40591 2.84809 9.45771 2.88743 9.5017C2.92678 9.54568 2.97401 9.58097 3.02638 9.60552C3.07875 9.63007 3.13522 9.64339 3.1925 9.6447C3.76709 9.66639 4.33805 9.65555 4.91928 9.65555V9.653Z" />
<path d="M7.51346 13.293C9.4952 13.293 11.4769 13.293 13.4587 13.293C13.8919 13.293 14.2774 13.4014 14.5909 13.7306C14.7254 13.8657 14.8326 14.0281 14.9062 14.208C14.9798 14.3879 15.0183 14.5816 15.0193 14.7776C15.0259 15.3595 15.029 15.942 15.0193 16.5238C15.0143 16.9152 14.8642 17.2889 14.6012 17.5648C14.3383 17.8406 13.9834 17.9967 13.6128 17.9995C9.55139 18.0046 5.49023 18.0046 1.42928 17.9995C1.05868 17.9984 0.703181 17.8443 0.438766 17.5701C0.174352 17.2959 0.021998 16.9234 0.0142687 16.5321C-0.00345415 15.9426 -0.00345415 15.3527 0.0142687 14.7623C0.0420614 13.9035 0.665584 13.3019 1.52474 13.2981C3.06965 13.2923 4.61396 13.2981 6.15887 13.2981L7.51346 13.293Z" />
</g>
</g>
<defs>
<clipPath id="clip0_138_62431">
<rect width="18" height="18" fill="white"/>
</clipPath>
</defs>
</svg>
