<svg width="18" height="18" viewBox="0 0 18 18"  xmlns="http://www.w3.org/2000/svg">
<g clip-path="url(#clip0_138_62395)">
<path fill-rule="evenodd" clip-rule="evenodd" d="M8.30841 0.0724688L8.29829 0.0117188C6.40491 0.159094 4.55429 0.903844 3.04004 2.24147L9.00029 8.20284L11.0185 6.18459C9.50204 4.43072 8.62341 1.93097 8.30841 0.0724688Z" />
<path fill-rule="evenodd" clip-rule="evenodd" d="M9.44434 0C9.74471 1.67062 10.5142 3.85087 11.8158 5.38762L14.9602 2.24325C13.3773 0.844875 11.4266 0.09675 9.44434 0Z" />
<path fill-rule="evenodd" clip-rule="evenodd" d="M15.7577 3.03906L12.6133 6.18344C14.1489 7.48506 16.3292 8.25569 17.9998 8.55494C17.903 6.57269 17.156 4.62194 15.7577 3.03906Z" />
<path fill-rule="evenodd" clip-rule="evenodd" d="M2.63574 2.64677L2.64054 2.64197L2.64534 2.63477L2.63574 2.64677Z" />
<path fill-rule="evenodd" clip-rule="evenodd" d="M2.24245 3.03906C0.90482 4.55331 0.16007 6.40394 0.0126953 8.29731L0.0734453 8.30744C1.93195 8.62244 4.4317 9.50106 6.18557 11.0176L8.20382 8.99931L2.24245 3.03906Z" />
<path fill-rule="evenodd" clip-rule="evenodd" d="M0 9.44531C0.09675 11.4276 0.844875 13.3783 2.24325 14.9623L5.38762 11.8179C3.85087 10.5152 1.67062 9.74456 0 9.44531Z" />
<path fill-rule="evenodd" clip-rule="evenodd" d="M6.18441 12.6133L3.04004 15.7588C4.62291 17.1572 6.57479 17.9042 8.55591 18.0009C8.25554 16.3303 7.48604 14.15 6.18441 12.6133Z" />
<path fill-rule="evenodd" clip-rule="evenodd" d="M8.99955 9.79688L6.98242 11.814C8.4978 13.5679 9.3753 16.0676 9.69142 17.925L9.70155 17.9858C11.5949 17.8384 13.4455 17.0936 14.9598 15.756L8.99955 9.79688Z" />
<path fill-rule="evenodd" clip-rule="evenodd" d="M17.9271 9.69142C16.0686 9.3753 13.5689 8.4978 11.815 6.98242L9.79785 8.99955L15.7581 14.9598C17.0957 13.4455 17.8416 11.5949 17.9879 9.70155L17.9271 9.69142Z" />
</g>
<defs>
<clipPath id="clip0_138_62395">
<rect width="18" height="18" fill="white"/>
</clipPath>
</defs>
</svg>
