<svg width="18" height="18" viewBox="0 0 18 18"  xmlns="http://www.w3.org/2000/svg">
<g clip-path="url(#clip0_138_62446)">
<mask id="mask0_138_62446" style="mask-type:luminance" maskUnits="userSpaceOnUse" x="0" y="0" width="18" height="18">
<path d="M17.9965 0H0V18H17.9965V0Z" fill="white"/>
</mask>
<g mask="url(#mask0_138_62446)">
<path d="M17.9967 8.47443H14.7721C14.6497 7.28115 14.2153 6.22652 13.4736 5.32023L15.7277 3.06836C16.0169 3.46451 16.3356 3.86725 16.6142 4.29421C17.131 5.08358 17.5112 5.95437 17.7388 6.87004C17.8387 7.27147 17.8907 7.68522 17.9646 8.09325C17.9747 8.15003 17.9866 8.20681 17.9976 8.2636L17.9967 8.47443Z" />
<path d="M17.9962 9.73818C17.9289 10.1233 17.8743 10.5111 17.792 10.8927C17.5593 11.9519 17.1271 12.957 16.5186 13.8546C16.269 14.2283 15.9847 14.5791 15.7263 14.9273L13.4775 12.6789C14.2069 11.7858 14.6479 10.7343 14.7707 9.52734H17.9967L17.9962 9.73818Z" />
<path d="M8.26109 17.9996C7.87639 17.9323 7.48905 17.8777 7.10743 17.7954C6.0484 17.5628 5.04335 17.1306 4.14601 16.522C3.77232 16.2724 3.42195 15.9881 3.07422 15.7297C3.82822 14.9753 4.56681 14.2358 5.32213 13.4805C6.2139 14.2094 7.26544 14.6504 8.47237 14.7732V17.9996H8.26109Z" />
<path d="M9.52539 18.0006V14.7755C10.7187 14.6531 11.7733 14.2187 12.6792 13.4766L14.9315 15.7311C14.5331 16.0207 14.1317 16.3394 13.7043 16.6184C12.9151 17.1348 12.0446 17.5147 11.1293 17.7422C10.7275 17.8421 10.3142 17.8936 9.90613 17.9675C9.84935 17.9781 9.79301 17.9895 9.73623 18.0006H9.52539Z" />
<path d="M13.7427 8.99773C13.7463 11.6022 11.6154 13.7378 9.00571 13.7462C6.39599 13.7546 4.24756 11.6044 4.25196 8.99509C4.25636 6.38581 6.39511 4.2541 8.99955 4.25586C11.604 4.25762 13.7392 6.39021 13.7427 8.99773ZM10.5806 11.7131C10.6246 11.7082 10.6537 11.7038 10.6819 11.7021C12.1824 11.6061 13.1085 10.2253 12.6252 8.80098C12.4275 8.21864 12.0552 7.75031 11.6036 7.35416C10.8782 6.71769 10.129 6.10806 9.38953 5.48743C9.28302 5.3994 9.17386 5.31137 9.04489 5.20617C8.17865 5.94652 7.31285 6.67147 6.46686 7.41843C6.22165 7.64472 6.00362 7.89879 5.81718 8.17551C5.13889 9.14386 5.24937 10.3798 6.06939 11.151C6.44265 11.5031 6.89557 11.6713 7.42245 11.7069V12.6832H10.5806V11.7131Z" />
<path d="M8.46165 0V3.22815C7.27322 3.3514 6.21683 3.78672 5.31317 4.52971L3.07715 2.29325C4.61332 0.952511 6.39421 0.159339 8.46165 0Z" />
<path d="M12.6815 4.52751C11.7862 3.79031 10.6907 3.33793 9.53613 3.22859V0C11.6023 0.156698 13.3818 0.952071 14.9171 2.28884C14.1728 3.03448 13.4342 3.77439 12.6815 4.52751Z" />
<path d="M2.29104 3.08203C3.03448 3.82503 3.77483 4.56538 4.52619 5.31718C3.78852 6.21316 3.33638 7.3097 3.22815 8.46522H0C0.157138 6.39733 0.952071 4.61688 2.29104 3.08203Z" />
<path d="M3.2276 9.53906C3.3366 10.6942 3.78917 11.7903 4.52696 12.6858L2.30018 14.9134C1.00874 13.5247 0.106409 11.4868 0.0078125 9.53906H3.2276Z" />
<path d="M9.52877 11.6289H8.47238V10.385C8.19816 10.4669 7.94418 10.5611 7.68449 10.6166C7.09775 10.7385 6.57528 10.3674 6.45688 9.7763C6.41772 9.59776 6.4209 9.41254 6.46614 9.23545C6.51139 9.05836 6.59745 8.89431 6.71745 8.75644C7.0405 8.37201 7.38698 8.00788 7.75491 7.66616C8.13654 7.31403 8.55689 7.00151 8.95832 6.66963C9.02346 6.61593 9.07408 6.58688 9.15243 6.65511C9.81267 7.23172 10.4901 7.79072 11.1332 8.38803C11.3436 8.5839 11.502 8.86076 11.6173 9.12882C11.8788 9.73404 11.5121 10.5906 10.7326 10.6342C10.5482 10.6443 10.3532 10.5853 10.174 10.5255C9.96057 10.4541 9.75853 10.3494 9.52877 10.2468V11.6289Z" />
</g>
</g>
<defs>
<clipPath id="clip0_138_62446">
<rect width="18" height="18" fill="white"/>
</clipPath>
</defs>
</svg>
