<svg width="21" height="20" viewBox="0 0 21 20" fill="none" xmlns="http://www.w3.org/2000/svg">
<path d="M4.6017 4.06178H17.0926C17.2386 4.06172 17.3843 4.07098 17.529 4.08952C17.48 3.7449 17.3617 3.41379 17.1813 3.11616C17.0009 2.81852 16.7622 2.56053 16.4795 2.35772C16.1967 2.15492 15.8759 2.01152 15.5363 1.93615C15.1967 1.86078 14.8454 1.85502 14.5035 1.91921L4.23088 3.67428H4.21917C3.57435 3.79768 3.00094 4.16277 2.61603 4.69499C3.19592 4.28222 3.89009 4.06086 4.6017 4.06178ZM17.0926 4.99928H4.6017C3.93937 5.00001 3.30436 5.26363 2.83602 5.73232C2.36767 6.201 2.10424 6.83647 2.10352 7.49928V14.9993C2.10424 15.6621 2.36767 16.2976 2.83602 16.7663C3.30436 17.2349 3.93937 17.4986 4.6017 17.4993H17.0926C17.755 17.4986 18.39 17.2349 18.8583 16.7663C19.3267 16.2976 19.5901 15.6621 19.5908 14.9993V7.49928C19.5901 6.83647 19.3267 6.201 18.8583 5.73232C18.39 5.26363 17.755 5.00001 17.0926 4.99928ZM15.2385 12.4993C14.9915 12.4993 14.75 12.426 14.5446 12.2886C14.3391 12.1513 14.1791 11.956 14.0845 11.7276C13.99 11.4992 13.9652 11.2479 14.0134 11.0054C14.0616 10.7629 14.1806 10.5402 14.3553 10.3654C14.53 10.1906 14.7525 10.0715 14.9948 10.0233C15.2371 9.97507 15.4883 9.99982 15.7165 10.0944C15.9448 10.189 16.1399 10.3493 16.2771 10.5548C16.4144 10.7604 16.4876 11.0021 16.4876 11.2493C16.4876 11.5808 16.356 11.8987 16.1218 12.1332C15.8875 12.3676 15.5698 12.4993 15.2385 12.4993Z" fill="white"/>
<path d="M2.125 10.1367V6.25C2.125 5.40352 2.59341 3.98437 4.21918 3.67695C5.59904 3.41797 6.96524 3.41797 6.96524 3.41797C6.96524 3.41797 7.86303 4.04297 7.12138 4.04297C6.37973 4.04297 6.39924 5 7.12138 5C7.84351 5 7.12138 5.91797 7.12138 5.91797L4.21333 9.21875L2.125 10.1367Z" fill="white"/>
</svg>
